<mxfile host="Electron" agent="Mozilla/5.0 (Windows NT 10.0; Win64; x64) AppleWebKit/537.36 (KHTML, like Gecko) draw.io/26.0.15 Chrome/132.0.6834.196 Electron/34.2.0 Safari/537.36" version="26.0.15">
  <diagram name="PÃ¡gina-1" id="o3sJwQhHthg54lHIPTqp">
    <mxGraphModel dx="2667" dy="984" grid="1" gridSize="10" guides="1" tooltips="1" connect="1" arrows="1" fold="1" page="1" pageScale="1" pageWidth="980" pageHeight="600" math="0" shadow="0">
      <root>
        <mxCell id="0" />
        <mxCell id="1" parent="0" />
        <mxCell id="zemKmCcNjwJqudbQ4LHM-1" value="" style="shape=image;aspect=fixed;image=data:image/png,iVBORw0KGgoAAAANSUhEUgAAAYYAAACBCAMAAADzLO3bAAAAflBMVEX///8AAADY2Njq6ur09PTm5uZERESkpKR8fHz6+vpjY2P39/eMjIxgYGDt7e3FxcVwcHA0NDQuLi6bm5soKCg8PDy0tLTh4eHBwcG4uLhUVFRLS0vLy8uEhISsrKyioqILCwt0dHSTk5NZWVkeHh5/f38XFxdHR0cpKSkhISFS5u93AAAR9ElEQVR4nO2d52LyOgyGY3bYo4yUsAst93+DJ5Y85JEFtCf9mvdPaRIy/MRLlkQQ1KpVq9YvVTiZtIod2Zg0vvdW/rJajBUs3Qs7fe+t/GUVx9Bnve+9lb+sGkMlVGOohGoMlVCNoRKqMVRCNYZKqMbwU+rvM3ZSDJtPZ/eko0+TjWFWz7EztWMsgwPBsGZsa+2dMDaSnzMxhDPGxo/f4x9QuMziQGtDlzGzPmwYe1MWpywMnEL01F3+AXUY66btM/qGPWNLsi9i7D5Q/2VgGLzVFApoy9giZZfZRa8Ym4fkn1mo96VjaH0wtnn+Lv99vadysEZKSQWYiQrAqwahkI5hnFCYvOIu/30lHM7eHfaANeHwBRySjqJjHJmGYXxkLH7JTf4BjRgb+rY784akW74l3fLBppCGoclqCiXUZ2zn2exO3ybQgDH27pzAh6HNCs//anElHK7uVs8sOr4mrdLGqTteDOuaQllNmacgnzNm1BQeUI+5y8lPYWgkFNbP39df05WxqbXJg2F4TIr29GWXr4uBU2i/9g7/hnaM9c0tLoYe2D7c99zBwCk0X3+Pf0FDxi7GBgfDFFuutcPBxhAzdqwpPKizNRK1MUzleMrpfS0MCYVbbVN9WAvTnG1hmOrZhc3BxJDMLo4F3f1q+XQwzNkmhhGd4zVNDgaGZK79UVN4SntqpzAwXEyLx/hG7RQUA7c81RSeFLWdUgwX2/7HOSjbKcHA7eGDoNaTIisJBIPHGt4iHDQGY1Wi1uOK1OusMXQYOzgH8nU1saKjMOwd42utB6Uad4khTFkpHczl+qbEcLBXrGs9LjnUERjS/Qb4av+KfxAYFq7/Rq3HNcHpF2II56KsfZohIcRgT/9qPSk+DW4ihhzPCmyvAMPZNobUelZgFBokGEg/7NeW996jBMOQuI/VepG4iTS49oN5rmdFwmESfzb2joG21gvUYDP+Z5S/pn+BjnxTRyFyrXdT2ZFOTr3MVbOwWUBjMQkLx3lHhnjkoNBps8zfrXayv+1M/sawOb8Exvv9jxjXo65ZuleyjJ805rKHPPOP5ghzb4wjJ6yIhB3vkH8kFty40FlvGc+3gyOcN2gEm3NLeMOP+n4HwfGdWevFxzf9+Q3ulQ9pmvi8hl1nxOh//yeGY8YTDv0Y+oUwDDyP/R0aqYIWarG5+izKnlNa4UejST8aGAbtAlKPPc47UjRKYVjqtB49hUG8W9/uqYmXIXb9CcEg3oWzvh+6Spm8qKUvt0bjUD+/ix5ByU2eD/h5CkPsefu+Q3gZ0h30CAbuWMGEL8SNfzI6g315DDBg3U2Dr9wne+cD1u2663p2lNVTGJIan9PmvUZX6yZDRjEEJ/UqNGcJBaONnJfGAP4tfPrWuudP3xYwfbs+PXF4DkM7eezlD/jkTM2uYWdiCFq6GbKGhREriwG9jMCY0co2ZnxqY8bwWQ7PYUhA/IwzyHhNxtS8C5inH0vEPXrLYYjxsdG0l2lUWlLTnuNhU1LPYvgfBKPkQhjWx7IYuEGJ+7cQQ7ffxGobup80sRbAEEp5bkZu9x9gblyvhqfeYjJwvu9+dxwNT9PTMBo7JxrEOHqdB8Z3xtG5d7ru5XPwJYOwcRXjae+te5XUsw+4plr2SVlwGEgKatln8RSHfAxiQAid8Xw7PdBj53zrPfnw4RsyLegwszuXZ+nrM+z0udl8Kr/eeFcbcVnxrMahPUYle6XoU93hLjl542uDvYKWZ0wduX1aUs/u6FmhF0GXvuW3wZdqrdQi6MG78LMo9gaUwoC66ddjyf/ndrAu7LGGbW/61I0bPYMaZg/NM+Pz7ukmfBZV6FcPhvXM2Ph5glI3Mbgjz73r75t85U3UVeISsHUXo2lwoXYJsAJGQTt1xmw9gCF5RyVihaGFOwz0fMzB3uQdcl2GU1FUxtU5WvzDX0Vo+tn9eu4dXQye2iCmzpfuZD+SOwpgcL3fI+JZQR1kHNcMI7iQOMjszRjRwOsr7ldhDJ1uY72Oz1hekrrCwJ15mDWsgBYHXiQs2RHUdyzSKb36oslnAlybQHyKZMEE+ju80Bed7RYnK9vtdsnvDyl08M1uaAyT5XZ7h3/4kZ55mM1hRUM8DXcxK1Ax3V1spQNGQb3C87qiGPrmHvF6aAxY0kYnBcXFOzy0fMn1qY0sKHX1lpqPR6LiyNa4hSfUGLi+1EUDdCkl120wcvbgBP+kPbrpnW0G2prOk4bb3tisXIbzpAoYBXnjiPwqikFThRb/Az9rDMLgQFwHY1U+eDL1jFNdn/DqY2WjbENT7IyUTQxwA3LACnfAjEfXGKaZGIw4QSvQ1nIlJoGKdnCh6UosAkbtL+WqPAZs5/E1Ihiw8ySDu6l4vYUJVHdzsT6BwoAtGL/ruz67UjoGPBcZykQlMJAitYc5Hsd6LNI8x/qJciZOi/X1qjwGrPfYeBMMuFm/UaF6Tc1ClN35QV8dRuqb0wkK78O8GigdQ99bB4tiUNHLjpeRL8yEF7cbXOgJM4EAh0sZCg9gaJLXnmDAJluXdqS+BQd9kJPf1C6CQQpbmZHRLKViCC328m0oigFi+Vv8FbZMEW7Q1alo0FXC4QueLC0fh0/lMeD/OHSgGLCs1LWhjY8D+fIfl8vlPNHb/Y7jl5m+uoEBT5OAiO1tHgzYQdO3riSGYDxPhg7Nu22Y84Qg7viW6T0/BDE+DjkM1/M1Q+UxhOTRKQbsZWXXCf8d+ac18+qor25g0NOU21n2vKkYsCegs9yyGFL000neUjBMy2PA91+eqqsOiv0YmL66GStGjxc9fioGHC5Q49svxXD2Y+jr8imMAV9NMUaDPVCBcWVyGluCkvJhCNZLzQHbvu/EsEi+3bzY5uxnkjWE16Q9HfdKBagf6G3Tk6sHKIwh0G85tkS4A99u/yvjxZB85aI4QGGkYsApNG2Fy2I48S564ZhRn0hdEs7YEQbgZdI1bJz3CdR5BMMJ9kDXCuWLbTYsvaR4nadgSIphJaoEPHUqhphWQFBJDBhoy6MYTA4ZiXysKAYbQ4iRDyVTyLhjDZAughIYsFDAn+imi3fA0gsjFUOgTHb8YyoGHBY8PmBVIZ62GTUrrZVpRrUwqIVTy+aRJ2aUpBC25zj4LI5BOG4FAog0Im11JbGVhUH0NbyJTZ++YZ0h07dSGMhE18q7Z2FYFU3yRtwIuB22OIehr5CwTcIpVAkM2N9HonmSFnnsR71L5pkY0DYIdtVUDLjOQUasZTAYIZ6mOdtJeTgrlPKQxiaWS7aH9fpo2MkPtORLYMBuYCSqmNrMPKSRigcDOQxaNn5j6RiEgVxXhxIYrHUEw/qQkwD0zZ8A1MqvN8jzsKHCZ3wj1oOu8WwlMAS4GDnY6CPEY+jKhed4x8LxYOioooES3epb9FpY8dxvY+NLhTA46T/75J4z0+FGKelwm3aWQx2oWEA4OGVDHOgOJlvz7S2DAbvV87v5hoo1IX1HynvIg+GdvWMBtMHIB29TBgZ59wuA3Nr0i2LYuWvMxDJNMHiCC/WaNcXgGRwNyiSHFiuT7KPzvlXruqo2lcEQMiXjGcWS/X23iuNo96EKx4shaQLO+/0Jdl1kSaRikIzZW6ejbr5Ibbi4K/16nUZjOPsG2yRDicLgHaKG8xKjVmMRHrTUc8AyGBRRO/7l5FwBNnswbI3bwC4rE4PP//1RY4bK96YwpPiB6axJEoObaam8wvORPsU77eCtRVCBAWuvcpAhtwebnPlg/EkvMBOTpZ2LYUoOk87D2kGGC26VGs4HhyUzJe7fWvYrILmGLzGkekVyDm28BmB4VX69+Hzhdfq27a3M1ixccZGuZ8//x3dlwz8anVCyM5p472e9GAG1Zb+r9jf49/dmObW7cNxxe26bh8nWOHIuyr1Y4w1sB+3FN2P4p8jTK4l8bwKDm/1NSWbUQwyvzXJY2L3t4fMXu0BxP7uXC4NrEUOmZ4UoecBQ59d7uSDUHDD4MoMS8bJvgGN9nV/vG3Tm9SHpUnp5/i28V26e2b5h92+1XqEFDv6OvqzRhtp8LhQmx9/qnGLfIAxQbuYbhFo4u6p/LKOk4lknX0tRrI1l3pGy6xgVOGunTjGjVCwuWpjor/lHYpeQ4vVg6fi/PXXl1D50C0jaT/OOO8jZ1KbIactNYGoFUzC97vu5k5cVeKm33wsvK9Qqrg5jQbwJDO9srw6MrVp7PuOrf1fs5eJhbSFj7QkxZ3sF4W59tgtmGbngKiXoo37FUAFDPGEWrQIS/cLMbtyY4Xp2VFR0AFJpiQUztCnJ8FyvhAkcTXufGb+oWCH9Fgxy+VhYWON0k53MrycM3Z/lPLhthewolaCf9b6pr/klGJRnhVxvSP2BGGUCl8s+qb/kV0ihM8so5RBeVL8Dg3ZpUatvKQsJOsRTLYI6GdXLyMXwLRlFfwUG4t+i16K9i5snvRChXQJKRVlZEhj6m3Y4joffxuE3YKC/j2H+bLe91E9DPPv0Y65NNk2hWfAY/v1MZ+PXL8BgeFZQPyXH5WJKvZepu9j0YQ6hNaJHJ4iXL0FWH4P50htee87PyFAfcsN58lQ8EtqUjQH8hF4/J6w8BqsLMH1YDadIK8TTdCU+PZjvzcEALi6PNnGpqjoGe0BkeXST/Az2wNRyrC+cJcOUgwFci60zjeMo2jQ8LdV4slqtJvZEc9BIDl8bh1ccgzMsteMb1ITC4/lqNkMZPjUZcjCAVzatdc3hF5PDKf6FnlzyCxcyRdIXPT6S2ZD6xLep2hjcybIT7dPCaAU3q48TdPVQ+noHAzhSEvu5mTpnuFI71zRFkn6iD7J1q+pJpTF4TEdu7Ntgxm1NR8eE54YgPpLvzcYArpI6m/RaOFX2h1PlXokYRDLgt+WdYkA3R3aX9UQ+S5Ux+AypnkjQkG8YODM5T0DuA/nebAwquB8kFllx4HQwMIDbaI9X5XZPYUAK0+RewwixibpeYQwT3y8XPhcX7c/3liULA3ipq1ExehGrCrsnGGBtXTomxEz+hYZLfBlqhAgPrC4GHqvgLrJ5MAwg84QngtwzU3ACFfNkYoCOQHf06BGt6+FWY5gae8Rz3Ayka1J3Kosh8v9yoYuhdeeNgmth8GcJsAMV82RggLdZu6xjOZIZ414XLER0WCbgvUUNhkxoJ6kqBjstm5R3pNTw/SRiSrKGVTkOBgZ0zFFzN5KDHEWSFUHHbN0RdBekMqJhBJ6yohjcJIVCNgY1j3bM2Wk5M3gkdXEOHgyqVYI2hqb/JfF9GNhhcGjSnoELMxDA41QTQ/rvR1oYSHBh3zJnp6Yu2eR5FFAZGGTiRvy3bdaNwMAgEtneuvpKGE5+GQ6HO67eFbsWGGZVEkPGgMbE0KY2JSuFXnoGmTIczC5a5pQ6idNYLzzB0GZSKpmwldtWCpbKq4gh6/cjDQyWpdtcVshI5BOzwq7e1oBVzg34VbHHpbNGGnRMAv862Cub820laEoriCFzsksxOOs+J2rOzsqnxPvSYoEP9vQt0tUhJ1nRihT1Bm+Iqze0BPuqh+GceT/W6ps1d+75V99ccQ6F6oPfpgQd8163KUIGhqA11OGjfLI8VfXIVfUwNDMNobQ2nNy16J7em51drFFwedrBoBPMYt+Qmk+QayLDZ7ll/KorhqPqYQgyWwujb/Acqe2xOUneCobEuRjOEkPT2eVgSObPJ+QQyFQb/nXsCmLI1E/n2kvBACHnKj2SlAeDxNaWe/22lBpDtlwMYIKAdnNotzJeDHgG3nwe1SdHNYZsYSGS8fNal72ZWTUwMJA2DyypfDyAsw7LywkXq2oM2bIxhGCzE1N8nCrrEQXB8K5mlQDrps9lJkub4bJ2jSFbVpbrBq47y7EBLqItxR2NFxrDRZU2LFHgOy8C/PTgKpJrEjWGbIk3+NhfrDarM+bY0837WMwM7qfzuSezFQkM7DiM1+topipDoKbWt0WjFbTWXb6vxlBEPldiMu8bXNz92CgZmxS3lXP0v94ojb4Hw8hKQhmP7COkv47SjCxJrE1utwPa3JHvC+73hzTo9wv+xuai/4pwq7A/lTr1hvvYsxQ1iPfna+8kD8OfbRtEIskd21qeluuhTDI1uyqk8M3XeyjXSjRuxLG/6q7jOH5dlqdatWrV+hf1H/GT6/NT+52WAAAAAElFTkSuQmCC;" vertex="1" parent="1">
          <mxGeometry x="-14" y="150" width="390" height="129" as="geometry" />
        </mxCell>
        <mxCell id="zemKmCcNjwJqudbQ4LHM-2" value="" style="shape=image;verticalLabelPosition=bottom;labelBackgroundColor=default;verticalAlign=top;aspect=fixed;imageAspect=0;image=data:image/png,iVBORw0KGgoAAAANSUhEUgAAAboAAADaCAYAAADQdIdrAAAAHGlET1QAAAACAAAAAAAAAG0AAAAoAAAAbQAAAG0AAFHN0K1EHgAAQABJREFUeAHsnQWgFdXWx7eJ9YxnvM9nKyKiIhioqGCBlIiFSHd3d3dLSaeUEgICChIGoIiNjZ1gF/qs+f6/de+Mh8M59557ufjgvr30cs6Z2bNnz5qZvfaq/zogEDlPngOeA54DngOeA7mUAwd4QZdL76y/LM8BzwHPAc8B44AXdP5B8BzwHPAc8BzI1Rzwgi5X315/cZ4DngOeA54DXtD5Z8BzwHPAc8BzIFdzwAu6XH17/cV5DngOeA54DnhB558BzwHPAc8Bz4FczQEv6HL17fUX5zngOeA54DngBZ1/BjwHPAc8BzwHcjUHvKDL1bfXX5zngOeA54DngBd0/hnwHPAc8BzwHMjVHPCCLlffXn9xngOeA54DngNe0PlnwHPAc8BzwHMgV3PAC7pcfXv9xXkOeA54DngOeEHnnwHPAc8BzwHPgVzNAS/ocvXt9RfnOeA54DngOeAFnX8GPAc8BzwHPAdyNQe8oMvVt9dfnOeA54DngOeAF3T+GfAc8BzwHPAcyNUc8IIuV99ef3GeA54DngOeA17Q+WfAc8BzwHPAcyBXc8ALulx9e/3FeQ54DngOeA54QeefAc8BzwHPAc+BXM0BL+hy9e31F+c54DngOeA54AWdfwY8BzwHPAc8B3I1B7ygy9W311+c54DngOeA54AXdP4Z8BzwHPAc8BzI1Rzwgi5X315/cZ4DngOeA54DXtD5Z8BzwHPAc8BzIFdzwAu6XH17/cV5DngOeA54DnhB558BzwHPAc8Bz4FczQEv6HL17fUX5zngOeA54DngBZ1/BjwHPAc8BzwHcjUHvKDL1bc37eI2PbPV5clzqLukUL7/gav1l+g54DngObArB7yg25Ufue7XH3/86cre1t4E3UMP9HMHHHBArrtGf0GeA54DngMZccALuoy4kwv2zZ632nXpOcmuZNjAJu6OCsVzwVX5S/Ac8BzwHEidA17Qpc6r/aLlQ0ufdC+8/LaN9YLzz3SHH36Ya9Z6pP2eNLad2/HFt+6tbR/Z78svze/KlS66X1yXH6TngOeA50B2OeAFXXY5lwPHbXx6qyt65YU50NNfXbz+5geu3G0d3B9//ukOOeRgt2rZMNe+y30uz6GHuG6dargyMmNizjz44IPco0uHunPOPuWvg3Pg24ZNW93VV+XsNeXAsHwXngOeA//DHPCC7r908xE2F15a3dWsVsa1b31P5Dtj+7Z3P3HnnXtatkfWVabK+2WyhG647hLXullFd6gEXa/+092GTa/Y9jo1yprgsx/Z+OfNtz505+Y91R144IF29J8SrH0HzXQPLlrvXt48LbqebHTtD/Ec8BzwHMhRDnhBl6PsTL2zt7d97EqUa20H1Kt1iwReKTdxyjK3/JFNJpwG92uUemdxLb//4Sf34kvboq1ojWh4z2x+Ldp2SeF87qgjD49+Z/VL8zb3uqc3v2qmz/p1yrtxExa7mXMetW6eWD3anX7av7LapW/vOeA54DmwVzjgBd1eYWvmnWK2rFyztzWsV6ucO/aYo9yQkfPsd6+utV2NqqUy7yRJiyeeesmNvm+h7aXfe4c2d0HgXNPWI9yPP/5s29u0uNtdWeSCJD1kvnnC5KVuwND7rWG3jjXcBx9+boKOqM4Fs3u7Sy85L/NOfAvPAc8Bz4G/gQNe0P0NTI49xYcfbXdLl29wBIJ89NEO16n7RDe4fyO3es2zbsWjT8sUeIBbOKevK1zo3NjDUv7+22+/u5tvaePeff8zOwahufPnX8xH99vvf7gBQ9KEU/58p7vliwe7gw5KMz2mfIL0hmhzlWv0dn9Kgt5+azFX5LLzXY8+U92QAY3dP4/7h3t567uufJmi7tRTT8pq176954DngOdAjnLAC7ocZWfyzv78M3At2t7rHl6x0Um5cocqUGRg34bu//71T/fvk09ww+6d7woVPMeVLX2VO0D//Uvbs0OTpi1z/QbNskPzyc83Y1Jnd1PZ1ibQVj083FWq1sO9/8Hntr9vj7qu6j0ls3Ma9/n2r92f8ic+vHKje0P+usb1K7hvvv3RvSP/Ytdek93vEqpodwjBoRJ+Pn8vW2z2B3kOeA7kAAe8oNtDJn7/w05FMf7hjjv2H5n29OVX37m6jQa5F19O85/lPecUN2lse3fWmSe796SBzXtwjVsmQfjll9+6Qf0autvKF8u0z/gG3333o0Nzgw4/PI8bP+khmTEX2e82LSq52tVLu59/+dV+E5V5zNFH2ves/DN/wVrLzUNIly97tbv7zhvdGaf/y9IWGjQdatdCf2itE5XSkApvaP/pZ1+619543910/WX89OQ54DngOZAjHPCCbg/Z2FuRjDeXKOKuuLxASj39IiEzS0EbRa+6SILoUPfa6+/L7FfAhGWj5sMiIQh+SWv50Zo1uiOlfpM1QoCWlCmT6Mg1K4a7U0/ZM1PiUPkRx4xPE5yc87JL8rsxI1paugJ+x0IF8zqE7TPPvu6qV7nZoj2TjS1++5MbXnbtOo9zq5cPd/846oj43f6354DngOdAtjjgBV222JZ20Ftvf+TKVGjv+veu7yrecX3KPb3y6ruus3xzfFapVMKde86p7pHVmy1opGffqe6zz79y5ctdo4jGq9xJJx6Xcr/JGvYfPMsETtuWlZI1SXk7JkvMr0uXP+XOPONk17ldVdek1Uh31+3Xuc1bXneLlzzhCl18rhvYp4E7T37ArNB9Ex9yg4bPcUShdulQLSuH+raeA54DngNJOeAFXVLWZL6jau0+7qmNr8gcWMZ171wz8wPSW4wc86DjD+rfq75SAd52DyxaZ8nbD9zfyx3/z6PTW+bMxw8/7nQHSaM74ojDcqbD9F627/jGVazaXRGX2131yjeb+bLPwJm2t5MEYAOlHWSFajUY4NY9/oKE8sHumScmpGzyzMo5fFvPAc+B/z0OeEGXzXsOjFbJcm3saHxRDyqkPlWq32SIW6Uoy9MUkThtQkfXttN9MlmmwXZtfnJCjmhxqY5lT9p99PEOd+1NTa0LUhW6daru6jUeYr42fHejhrVIuXvy/ApfUdvh84R8Ll7KrPMNPQc8BzLhgBd0mTAo2e7BMrGNk6kNOlKa0itbpkcoIcmOCbePn7zEwvELX5xP0YjOAdtVu8FAR2rAlg2Twmb7/Geg1IKLi9RyRyugZdqEToaUwrYtz71hvsZ6tW9J+RpekFZ7291dovaPrxolDfH/ot/+i+eA54DnQHY54AVdNjkHfuQDC9dFR69QTlqB88+Mfmf1y3b5vmbMfkRwYJWzeuh/tT15efjUTjjhmD0ax71jF7gRox+I+nh81WgzhUYb/BfPAc8Bz4FscsALumwyjqCR6fc/Eh29p2gmUUf/o18qVOwSmW9hwcZ19ym/8Pj/UW74y/Yc8BzISQ54QZciN3f+/B93hPLSQho+ar4bNW6hO/n/jrfUgEsLn+fuG5Xmswvb+M/UOEB+YZFr6hvKSnjEC09P8cEoITP8p+eA58AeccALuhTZN3L0g66R0D/y5DnEjsDMCOTVtVcXtAkZfMnnN01O2U+X4mn/J5phAsYUHBIwaNu2zo14CT4nVR2OOSbrye1hn/7Tc8Bz4H+XA17QpXDvge+6+obGbur4ju78/GfYEeBSNm4x3DS65o3vMMzKJQ/2dxdflDeFHn2TWA7UazzYrVn/nKskhJU5DzzmTjj+mF2Cch5bt8W9+dZHrkmD22IP8989BzwHPAdS4oAXdCmw6RUBFN9yZ0fXp3sdV035YtBLr7zjbr2rk32fM727VSKg7lvzJnfaNv9PahzAJHzJVXVcvrynWdTmwoced5cUyucWzesbddCh63i3dv3zbuP6+9whKhjryXPAc8BzICsc8IIuBW6Nn7TEDRw225US1Nf40W3tiG+++cEV1gQNDRvQxN079kF33HFHO7S6fY36DJzhAmmlWUlq/7uuYeWqZxzQZ00b3u4eW/ece0OpFndUKO6GDWxiQ/j119/c5fLffff9T27JA9KYBTG2vxKRpYBeUzECSDZMtIBfn5//TFc/xVSM5198yzBRsTLAG1JSfvnPr+788860Ar6xvAGT9MkNL+l8B0XnTBVc+5R/n+BaNr0rtjvVH3zN4OuoTh97DaCU638jFiJHHHmYO/ofR7izz/q3y5/vDAema2Y078G1Al94WVByabyhf8zVv+r6ftN1/vTTLwaCfuopJ2bWldu+A/SeTdbfex985r4V2PhJJx3nzlS6CkDnZW6+MtMIaQAd0u5V2rVyUvjdq1sdq86R6SDUgJqNlMfiWviD99wvrunX//zmTlawFcDqnvY+B7ygS4HHLdqOcksefsoKlZLndthhh9pRF11W04E6wsR8+GF53Oz5q90maR2AHe8L9MmnX8ivdZQbMeoBRwVwIMC+FQ7lKf/OfLL4u8Yf8pYqC7UbDrTJrXunmq52jTI2BPhOG6iH0GdqCYVmf6VnlV+47Z2P3VOq8r5i5aZIOPxDQmHLU5Mi/29G19ew2VCDiwvbHHH4Ya5ypZtcfaV4MJnH0quvvWdIMwuXPB4BbbP/OJVRKnLp+VHT/0hQAqgNws1/NJlDCIRVy4ZFbfjy8Sc7BHSwxa1QceAtz78Z7UNoX33VhdFz/9XX37uXZfEgyAgC8Jt3pG7NcknReba+ylifd4w1rK4RnuCiC852zeQeKHHDZRlWwWAxNGjYHLdg8XoJmMBxHIDp8BzTNwuCkDIDZnhO17dNi5KHlj3pNj3zaniYGyC4v3sq3hT9TvaF923FI08bLB7zAkI7JBYDt4sfmOJ9geKQK3v30wu6FPhb7vYObqsmDWjcva1tRcj3ChU7W2L0vzTB9O1ZT6ggg22Flt3SN/SZkzRt1krXd8CMKIiDiaCriqTWqlY6J0+T7b6YVC8tWtcdeMCBbtyo1q5qrT7W14OCQbtc9e2gilV72GTBd4Qcwi43EOZYNK6Qxo5oZSWawt+JPr9QVYurrmtkWmC4/7mNkzOFjNsgwVolnbccd/NNRdyEMWmWibAfPnd88a3rK+2feokXKCeUeoWJiHFcc0OTSChSZmrjunG7NEXQgH06ZPhct+WFNKFIhDLnLXjhObu0jf0BsHe1On2jTdcXL2xgBNGGJF+oCILP/HPhxHZqX00uhpLusDxpC1IO+ebbH1yr9mPc+idesB6e2zhJfMs895NFwJXFG9nxHHjVFRe4uTN6WB+p/oNmB09DIjq7dMkrwp/+82/ggBd0KTD5rirdHatxiFXlpHHt7XvsZLVYPqVK1XtZZW18dvsCsTL+/fffZb562YZDhOjBBx8sMOZ9A3HksbVbXF0tDsqWuspMSUNGzLU6fS89O800ZDSSslpkhNRHZp5q2ayfF/axr3wy6S5e+kQ0nOLXXOxmTP4LGSbaEfMFE/pwJdVTFirUEF57fmZSLSnmUBe7WKssjQQg8kREiaeyFdq5I4883C2e3y9RE9sGKDmBQ1DBC892SxcMtO/x/2Ca7dR9gntw0XrbBYoO78o5Zyc3Z5a9rb17VVU9IEDP+2kRmRHR9p7qPd2PP/3sRg5pbqWjErVH+OJXpyjwi89MdcfK2pEZYa6tXKOXad8cj7l5w9pxFoSW2bHhfhbJ8D+kpQsGZCjsw3b+M+c44AVdCrzs0mOSmSVpiq39ycfGWLHUWXNWuW69J1sPHdtWMR8GaQZPy3wZb0ZK4TR7rcnipU8a1FiFW67da+fITset2o/WZP+k+eOWLHvKPSF/EpXKAbaG4oVBbopqxUxL9YtPPv3SzGxMoE+uHuNOSeKDYpK9vlQLB2zchk0vm/YFj559aqI78YRj+ZohgWAzYcpSa9Ow7q2O5zUZzRAQAprPtImdkjUx82XjliNsP2bL2dOSL+7wSwHvFlpFWHDNmtI1ad/9NdaJ6WNtVK+C69AmOVrQzwpmuqlMK/eJTK83XX+pm3zfXwIl0QnWyA/M4urtV+ZYaalEbWK31dF9wjSLEA1NmB3aVHGN6t0a2yzT74WE44rbAFr/6Kh9ZrGZ6cBzSwO9QJ7iOCCnc6AXKNqqSMDgjPPuiv6kedg++SGibdL6gvvnrrLfk6c9HB373/7y+hvvBzL/Bbfc0SF45tnX/tvDic6vunzBBZdUD84+/+7g8+1fBecXqma8UyK+tZE/KDjngkoRf88rWCWQqTM6fn//cnulroEEfVC5Zu/oGofdOy/pZanWn7V74aW3gptvaRMd8/a2j5IeE7tDpZqiY0bftzB2127fZXIMWrYbtdv22A0q1RT116DpkNhdCb8/+tjmqD3vkuokJmzHxn6DZkZtVfswaTt2CHM2aisTbYZt2fn9Dz8F8q1n2o4GAm4PzsxfMYAfKj8VnefGMi1TOj62UcEitaLjd3zxTewu//1v4ACrSU9xHJg4dWkw5r6/XjAeTB54XlD5lAIBGQc//fRzILNgUKBw2gR9doG7gzff+jA46/yKgVaYcT3+934yCYVCWuaT/95A4s78yKpnbFwsEBDA4Rif1aQC9egzxbYhCNlXqXrPuB727583lG4ZSMsKVq56Orr2Itc2CH7TM5WImrYaGcikZ7vuqdErOibkV6JjYrf1jREeU6bvvhCTjytQkIkdwnP94487Yw/f7fuy5RuiMbRsN3q3/fEbuK7z098V7qcAF+KbRL8VJRz1PXXmimh7/BdpivYu0t9Fl9WI353095z5jyXdF7tDRYAD+eFtEwtfzhE+pwIhj22a6XeEa3jsTzt/ybS9b5CzHPCCLgE/byrbKih4ec3gu+9/jPaWv6uTPagz9YLywIZaW816/aMH+MFF6wImbvZv0gp8X6Du6QKDMcnJvy8MycbQusOYiI9oyIyPBYR8OsGOHd8EaHCqjB6E/FW49y5jR8tWmaBdtu1PPwpfWSeYLIGDULmyeMPoGWIBEE+KXgzOvfCeYO4Da2xXk5YjovYq9xTfPOHv3v2nR8dgeYin0eMWBqrGEb856W9FI0b9dew2IWm72B1YFrjP/KG1JaNe/aZF7ebMX52sWSDzatQOLTcnSSDrwbkX3RMIGCLqVi6M6Hxdek6KtqfyBetFeO3ysaZyiG+Tgxzwgi6Omazc0Mp4KIeO/MuUJP+GbVOJnUA12ALldgU///KfYOqMFdEDLHt+IP+G/b67Wo+4nv+en5gEVaE8ULCCnZAxzn3gsWDW3EcDJsyQPvxoe/Dy1neiduH2vf25Zt2W4Otvvg+mz1ppWjLjQNOE36FmoMg/+z173uqg6HWN7HvsCpprFFJNMHP2o3t7uHulf+4NmirCAho1boFdIzxQMd/dzjlu4uLgQmkTO9M1gW69Jkft5z2YJvx2Oyhug+DqomNUyT14/4PP7O/Ntz8MsGDA5ykzlscdlfxnrDmfxVQqFCug0ZaSUffeado8/FCqQLJmAddBG/5q1R+QtF12dqBtFy/RTO/HX0JJNSOj87EQ/kXvVqqU/+KqdizmeE9/Pwe8oIvjuZJEo4e5gFZhX32dJhyUk2YTswICgrETFlubKdOXB/iSzkx/2fJdVFm+h0+DcwpUCuR8Nu0krvsc/7npma1Bm45j9dL9an0XK9F0l7FxPfkKVrYx9h04M8CPoaTsoPydaRrq1PTJbetr75opTbXxcnyMsR3eXa1ngAancO+get1+gcLBI7Mwq2fMxEwKaHfKZbJrEXLKLgIZvw2TG9e9P5LyzGz8Clyy4XPNeaWxcU2YyGP9V0y0CuUPmPxDGnbvfGtLe57FVAgNhPYZ/c2ak/rCQakRUV8sTFKhNh3TtHjG0Kv/tKSHdO4xMepbeZRJ28UK77qNByVtl9Ud+PEuvLRGkIgfJcq2jsYWLlRS6T+8v/kLVU2luW+Twxzwgi6OoUqcjR5kXsjYl/judNMLLx+mJPx1isYyO344gSySSa1m/f5B205jg9cUCPLBh5/HnSFnf1aXORItYPa8VfJ1vW4TJaYwRfTZ5Ik2gJ+B8RFAgFP8mhubBEyybMMXxopcofxmrg0DbXJ2lGm9cQ7OySSC5ozmGQbwnK8JAI0lNLENHDrbBC/tMXOGhGAM/aJ1G+Xc5Bb2/3d8cm+4rq2vvhudrmmrv8yRsc/capkmafv6G38tQNC82MZf7wHToz4y+iLQ7OiYiVOXqb/3g1ek0RNogcmdvtCyU6X79byFYxg49P6UDlO0Y3RMRgIabS/se3m63zDRCZTeE7UjuCenCE3xgkur24KDZzT2j+cyHBuBRKmQUGyixTCauae/nwM+vSAufFamPqcIQNtKYish4OtV7Rq0ExAX2nYaZ8mehxxysCWBtml+tzteIMRahdoxJLjeedt1DogwvSDCZjzYtWy2K5RS3Cn36Kcc627Fo5tcSSUBAysEksMPP+x0o4e3dPIr2liPPfYfTuZLB/pIjXr9DQppQJ8GTkENbrySV+VjsSRY8gXnzerpLixw1h6NKdnBYToB+zlvKSXNygfn1j/5ouXSde9cwxUv0dz9rjyxtStHujvu6eZITp6svMWblL8IxSbf3njdJW6KgLb3N1IEpWGjblg7NkKpIbma5HiI/K6nHx9vCDyaTJ209V2wPxctecJJ+FtbUkZGDmlm3zP6JzZV4z6BHpQWDFYsAX5wS5miro7QS1IhCUXXs980a9pE8G3thLqTGd1cvq0QSj60ZuSaFr3ywoSHyIRtzzE7STAnwT0RaVHmJDBt15FHHOZe2jwtpZSBRH2F2/6jd0gLQXvuwm3JPg8UpNfjq0e70049KVkT2/7rr787WVXsO/eWHD5PfzMH/n7Zuu+fsZhs82fJhISPiNWbEl5t0ERLsdLDNLlsRVrUGb8JigjDh7HBswJ8971PA03UwWVXS+vLJIJtTzhC9CfBM2sff17n6xpMU5QaYxbotGl3yl8KwtBy5RDZPvwZhLKjka6UuZDjMNM0az1yT4aS4bHKF9slXUCTdaC8ItM60eaEeRmEvicJs4i/+EI0+VjfmGnD1TSfe1P7zPBi9nAn187445+L2LQBTINocbTjeyytXrsl4kMin15s2/C78ESjYx5ZvXvAC37czEL5w774vG/SX/4xTKmZ0bcyVYe+bwIzMkoVEcxZNFY02mSEZSX2eRCuZ7KmKW/nPTjv4iqRNQaLTPyfEHyi86Zy7d9//1PUHjO8p7+fA950mYDn9yrCjxcI0whmP4RX6DcJI6+IGkOI0K5H36kmOMKXbtqstJBowS7Z/r09IQu1xcaKH0eJ10GRa+sHhJNjKmL8nJ+xIQz5FHiuBHC9YIICa8ooZJ3ftPtOgmdvESa2kD984jvEZEZgD35DfJuYg9n3ikx6IW87dZ9oQyKUHIEe2weCe38kzHaJghJCMy7XSIAOeXaYeePD0Z/Z/FrEhzIV2qXEghryh4a8W6WctnjCxxt7/8fKD5pRVCsLpbA/YanGd7fbb/zZYftBw2bvtj92A+b4sC3BS8kIXydpPWFbIZgka5rSdp4xgpx4xzOi2IhT3ASxASuJjsPcHo6RxWVmtHzlRnMtZNbO70+dA17QJeAVLzirTyajcPIJtZ1XX0/3M8nWvvCh9fYA42h+7fX3FeDR0X7zCTVuOdx+s0IkmGVvEomzApG1FAJW5+QsCSTXtMrQab96zRYLACGMnCg7ohaJLiOoY7Ny2fYWobnhV2NS5oW/+vrGdip8mar6YN/DiRMNJQxCoe2L6flKgr+yY8MJ44piyjnTxLQ/EoEhBS6pttvQ8fci2MJr5BkkMCOetqb7OmmHNgzAQWaEdSHsNyMtiX6ICmUhJAi5pN3GpgCMGJ2xoCPwiMUX5ydamechI8LfFo517fqMFzNhmkrYnujo7BIRrPSTWRI+vuTQT0z7hyWYMiKBSkfXA18zIxYlwsbMrJnfnwUOeEGXhFmkCvAQE1RC/g/RcGHwQPgiEhZe+ta21g5BKMRyM/9xHMnjsWHSAnxOcqac2azSHybEnnjqxUBo6QFjJFkcM1U4GTy6enOwRdofkyPmM8ZMkjAO9r1JmMQw9wrb0XjFipkUA3LlMPPKD2eBEPBNMEsBQSZ8DxPcWSQguBl3qfJp/CbIZn8lok1Z/CSi2LxHeEAKSDxhXWBf+Pfsc6/HN9ntd8lyf0ULCmN0t/2xG4RhaX3Lzxy7eZfvbbU4Cs+fEaLLzp9/scUXbYk4fOmVbbv0k+hHiRjNPaN8O479+JMvoqTxcDw81zxfiYh3lOhe+YV32c2iqZisC6nm46miRnT9JcTbMJ1nl07Tf7zw4ltRWwR9RqQyTLbAjh9fRsf4fZlzwAejJPGJhijq1PIa1LeBBaEUE/DuTAHvhqVjKHfSq2ttC5DAMb31OdV9C5yTRuduUKDEZZfmdw2aDnVg+9FfbOWDJKfdo80ATxMAU6rEFe7tdz5y4PrdUPwS9857n1ptrcIXn+u0WHcS2O7Wcte4o446QjW7XrJAFpz5e4OoUADS/dVXXeTyHHqIm79wrfAI2wtl/msnRBTXrVMNN1+1yK4sUsANUzmhnl1rudK3tmMB5kYMaupuu7WYeDjEPfrYsw5Q5ynTHrZAAYqwHiOA4P2N4McNN7cwbMYVqg5QQFUCYomSMgphNxDhZBUECJBSMn10WPPGd7rWzStGv+O/ANR8xbUNnCZ/2zVFeJA3ChcyngBgpvCtFmgGGv321jlJy+JQaYJyQxC169asGBmVrwr75XmU5mcYl5SjGTuipbsog8oFHCcEFVfkmgZRtYCjBC7Nvaa+XTKiOgOVQyjiG9Lx/zzanrnzzzvD6r7BM5nE9ey/5wg4u3do812CXJSMb+DTqVYn4N2q02hQeDpdW/LqExKsVlmBxiedeJyjRFAiAl+UwLDPt6ue3sKB7kKVGfKUMxzwgi4JH5loiRLjBUEoyFzhFATgiBa7XAKs6PWNbcJt0eQut+W5190HH213T60Zq1phz7izzjjZXgLKnDDBVLrrRpvUlS/lVj08PNOyKkmGlOlmIj0VSGM18jJtnN7g6H8c6V5WtYC9RQ9IsHXoKvT62b2dfC82cVLTT1qNIeg/JFBnqix07VjdgIoB81VIuUUjPq5o18cVkcmEQtVxyvRota66ZmWt3NDeGvPe6FcrfhMiFPSk9ht0uqL1GghgmWKigFkffnge2165Rm+38ZmtrreKfFavklbRnh3bd3xjwMxzVd/sZ0VixtI1WkjUrlHWFljhdqL95Ad1ChxRLbkvws12LkpLhaTod/eFSvQogCqqIZes9M6a9c85oag4BTuFh9vnGSpqevFF5xiqv3JPrV4d9/UERSRTFqpG1dJaWB2+yzGxP6KxTtRYVUcxlq4tWtCVUYULFo+x445tI9eBa6VI1DCqM3Zf7HfeXRZM+fOdbpsp6DphyhI3SQsopbwYaHvt6mXdZZec5y4pnC8hYDaLVllzooomdHSE7l2F8te6eqoLSA08CJ7LTeAW6B5QbBWidFAYQWwbtKShhBC1AGPvEe8IvPOUMxzwgi6djzKpuIMOPEirqL9C61ndyn9lpTlGDW3hWrQb5QrkP1MlSQaoovgCx6R1pKopT5/Qyc2au0qI8FXdtTc1Ma0PzYqHmonhsbXPuUH9GtqqjpX05HEdrJpAztzCv3phMqVKsxWYlGapIAb7+1mfrHZ5kWWi0d8fpjFRQJYq0JXvTisk+fTmV+0Fp5TPnhJpAaDq33JHx7SJ/PICtrq/+44bXEMhvwtY2HXtUN0VK9nMeErFAqqLl6nQ3jHxDuzb0N1a9mrTbljhLlRplxZt7zW0/ycU0k1tM0gRbU5BNm5fq8wQzz+urf/g+91hhx+qUkSH2DPF/fpDBTq5JyMHN3MUYIWYSIUF6YaryjplbUJSfp0WXh+7Q/McYuWMSHGhwKescVa65+T/O8H16FIzbO4EJ2b9UBT40EMP1l/aeaMGSb588eV3NqawikTYDG1TwUFWwudQnZs+qZqNJmjPlT6Z8I9TOgsh90V0zwtK+FFoNDNS9K+TzzjiT9g3POIaOUeDuuX1fOZP2hV8EHi0k4ledSLfdl/qOng/ecbzqiwQgujSwuftcvwqWQrkm3N59C5wTSxwOSflrUibiK+dx2JDuKMqwnyYXf8hupcHHSQecIzeKxa1pBhBygd027d/s8v9ErsyJLTvteufd5RfSrUafIYd+p3GAS/o0h+EXv2my9S3xepqHXtsWp0qXq7rbm5uK62SN15umthcvRTkLWGKu1omOQUCuNtlXmPSfvudT5ygv9w/jzvaPbxooJXtyXvOKTJldlJZjwpW6RitsIsKQ9arfYu9wJQAySlSVKLO8UnUHe/UgSordLAmGibXwzRBHqLJjomHbawyyRuiuOSPP/5sVY+H9G8UHZ/dL0KWcIqyMw2jsMqTLFs0yDVVSZf3PvjMLZzbV6vXz12JGy9z/QbNsknmUq2c2S7fnHtMJqF8eU91K5YMsaKdlJapL14xeQ4aPsfdfecNMiU3jIbWvvN9NpH01SrdU85wgEUaeZetlSPq6e/nAM/04Bx4D//+ke+7Z/SCLv3eKNpP2tArJsBIrEYQQCRkh8ngE0a3NfPIcRKE+CS69ppsSeQIlKWyqWP+oc4YVKhgXjdzald3hFbTCL9XX3tfhTU7u9oNBpqfYtqEjtJgPnSFC51r7bP7jxag0mp+NIF2652dncL0zb/D+MuVLurw38gZ7l57832nvCwT2gg1tD7GzYoXP0a71pVzLFGcIpuK+HRj5LfookT6oloUYHLE/LhImhm1vVTiyKpes4KGV2hsCk5xf2hxMVvmYRYL5e7oIFPVP9101UWjYCb+LfgeFo5FKNaTcCx+bSE3XffMk+eA54DnQCIOeEGXzhVFTrm3t31sv6pXvtn17l7HvmOSuaFUS/fRJzsUMHGBBOGFTkmi5vzH1o6pDRo6oLHLI42pWet73UVyIuP4DvthQkZboYo0pktQMBrXv83QHzpLu8sOKRrP9RkwQyaabWY2wsyB9lj65ivcooeecC0a3+U2PP2yaY4Ee/TqVtsJ6d78YaC8oNWZaVM+CsxLCKGcIuXmmYBfMLePIcSAuLLt3U9cGATx9dffS4h1jHxV1xcr7OADxTkxFzWoU97dWbmbUwSamyrkE6V4mHnyjgrFrUgr48SfoahMK2YZW6w1p67B9+M54DmQezjgBV36vSS4JAwSYFNsIEDoq2M78ElKxlYE2w+mXQjnTxGNn0pLO9ugv5igu3Ws4ZRb44S478YIiqucoJVuvauzHPjbTCDiWzn5X8c75dm5jevGme+EvrNCpW5taxphomNqVCllgk3AyK5755qujOCeiPxSWH+a/y7uICIuF0oo5Zdmt6e07vEXXK0GA1QJ+1y3eH4/WxTgjwNWbJm0XvwoKhdkvD5GcEgvSVAPky9KVQzMb0VwzwML1zlhM5pGWvKmyy2qFQ31seUjTJvDXIzwDAMiwnPt6dj98Z4DngO5kwNe0KXfV8K1ibCECFvHvDZNQSakFOAMLy3NjYiufHlPc80a326aG6H7941uY9pFFUXKgXunAqEWQTVe28EpJCCFCV71rVwlYUsS5fjosqGKMPzGhB++vbq1UsMXTB+qOcuVpG6O83Bb7CcmSaIcwSJUcrFFkuFgj6czFSlHsAPaIcKQ9Ic9IbRf5blZOgNRawvm9HFCjrBw6Xkze1oKgYpqyv+zxrQ7gksIfIEfd1XubsL2SIWTjx2/2KlWm+Fu3iN+sqggYKZ/r/o2PAKEWHyEVE0aeJ90DTzc5j89BzwHPAdCDnhBl84J/HD44yCCTdp0GOuOQNOZ18eEG8DDABBD/XvVU0TbZuURvWxAsgSt8JtIrVNPOck0GgIo0EIIL75A2sxi+aAaKyBDybrKW7vcHP0IBfKEHl02zHKRrPME/xCZN1zmUiZ0zI5EGqIVVZfmhqZEaLbK61hgB+Y+iNw9Qp3rKwcNUOBEhMkPE6oQSmysm5SvRKRkdgmTLtobdJsi3AjjvujSGpYLN1w5cdPvX+l69Z3mxoxs5QRVZqZUTL74DDG9Ej6OVq2EaIeWSQTdwys3mR9x3SP3Wg6Sks+d6gTuMkT8fjlpet2lc//Dc8BzYP/ngIIBPIkDoG+A3AC6Aogm4PHxnVpgXwq5AxLyv20rfGXtQL4xQVq1NxgqKneDuAAsEmC14DSGsGDFSzazY4DhAtHiXNWso1YdqBMhkgNFWiUs7RzJ/qHo43UlmwcA3k6etjwAwBbEBeCKvoopqAr6CcCx9N1EEGRUYQZVJDwXiA6AOPMbnEBK54S1ygDqzS4xnrNUTDQ8j/Lhgi3PvxEA1cW1gsACpBV8DaGWlHoQAHirAB6DsQKmSnl3hmpB+7CvENaJEkgg1BS9Pq0YK/tvr9Qlu0P2x3kOeA78j3DAa3QxaxXVobIQ9oMUkj93Rg/L+3pViahoC3NndJe28ZUTRJCF5Ve9p6S7Rzkz5KLdWKaV/HLV3R0VrrPE8GOOOVImzF7uOkUDNlRaAeVwZGdUSZkOCrCQ305aCSVFbizdMkrQRQPMLDBFoLtu4LA5bp3ybD7f8XXMyJ2lPpAj1LzJne54RSy26jDaCfxXuUPFLOmYEjCYFjEBoundXF7XIU2QxGDypUgCXv/kC5bQnlXEEZJ1VVA1SlRHO1v/6CilCmwxjZPf1Wr3ddco8RcklLIKVgGdAh8eY7xemhw5VEKOt9QBUjlIlRBorwOpYva0bk718wz9Ip8SfUupbMuwUfPt+qcpIpNgFk+eA54DngPJOOAFXQxnEARE8r0pX92p/z7RYIKqykRIojWh+qOHt3ACsBUqwkIztTEB55EPThqSBZQQ0EE04yk6lppaJItTT+vJp152KlRpwmjJgwPMdwcE0SAJLZK0QyIXDAGaCu1QKoO0OfN/Ub/tPzJPYgIkL+5UJeu++94njrplX3/9g9v81ARLcgUqCSG+UjlqAkm2/ZyLaNAZgjYjn468PoJlUqXnXnhLEaUDhe7wY3QISeEkyIOMceCBB1geISkBwKfVbjhIqBlvWI5d62YVzeSqAqCutyJIIUycJE4D6YQPcfED/Sw3sHqdfuK5c1OVllGvyRCruUcuI/fAk+eA54DnQEYc8IIujjuE699RqashVphmoRQCIgChpgp9b9boDqF9dHBvKRWBpG+0CYJOINAgHlZyNAITOC4wG4EseujB/u62il0M2og+q1Yu6V58aZuhSBDBGRJCZrAEBIVbUyGhwFuKwdKHnxJG4B8JDyHYZK7y0vCPkd8GAcl0i1BHBPxsv/kHH1gIXRRtzOCLLB5uxv2PuAGKOkW4hkT+25qVIyzBm23wQWVM3Any/QFFhXA/4/R/uUeWDDXIK4QxwSX0B6H1kjowbOR8aXzk3P3iqtbqLW3xZ/Odgnqh2nUmsMGKPC8dyskO9v94DngOeA4k4IAXdAmYotI1hinIrs7tqppG8YDw6qAh/Ru78/OfYYKrbq2yyqsr6Eg2D4lIzMkCzUWT6d1/ups6c4VQUW5V9GYh67PwxXklaMpYNCQIIFcprQHBGEtVK5V0PbvVcgcLUDoVAupo1ZrN7jsFqQBCfbjMqQgWBO+xRx9lAMIbFDiDJgqdLSy+tRJsZW/r4FR2yLahGaEhpUIqnePk19Ox7+/SHKxG8t4wN4Lf9+yWNyy6FPPoubpWTLxEfz44u5eZg8EFbdJypAnCsCNSCAhCIWUAEyqLCK4LzEfgn6gwDjUURmTHtlXCw/yn54DngOdAUg54QZeANWgoodaGqW/yuPZuuJD1SQLHrIcJjgoA25UiUF6aERBfECC9H368w9BIQJP/4Yed7vpSLRy+tUeWDjWNCZgwojPznn2qJZiDa9e4xfDd8ttKlSgiU2nLLJkR4y8F0yHnBxS3SqUSrkGzodaEiMZXhaWH3wtwZWiqNKkbrtsd0d52xvwDyDLJ7/EaJH2ijYHO3ndgWt+YVKERg5saRiMaXSuZK1vIjwgUWuPmwx1wayTRgzeIeRPN8rvvfpJw/sJVqdnHEsLxPQ4f1MT4jNA7R7iFaHMk6HvyHPAc8BzIjANe0CXhEOU8QOqgbMg/VY5nwph2JpAAK0bTIKQd7EZAnkk2h/DHDR4+14ECf9+o1lYuB7Ni87ajHEncaCVoNRAClNQAAlAQrCRZx+e6ARA7sE8Da5/dfy64pLr5D9esHKlxNrJUA0qmAIwMEQAC2PAwCRJy6TIizIugxHDd8QQ8GhpdvSaDdzFlsm3T+vHKr2tjwLozp3SxigSUL2LfqGEtXNeeky2tYO7MHoasz4KC4BVMs/8nCLCH5KdrIZ8nZX0OUd7dgrm9hZSfN34I/rfngOeA50BCDnhBl5AtaRvHTljshoyYaz8uOP9MRQzWNIFEcArC4iFFDf5Tda9CVJV8555mASyVFIGIxkNwCjiSBFYQgPHMExNdhbs7O6IUQyIikbprX371nSGuhNvDz1EKWimvMkHZpcJX1jEzIgnki+UPU1FN5c5VMCFM0AdoLfgNwZEEODkjiq+DFrbFp0iZHerOkWjPNd11+3WW1H1PxZtMgOKHw3/JtaMR0mayNMDB8tmRsI6Wh7YH6nyNuv3NXGn16xQRSp0uKkVAISB2eG7/6TngOeA5kBkHvKDLgEMgotwjxBM0CegWQXkhdBo2G2Z+JUxq1Kebv2CN695nqrUB3xIMTDQ0kruXPNDfip2SlkAJFcp2DBw2290kcx3FGwnB+IfqdOGbaquyHpRoiaWTTjzWbVg7LlsmTLRPVTR2pymJHdMp14M/Ee1UlZsFKJ3PrRb+JRUPnn1qYuxpE36PhUKLbbBx3X1W94yI1GMF6wWklyqFO1U6F0zaCDdxyjKlXhQ3X2QVBZZQNWG8NEAE2Ox5qx211ND0iOCEbzVVu4zEd9I3jldNrqrS7hg7PJskMzJC0pPngOeA50CqHPCCLoZT1D1DOMUSJUvKVGgXhc+3b32PIeq36zTO6qYh/EgVUDK5CSmm4PEyYX788RcOuCuCKsjJ2/j0VkUcznYPSLMqoRyx82XyPEd1sghWgfD1NW98hyulSE2QVmIpu5XJEZo/ScO6TpGhb6uWGCZV0iQeXLzedew63rRN0hkILNm2dW5UsSH23LHfAVemYkMsEfDy5GNjVIevqaGq4FfcpKKh7VRqhJw5BD+VpvG/gfeJKbhnl1qq/Xega6qKBv9WXTnK+Lz+xvtWjb11i7tdHRUQhe9UbS+rdA+0XYJZFs/rt1vxTuq85QRGZ+w1+e+eA54DuYwD/yOJ8SldpoCCAwEx79ZWsF2GyAESB+geCqQIVK8r2ibzZqDJOLjquoaG5lHw8prBRx/vCNp2Gme/FQQSyP8WSJMLVAwzkN/OtgsuK1AxTft+tlBFPvpoeyAzp/0OUUH4rCPkkOySYM0CBdYEAnU25BLVgguUT2fnOFN9P/fCm/ZdATOZnoK+YsfFd2FZGqqL6vQFMlsGg4fPMR717Dt1l/4ExByhvwjAObjw0hpBvoJVApXrCaRVBvIlBouXPhH8+OPO4LU33jeEGVBPOEchIdG8/8Fnu/QHEs3kaQ8HVWr23mW7/+E54DngORDPAfKXPKVzQNWTDaJLmstuPFHKQTTJMym/+faHAZBU51xQybY/uGhdICT+QDXV7LcSzw3eSrlq9rtbr8kGEzZp2jIJvT8C1Wez7f0GzwoUZm9QY0z0yk2z7bECRQgqu40nlQ3CuAzK39nR+lu05HH7lGZphwIlxjlkjjSYLoRPZqTq5buNDWEp350JzCLX1jf4Mc4FCf0kkNk3WLB4fcB1Dx81X4Ls50BIMdGYli5/KgBSjb4Zg0y8wXLBf82Zv9raFBB8GfBnsfSxFhGVa6b1oQjP2F3+u+eA54DnwG4c8KbLGA0dExvlX6Bypa8ytHwSriGSnokE3CjfE3SGglFWLx9uviiKiv4sZJJZU7pa3lgL5XrheyMgo0v76ko52G4IKiRkY7Lb+fMvVtWAyMO1KlAKuDL5eccpunOu/FoDhs62c4T/4Kfb/GTmPrSwPZ/SKJ0EhqG63Dt2gQEsS9ha+D4+LqDLgOKiysC3CufvoMKrl6jSd0ZEusSlReuajy22HX3M1LV/qMrh+c493QJKALN+QqkI+OM43/8pcZ5gnaZKuIfHJN8XUIAPwT4T5TP8VKZK+Eak5exp3WXufF0J5ktU5aC9QYdxPj29BrxNniNBLxA+uxLyiXryHPAc8BxIxgEv6OI4A0ZlCMsFlBc5YAgi6Otvvjc/E0IEIpKROnSffvqlILZGGBYm+I1LlFJAlCApBG+8eL+hl8gcZz6sM884WRWxL3aXX5pfvrg/hcQ/182Y/YgS06vZNjApKYgaSzcqv40ctawQUY5nyweIwL7+5haubat73CydB//hm299ZD5BSviQkE19N6oIpILIApKLTIa7DYXKAwisbfIF4lcLUyWo/g0SC8eNVcVxAWa7E5VrV6t6aTdt5krXt0cdN1MpDiPHLLCAEzpevniQRWzedP1lruiVF9q5ZLp0HbtN0L1JCwxiI6gzBOpQJcKT54DngOdAMg54QRfHGYp5yjfk2rW8xyCrgJ5qUOcW16r53e5QJYu/o0rZQtk3zQMh+OmnX7nvf/hJ6CcV3JQZy5UI/aybN6On69V/mlu89Em38qEh1s/S5RtMs0ErgU4gmlCBIDWqljJtD3SUkmVbWxJ67JA4J8DFqaKWcCzRlkWva2TlcI7/5zGq77bIIkdbKnyfIA+CYMDzpIbbluffVIDJJFVFP0daZaPYUyf8zvgBYJYp0qC6YhuB+NKtk9IMbmxq6Rdobd9+94PlyQEmfZ60PVUnkBbWQRGWb7gLdc7W7Ue7dYq+BCUGWDXopWemOaeoHvIVCcyZNHWZQyv9RVicsdS2ZSXTDGO3+e+eA54DngPxHPCCLp4j+k29s7UCZO4tQYAJDvQS8uGGS7DxiYmTMH1yv045+UQlM4+yKgA9u9Zy5Nu99fbHMrddZJGYF11wtiF5gJfZvPGdDgBjJvaQmMzXrBjpyNmbNistApN9QIhdX+wS10g5b5gGs0IgkEyftdLq1+3Y8Y2reOcNVl182MDGpm1hpnz0sWddG0U4FiqY14TJL0paJzE+VUIAyadoAghsSgjUGCIw6YdtvQSBBpIKWt3wgU1dp+4TjIfU4CMpvFHzYdaO2nlorRSKJS/x+Y1pkZ1AjclvasDPFLCNFXSkIFA9HT7tDwQ/iCxF+wTTFG2fausscNCodyo3E+g04NJCwrJALcED1RaTN1oybTGTU1HjlH+f4FReSv1+YP3SJ31Tv5BEe0zFiYjzklZy6KGH2DgwLYfj4FzkVYb0xIaX3O+//WHt6Bt+/6bfv/32m+Vecs9vVjWJkHhXaBOOmecE8/VvqpRBxYpzzznVFbzonLC5Fok73Wal7xysfrhGriEai36DmgNhfaB4sV1jOj9STTM5Xs9UPCYqFe3JC429H/H9scikJuW/xWfSZrJDWIE2b3ndijF/rkUmyEGnC+sVa0t+4bTGn/MTWYew/gAOb/zWtQb2nPxm1UZ4TrAwnXrKidFwVjzytN7h392hQgoCUOEgHQsvw3cj/hzRgelf2E+f8IRakAcdzH04yP2p583uhe7fz7IyXa42RFmHxJqdhX3aOQ+0a+E+84zybGHl2VfIC7oEd4KbW01o+a+/+b4b2LuBTULgVvKQIdzArnz2uTcNk5G0ABBUztOkgpZEDl0vCTzMnj/8uFPJ0YPdGJnsyt6mFIVvfnSDpTXxAik60X2gBwvYsGkTO1vZnDCtgImmjbQV+swOUU2BArAIOV4aTIHHH3+s+cBWaYLr0KaypUKg7ZHzdkPpFoZRmWxizGgMvBj4+uANNFZFVbkOCtcCAQb25/DBzYTA8ojMlWWs0KyCUyylAUQYcuMKKQVjGMVU9cJhQqUw7RAhzFDxIc+hh7o6NcvaRLFsxQZ7+UkaZ9v+RBTcHSFzNsIOQRNPmGj79aznYoG1SQFZrVxL1RvcpTmIOtw3Jm9yMcdPXipz9IdmWQgbkvxP7iTm3XgChxTM0C16hhE+ITE51dY9isUQbdpqpFJjXrEq72G78PNoAQ401LtA8V6I9wbYtmcFjhBaLsK2fDLurh1rWKX5cDvpISOlrb8lc/q7738abraJvoYWMwARQPhr5wnsgHcmq8QkTimqWFr56NNWJPiNNz+0NKFwH5M+/msmeUAUQjr5X8e764sXtmeYVJfMaIfgASn7NW/BWvOTY8GhP/zcIfG+rVLR5VhioaCgLb23H0Sm/Nj9V1xewAo/A4MHsRBSvcmE/I49LrPvm5QL++TGl12PvlNtvPHtryxygdwMdV3ec9LOy37mt5ZtR5urJ9bdcvhhefRclNdceVd8N/+1317QJWE9VbzvrNzNzGkElQAiTBDEY5pYLtaKdOiAJvI1HWsrwiLXNrAJmxfkgYXrrCoBdeHq1CznvgXcWBrg99/vlI9pvK16qslk2aLpXY6yOWgqBF5MSvd70TelfLJLoLZcdFlNE2ZDVfGb0jujBbNFtQIVbnXvK2Ckpc79rFaZ22SGfeaJCeanYzUH0DNCOKtEZYSeqhwOoSUeoP+G3jvPdReSTO0aZUxrO0kTLqvU/oNn2bWy2mxQ51atmPM4KpOzeu3Xs67l/N1VubtpKuXKaMzFCpm2Sw4geJpAhoWr/KyOM2xPnTzyHJmwrrriwmjly340B7Sqg7WSDgORwuNy4jO2Uj39Ue0B6Dh8tokIgVFHSDJMgEf/40jV62vgSpW8YjdNgBJNaMzLVmyMumFSBNAALSgRUe/v6hsa22RZTKWagJuL1SjDYxgD9QbRTEKqeMf1JrQQdvHE4ofKGAhUCK1pioDO0eyTEcFeVWv1dZukxWIRWKScSXIv4ym2ij37yGMd1O8vkzvPP1XqN27a6sZOXKz37ifz88KHRLRKAOL1FRQWEhM54A0QGLX44xc+9ISwWB8zTRoNFri7jLQVQNaZO5TKY+95iRsvM6hAhCi+ZrBgmUcIPnth05Tw1Lt8KgrZgBLCjcdIo5yo54R7GkuAPVC7EcI6gwvlYn3y7HIuFYeOmj++arSVCsN9wQID/N4Qzo9gN4LeCAYbpGA4pQtFx2FVwgqUjNDYiQPAuoBVgrxiNNd9ivQQe0rCAb0wwY1lWlqY+1XXNQoEgmy5XlQIz6dK4VTkltZi2wizp6p2156TohB8PYCBkqcDwvyh1h3GRPsKXVErECqIbS9WIq0KOeH+5JTtCRHqTz8KcLFPKnJzHVCNuv1s28Chs4N7qvcKzldFdSis+C3cS/ud1X/00kTXxfXLTBfINGnpFPQlU0bEA/kPLQ2DY8iDY6xUY5e2ZlXer7+5ufL+OgbyaQYK8In61YQcCD4sq0NL2H7lqqejfknd0GRh7agyv1CpEP2HzAo0qSc8dk83kv9Xolzr6PxUe8+MSAmBT5lVUw/vPW3DP3I8MyIJR2sraLiMmgVr1m2J+qRvaZIZtg/TQ8JxpMJPLQTtHNNmrkjat7Tb4LyL01J46Duj9BJpuZb+U71O36T9cT94BsJxkvqSiIT0E6USnat3X0FXiZrZtnLKW6U/RWknbVNNY2IeyYhIUQrHxTuRiMKUH94VWVJ2afLOe59ExzMPxO//Rek/WvxaGy16omNppyC16NgrijUIdu78Jdof/wUe5tdcctnV9YIv9X7vi4TK6ykDDmhVGij4xG46wkyRf4G0i6Bxy+G2jX0IknETFltCtoItTACepQRwHlLywOYvWGtnIGlcPj/LoZOPL+BhJ9E8fJgRpjw02SUEysuvbAsYpwI4ovGF/YXbSOYmv492CGrZ9wOtyEyoh22z8vn59q+ia6BvEsf5LF2hnQnT8PoQaPWbDrGuya3j5UPYCgrMeKpVsCXijxq3YJfjKlXvGTDB5RSRqB+OqWHzYYFMbtZ1mPzZwAwAABGNSURBVFvIvZRmnlOn262fUMAzBmlru+1PtKG4FkO16g9ItCvaRm4nfapiRXR98Fj+5qhN/JcQMECmvPhdu/zmubz8mnpRvxyXEfGsMzmHfG7f+b6Mmtu+67TIubJYw0BWiAzbypwa9Ttm/KIM23boOj5o0nJEhm3GT14S9cczkIxatB0VtZs6Y3nCZgjA8JoBhkhGwpgNrrmxSbLdtp2FZ9gXc0UiUoS3ASrIF7jbbgXORccD0JCIWFByjnie874plSg6XnELiQ63bSyUmUsyes6SHvw37dhvBR2rERjMCyQfWSCfQyCTyV5hG4nPrdqPjm46KxwVALU/mS3tgXhm82sBL91ZmljkWzKNgFUtSB+stEku54ViBUryuSp8B1ueeyN49bX3on550bNLb237KBB+pbSiLy0BO0RcEQ6nrcYQqAgkBHDtBgMC0FvQViEFeRhaCvtI2s4qqRxQdA2MIdRAwpdU8GCB0grs3Ly8MtWaFicczkCAzsH2HV8HJJnzx8sfHsckDa/iV6KgpKBNZ2dRgHYt+LboHCS0hwSCDUgr8S99uD+nPkMNmuvkuUqF5Ae1BVJGbd+QBkOfaFshUAG/Ly5SK+l9VT1CO+aJp17MqGvbx30M7w3aUmYEEELYngUf70IyCscx4/6VyZpE23nnw35lNo+2J/rCgkUQd4l2Rdtmpls/6DMjgRwuFGnXWeASiQiwiXBswn5N1MS2sbjq0CVj4c9iMOxLgVsJ+1IEdNIxxwpdVS5JePwXX3xr2liinQ+v3BidHwsWC/x4QoPj+VKwXfyufer3fifomNx4mBAw4UMQfgJHtTeJB0/+r+i89ZsMMYSULj0mBedKW+Gl46U5u8DdZpZUMEiA5sZqB+iwcJzhJ5NXrKDbk/G3bDfaTKjyUZimxMRSrERTTdq/mbBQ9KOtuJhYGQ9j6N5nijSXtQGrQv7GTVxs15BVHio6MLo2Xm5ePtBOOBcvC/BjCDVW+AhFVoogtoQmVcycyh+0Pi66rIaZLNFg0PRCQvPErKv6ebaYkK8m3JWlT2F/mskovAfyydnxwLyxgAk1R9BrFDiQpb5TbRwLpZbZJBz2KbzVTCeT19NNyKqUoUXN17toYBzPsxFPqqtofH/u+Yw1NI5TdYroPn/8yY74rnb7zQKFCTbkNdedjNC80BhDM3+ydmyPXaiASBRPPFeYzyEWfpmZTXlvwzHK12zHJfoHK0XYDqGXiGLvLc/5niy+ubbwfG07jU10Ont/WXQnore3/aVd4kZJRrUzgBiMhSSsUqvPbl20aHuvzcWqE7nbvn1pw34l6LATN0k3GYYPQPwnL3hO0EphUmIKiieFCAcqlBo9gAiUiVOXBkz2wFcpUi5YIQgrHvIPP/o8kBPf2jJBgzPJJIR2p/B/E9j4rMJrQAB99XXWTXRMzucUqGTQWcBnYQJEG8IcxaIAjVfRlgGTHRobPg6E8fMyP11yVR0TyucXqhZg/sBPlVUaO2FRdA28dN9884O0tG+CqTNWBLxgXB/8QBO7QyZT/HhMaGhy7TqPs0VA8ZLNAuUhBorksjGG2JusGNGUYydMeA7fskNgkKqsUjRetFsmLfpkIRMSQrVE2dY2xnBbTn3GmqT6DJiRUrc3l28TdJNWnBGFWhHCC2KCDyHquAf4iOMJjZp9LLgyo9h7gIUgFcIMHD7f+JwS0dfyD/FMjpeWngq16fiXr3uZTG/xNHrcQrOqxG9P9hufYDhGAa8nbIZb4IZ0Xx7m9mTvCZpu2BefwOItX7kpYZ+ZbcTlEfYlMPXMmu+2P3YsyXx8ux0Ut0GBK4ZLG44DyMCQ1j3+go0vmaAN2+0Ln/tN1KVWhxb5Jd9A0mAecteA4cosbyRpBzE7SAwvrYglqg/ceVtxq6l2pPK/QqJ0DykClJaByA/qqmTpbUp6pkRNXUVcLlL9ty4Kj+4zYLpbsPhxi2g8UzBgwIeRS3PGaf+ndIRLXXWlMhABCRGxdGsW689pFelGjJ7v6ta6RfXe3lPeXX6LECuuSDpSH/JqbPVq3+KAKiOE/SiVBSKsmvBmaV0WHdlbY2zV7K4shwTrIXYly7Wx6ghEVW56fLxVRiBXMERHoSLE/VO7KYJtu0VXFlVZngmTl6h8z1JXRFFkVe4uoRSDvE5ahaVnwIcXXnxbiDErHTlCRHWFCClUgWjbQonijW6nWZaJ6FIFg+xSHJZOyMZ77YVZVgyW39KQ3UPLnnRn6349rGrmR6hIbE4ROY7kDEJNGtzm2gm1JjMqqTJPxa6+OAq3T9Seqvfl7uioqMHhds9pE3sufvfuVscKAPMdEj6ru7ViZ/eYyinlTQ9ZT9uz+7+yODgqfEBbt8zYrZLE7kekoQldVbxRFKq/VBHFsXl0HAOgASkSG9ePU8mq3aM44/vlmQWMAZo0tp0rEZP3R+Rfs9b3GhjD7bcWiz804e8p05dbpRF2EpHMXyzJiGTABg8J8Yho4f696juKIicjIpCJRI6lQgXPdfUFPFGqRBF7B2L3Jfs+94E1FknL/rq1yrmuHdJSLZK1j98uDd+VVjUUiDlhwZze8U1S+q2FmdMiy9qStsKzcphy9kre0lZVWM5wkwXDt6/TfiPogNQKi28mYurJKvdCodNE4dGJ2qeyTdpQVJaGatjkfFmYvsKkyTmCmDiZ0DdoAt6odAGEIYLxVRUYJfdEUXz2gMuMYDBXFGBl0rSkT+XQlS11lSb1t9zg9AKvPDjLFw3eJeQ9s7GSE0UYNaHPjGPDunHuOIUjhy8ciankJBF+ToL6k2vGWg08mYssHYKQZBBLyM0ZOaSZ8mN+TjmHj9w2JhaIl5iJdJESyY/ShHWYeESeVmlVLiePKCQgxMixu638tSoj9ItNxtKmHCkZpHF07jHRMC1pTzh1Pb3khJ1r5a3adQUN3zKPXrTsEkno0rqtuGtsH5cK67PolRe5F156yz218ZVoF7liHdtUiX7v6ReuH0g0CBCB1s0rZtolIeTkJFKRPhm9KKFVQULr8VWj3Bmn/xWaryAKg6XjOJJ758zoHqUzsHAE6YfQ8zO0+MqIqG0I6g705kuzheiT2j2QJmmLPo676/brd0HgYRFDwd4Kt1yT4bVxbEg8bzx3EM9smOLAswa8HYsv8jl5t1IhFlz9lToEtdeio7EWH4zrUwlNFq2k/pDewtzSq1vtTLFVKbo8XCkz9EvyfiyxcALvNRUhHDv/UCy5fQYh/rHnCL+HCx9+s1BMlmIRtk/2iaAnN1eVXawJucMUbaaQ82qlYgBcsK/TfiPoFElmWfuxDKVeWaWKNzpyesCQzC56QWyf8d9lG7eXp7K0DgVLKMn2DZvESQwvW+pKR/6RzHAGi5X/vNOtzhyJlAheEEAgEkVDjQCEDHJMSORmNf2ekmSZSMvf2UmA0GmTSDNpK22ktWRGCFhypEqVb2s5SmggMhm66ZM6u+skjMHQ7KGCsFRDv0d8GqRq3tDW57Qa19jI55k8/WFNMtcaSgR5T6zWOIbE7cwIrbdCxS6WOAoSw0MqMitzr2ljstlrMXCwCTgmXXLfwlp/5Eyp1JGSyFdZnT4mJgThqoeHKTn6e2nS7VzxawpZUjgLBEVhOpm3XE1hZnZqVzVaZGQ2voz2oxmC85mMWBCQAF1MfCTvkYkiJywFnE9BSU4pHnbqVLXoG8u0sgk2Npk7fuwsou5UDuKGtWMNsCDcTzL/bRKAABpAJ55wrHt44UD3L2naWCbIkduoxVFmi0SFw1ueFX28+9q8lDUTJkgsCxC5pk9L6w/f1QWLVBtRCzAQdXhnUiEQdeRasKZYP3iuEC6/6DrfVQ4fiDLgqpYVzmsqNHb8YjdEmLNQZz1fZVWz8dqbmuyS2A860RzVlcxKninv+Jj7FjkF5ezSF+fB2jJqWEt3zDFpoPFsiycWdqALQakuiKxx+j+xfGeemjk57R7Etkn1u1J73C13doysNFhAOrStYgvTVPv4b7bbbwQdiY88OCEBzYPK/O23P2rSuF8PzFFumV7enCYmO0Xjudd1oytIAyl8cT6h82+z1cxn27+y1eR8oS5gxpTN2k4P5BCaWf58Z2jF+W9bXZ9+2kmGVkKVbuC+WCGGhJmTBNSwkjYPUTUVLO3coZollIft4j8VvWcmFEUq2kqZCt/5BVG2XIVMEYAkhVLIldUXwgwTRGxCLKgaJCMDwbVz538MgWO9tAHMHUse7J+hQMFkC5A1yacQSCW3KMGbCTVIHygaJlBFn332lQl7qowP7tfQgLG5frRjkDvkgzNAaIQhiBXAI23e8obg1xZb//BziAQvGs2eEpijaNkvb303SmiO7dOSq3UB4IJyTT8KyYJk95wkYOV4XqA2wlBtpoK7mRH3+LbyxSwhP1nbUHgjSMJFRdgW1JHyd3SKqj5gkp8/q5cJOoWuCzhgvBUUDtsn+lR5KgMcR+C/9/r8RE2SbgPoW35A249WWl+mdDN7yyRbIP+ZZrJPenDcDp5Znl1o/qyeuyRRkzgvv5gbIESjW6UlpkK8N2CpQhQLBoSc5/pXwVndrEUkkFYHCxKLaiWxyDWp9E0bEujBhn1gwTqzZITHAYYwdXynpNabWE2ztZ5HLB5Zoc3Pvu4qVuthh/DuTJ3QMSuH79YWczumcIj3ep0AJnjH9wfabwQdL0kTTayK2jPzGxrHO+9+ag8otu/ymmRffvUdZf4fY1pWTjIfjax+48Hu8adesm4LXniOmd2YgNdKuCls2srs3FW1u/D4vjH/G4JRGXHWHu1pvNAUlG7g1ghDE58ZIMb4yArLdg9CAgTsT1tVHQjNHUCA9RHsDmbOeFJkmevQZbybNbWrmZ5AkUCIYp6g/A04kQiwEvKfIVTyyIzIdaARoe1hioVXSjEwbQlTzY0StlPGd3RKmjWoM0yv8YTWpyATA6rGbwqVFlLHmBEt1f/vBnHF+UCoYP+X0tCmzlxu2gIrSrRdtDRekHnyQTwtjeJemUtB+6D0zpx5q6VlLrdyR0wuaOutZNpDC8kpUrCMWyztF1gupYW4kjK5UvW8l15kBEQXLTAQ/CwQ9gax0KE8EYSWyrkzIgSCgjXMN1m/TvmkTRWl6mrWH6CSThMSIlNgrm3cMg31g07wM2GOr6tn+9mnJmbK47wX3GMTNfdl26tp4086mLgd+JExSUPA3rGgAh1Ekctu6QL57fROpUrgzIamZSqIxKPKKMBJ70wBK5OVSp9o12jZEPeCexJSJ1XMCFFCQGEZPbxluCvLn2BrNpWfnM+QsIKAaJKIFFTjhgkODGonSMAmAknPCoFTiv8fopQVJa32hEJ/Ln0UuVSwarN77Ul3f+ux+42gC7kCLA/+H1bemL9wXqO5MHGAt8ZLyIvDZJ+TxKQNWPIoPXxoeRBmDLSQMvIFXFu0oM7/s1NEptVPYwWFPwMfCAC8CGVgsdCoqETAKu+99z5zn3z2hVUvAD8T8wRQT/g0gOIJ6eKL8iq4paz5usKSNCrQqsn4F2lFRYWpt8TNlhDleEyUitYyTL0LhC1IP+B0QqfIx/CozIM16vY3vxAvHAKP8jcQZjG0S34zGYUrSExfBIo8KrikhQqqicVHREsDOgoQWHA0p8vcslmQZtj1IYQpY68jPxumJXxxs+T75PoLqsQRUGpo49MFaD173mOG14iZFz9AA/nrsrOCthNn8A98U6K4LT4UMm5ClyAdCFDdve1zgAeqPm/nQ9BMFjxWRoTZ9hLVAcwsUElpHPb8ZSS0eBam6h6FVFSQTdRYfE5A2izckhHPvBBBbDeLlLdfSdNIk7WP344vtkix+uaTZR/XPFomafpaMKdPfPMMf+NTDIPSFs7t6/CtxpKiDfWO/qHqGGfZZkyZ4KkCt5eIwHfkfYLwwdWoUipqxnOK2VhpTWa6BjcWDTQZEYCWL+9p0bnj24E/W0bYsIpatV3x54ttj9aP9g/hn8NPlxVSNKRZozgG/FjKaO0JhWZu+riySAE3b2bPPenubz32/wEAAP//D/nVpwAAQABJREFU7Z0FuFXV08aX3d2BgmCAqAgiIA1KioR0d0p3N4h0d4sCIghKSooICCgqit1dfzvR872/gX3c93Juwb1e4VvzPHDO3Wftmh2zZuadd06ISNwxLLPmrnQDhs6Ncwa33ZLZLVs02J144olxlqfGH+9/8Ll7/Iktbs26ne6tdz6ObvLSS853VSoVdfXqlHaPLnraTZ/1lLv88gvd3UXvcMWL5nI5bsviXtz7llu5ervb8+Ibbv8bH7i//vrb5c51kxs+pIVbtWaHW7t+l5s1tZv77bc/XJ8BM92GzXui2+fLlVdc7MaPauty3X6jq9dkiGvVrKJ74slnXeWKhd2eF95wtWuWcLXqD3Qliud2r+5/z73y6rtuxZKhrsS9Hd1XX3/nZk/r7j777BvXrfdUt2B2b9eizUi37qlRrmPXCW7n7v1u++bJbuHiDe7PAwfcG29+6CaP6+iq1u7rXnzpLXfgwF9xjuXss89wvbvVc9UqF3MTpy5zu/a87q7LeIUrXDCHy3jtFTqurS5L5qvcPcXucG++/bF7+JG1bvnKbe7XX3+35a1b3O8yZbzSzZm/yj256jnp4i+XM8cNrvy9BVyF+wq6c84+M87+juQP9vXMtpfcK/vedd9//7PLfnMmly/PzW7Jsi2uUIFb3R05b7JrsH7jblfynjuPZBdHtM5e6bNCtZ627uWXXei2rp/gTjnl5AS3xT3Tqv1ot2HVaJf5uqsSHLdk6WbXqcckt3vbdHfxRefFHPfnnwei1zQ84IXtM92FF5wTXhTn+/+++9HdnreRLTvt1FPcGy8viPN7cv7o0Weae2TxehvKeX/+xbdu4pj2rmypfMlZPTqm5H2d7P5kwdKFg+y+if4Y7wtvt/zFWrpVTzzkzj/v7Hi/HvyzU/eJdk/w18A+jVydmiXjjGvZdpRbtXaHLStWJKebNaVbnN/Df7Ct7Nmuc/X1HkhIuvSY7BYv3WQ/z57a3RUtfHvMoX0GznLzFqyx37p2rOVaNCkfc1xCC5cuf8Z10LONlNL9PWV8p4SGJmv5pi0vugbNhtpYnqNH5/ZN1nr/hUEnHOuG7r7K3d3L+945TJd9e9R3DeqWOWx5ai748KMv3MbNL7itepnu2LXf/fzzr/aC6d65titw1616eDa7ZSuecW+/84k795wz3V15s7uC+W9zeXJnc1dcfpF7460P3XWZrnSt249xW5972Z2jMTxE2bNlcmeccZrb/MyLbvT4x9xLr7wdPWwMBzfsbXc2cONGtnUTpiy1h50BnfWSe0wvu55d6uh4XnMbNu1x7R6oopf6bW7/6x+4IoVud/dW6up4ac2d0cPVazzEFSuc0z04sLmM0FZXIN+trlaDga5Dm6pu7sNr3JOPP+iy56rnDsgIBXLiiSeYMerSoWb0HB4cvsBt27HP/fHHnzYs200Z3cC+jWWQb3A9+013CxY+7TCMGOAK5Qq472R0HpdufvzpVxmf69ydd9wkA5TdXXThucFujvpz9wuvu07dJzkmJmE5VS/p9tJJ00b3uZNOSv2JUHhfCX3/SeedK39j9/vvB/U1uF8TV6v6PQkNdxVlFH/+5Te37smRCY7hhznzV7t+g2e7xQ/3l06zJjj2k0+/cmUrdtV1+Ck65sUdM90F5yds6D76+EtX8O4HbPxJmkDu3Do1QWMa3Wi8L9zH5av0iC7lGdi6YYI7+aSTosuS8yV/sVaOc0CY0N5+2/UJrrZj56uuRr3+7q19j7qTT469n+atR7g1Tz9v22Dy2Ll9jTjbY8JY7v5/jFti+q3fdKj79tsfbIIZZyOhP4YOf9hNnbnCnX7aqW7vzlnu9NNPDf36z1eMFMYKqVe7lOvfq+E/Pybj27wFa12fgTNt5C3Zr3NPLnkwGWslPOTJVdtc6w5jbcB1mqSu18SL98GxIMe8oXtk0XrXo++0w3R91pmnu6dXjpYXdFH0t290A77/wWfuhx9+ltfyl4zPWfIqrnCXXXpBdMyRfsHj4UHevuNVt+P5V90HH37hypbOK08hj+Plukse0255Xa/Lk7vyyotdVXl/pUvmdXUaDnTP6WEsKiPUqH5ZM1wYgtWagf72+x/ujNNPc8/JiDz86Dq3ftNuV6Tg7a6XPKmmrR5y5WU08AQxSEhfzQDnagaIoXrp5XfMI2T2vWbFCDvPJi0fck/Le0GmTejsmj4w3L6/+sI8h762bnvZ1Wk0yA3p39Q9OOJh9/KuOTb7xwPNljWjK1wgh6tcqYjLeM3lZuCfeXavO++8c8xzvfTi893vMnQ//fSL/bZuwy7NQCu4Fk0ruBdefNPlvTOb6eHrb753kb8j7hJ5wInJ33//bQb5629+cJ/qpcZL8aYbr01slehvTHwqVesVx0BHfzz0pXH9e6XHuvEX/2t/T5IX/NDoR21/58nTGPVgK/P8wwfAPTVo2DwzYONGtHH3ydtNTEaPX+zGTlxi9xLee2KyTtGD4PozLilD9/Ir77j7qvyzzVgGIbH9Bb+VLNdRE7yP7E8mSy11f6RUst1ex/0ibx1JzNB9qujF/TV62QSUezkhIWrxvJ5PBGP/3KZJNtEMjw97dXjLSx4ZYJGL8Bi+V6nVV9GN/WaUME7x5SdNhstV6ube03soqcl4AxnNTZrsImeddbqOa7I779yz4m8ywb/HTHjM8S+QeTN62qQ3+Duln2HDybpMtO8rmz+lm0mX8ce8oUNr4Rd4oEVm68MGNbebEa8Kz+uzz78Jfo5+nnDCCa6bwgLNGt8XXcYXwofxZ1p//HHAvfX2R+5avejxUBITQkS8cJ+Xp8fLnfAEXh7CC4z9jhi7UJ7NFtevVwP3zrufuAmTl7o/tN7ksR0cRrlX/xluxNCW7v4KhW297777yWb2X371Pzd1xgp32mmnuE8/+9otnNfXbdn6kvs78rdr3OIh10Bhky++/F803ILhqlntbveAPMenVj9n2xqpF2vHbhPd2Wed4fbtmWvnS0ituma//Xo2cAOGzHHv7l9ky0899eRoGHiZZph/Kx5U8u473TyFI0eMWegwSoEwa2bGj9HDWxzxYEvzMt/Uy+1HGcHffv3DoRu8RIz49Emd3TvvfeqmzXxSx/yt+0a64tz/p3MNtptJoVBCsHi8SQnbLlOxi67TP2HlWOswE2VmTvgyPYR7AO95pzxvhHlxIYV9b5GHy8SLKAATJoxCvVqazfdOeDbPtvDkx0xYbNedbfESKqowG9c3IQkmRvyemKF7SUZuuIzys4o6BMILd65enBxvSjzjKTOWaxK1wLwZQuUXJBIuDfYVfPL8Tp6+PBrOY3nPrnVdZkVFAvlL9+KXuvdf2/++pRiYLBLuJewbX7gfiVww6QgMJ2OYoDVpWC5OKJfQd5mKneVJfm2bufqqSyx1QOohS+aro5vGY2XCyzWor4gSERg8zl9+/c1SF0xEXnv9fTvuhglEnH6R987EdrzeBxxjIIRDWzev5C5KICwdjOM9MVspATz87zWpD+TW7JndcL1Pbshytb1/guVJfZICIOQ8TV4o75VAMl57uZs4ur1NQFNyDwTr/5ufx4WhI1RA3J48FEKOrnXL+y1kRlw5IcmdK6vyTHXdrRoflm3b9+lGcBZqDC/ne38ZgDnzVsmLuchdrxs8S5arDn7qOzmqWDchs7h9yhPt2fum5dI+wTgpvp2vSAvdJNdYCIkQG15VXxkZcltVNTPEmJJbGDbyEbf35bfk5Q13Z2oMs09CGnyWkVdIiBBPbUDvRi5PoeZ6sLLIY7rAPaqbE2+SGSqz0CBmz02J8evaa4q96Jmdduk52Qxc/uKtZBTvcZOnLXPvvrbITdJnieJ3umsyXOpmzFlpObg2Hccq5/WT8oXtzINr03Gc+/W3380YZtX53JX3FlepfCGX9aZrLSf5wktvmvdMyHTRYxs09g9TKzPanMo31qjbz5bhtd14QwaX45Ys7mc9XDxY6ALvkxBvcoRc5f01eydnqKul8xzcv0myxqbFINLjhLdHjVsccxJ2vV5IeE4VyhVMcPdsgxxsOF8cDOY6c424R2IJodMKVXtYvnjvjlnu/PMPz2H1Vq54viY0CQn36O5npx82KUxoPF4WObOq9xe1iWhC4+IvJ+dLbouJYEqlkNIF82b2jLPaK5qE1m44KI4hCA9gItqnO+mP0tHFRDYaKyryv//9GF12bYbL3MY1Y6PGfqHub6JM5LiZ7CEYvYj+Mekgj9+wXhmX4epL+ekwYYJWrU4/9+3/fjjsNxawrU7tqrtWMnixZPMze12rdqNsQhzrd5ZdoOu8S9csoVBueD2Mcu0GgxI8HsaeqTQLuX6M/39VjgtDh3K3bN3riI/jOQF0aNpquIXbmBkH8fzgIlx95SWuR5farky8JDgzqUVLNrrVApow248lAEgatxxm3gi5Nrb90stvu32vvWc3Fzdz9SrFLSw2fdaTbqG2d7o8L4zwL7/8bl4K4bybbrhGieKJdrNhMDnualWKydid4UqV72Shz1lTuppxWiEQR8e21VzlCkW0n3fNoyxdobMBKThODAIh2PJ6IRKSWrRkgztXM24emhpV73ZDBzS1YztF3tZdRVvKOP3qrr76EvMaeiif11SzV/ZZu3oJ7fdzeRn7BRT4xj2/dZpr22mc6ZakPw8wcfpWzSpZOHXz1hfdjEldzViTnzv1lFPcdz/8ZDNqvE5m1h9rBvyx8jvkM9+V54Y3iLHupZk4Xib6wyM5cOBvgVY+cniV65VbxMMlb0V4Ec8vuTJbs9j+ylMlR1Ijb5Gc/SRnDLNwwlnMmM+R8QCoEw67J7YN7i2iD0xqTjn5ZIfxwxvGu2VZYi80rhEv4YTC91999Z3lYU7VPcz1BTTD9vGc/tazwLVLKroR/9hZH0OSEiHd8JsM8xk6z1MUYeBYkpMfIhwP2Ci+R0zEhokX9yIRi2B7PN/ojvM6Wed6ajyQEMf+uozY559/6264PoO7SmmIWMI2Pv7kK/fe+5850gfXKAoEACepY+Y5IgJ08LjQ+cFoCtvj2ABtcT25rrEED/DHH3+R8Tn9kJ5OlhE+yc4p2AbRlOSCvdATx0PolGM5hfuJ7Sl69PdfB+8zJh9sL4WXNNbhp9my48bQoSHQkNfr5qtVb4Br2Uz5IYUgMHR3l21vCuSGay7kEsuDsCQJeVB5PAx4PNwogEGeWjosQaUzE27RdqTDW8Rg5c93i+WgLr74PDNQbwuNiVdEaLFa7X6G9rs+SwZ7mVx4wbkHHywdCw8NDxQ3NzdnLoXRnnn2JaEip7guHWrYsXNMDeuVVaijjusscAXfCeXdemd9V7pEHte9cx1XSCABjCezSAxXec3SeTGAMtu4eowZYf7OIK8M5CeABQQdbFk7zh5oJgYYoqeU76vbeLCO9UI3Z3p3M/zM6gE3EFKtWX+AhdMIW/ByPkEhQEAShFJnzHkqps54OV6jGSwvhgL5b7UQ7nblHUGMfiHkHeHXYPbLBphA4MkAokmpcBxDlV9Mjtyo41mbBMAjOdvxY/67GuAl/KPu/ViRlv/uUfsjS20NHFeGjpd5OaEw8UrKlMrr+ir0sHLNdis/uFEGqWObapZj+0gzLWYqwP/xwMi5ETZ8W14EwIkXFGIkSZ4YRJgLgfexdMVWt0n5v48++dJyUzfLSIIivEOxe8oAgGyD6FqmcS8rdv8lM2RNfchNEP5k1p7hqkuVS7zcVVIurolybNuVmyEpTigJhCAghHff/9R16zXVjHRBQeM7d5+sUGVDC1lVqt7LACjkIXPcer15sqAdp0/sbLNIcn1ApvH8Hn90kCEvOVeMyX335nfrN+w2Lw4oPsaMkNleeamXKle0bPlWu+fIcwKQueLyi13rjkKJaqYcyN0qnyDnt+P512y2eeaZp+nYdfwytOiX0C2oPcKK2wW84fzwNgJBH3hXQLfJ/SUXdBKsH/4EuIMxTo5UrljEcqDJGevHeA14DRy7GjiuDF0Yjhu+JFep/qyFPLyxE5a4UvKCgLiTIE6szm7t+ufN2CQG0w7vgxzbtu2vWEhv+859imkfjOMTt85xaxYZn0yO/NUVOpYs110pg3Cwboowwt6X3naXCLV47TWXGQCFMAB5tyKFcgh1tddyf4QNr1LIdcKUxxVfnyZvUOFaoR6zXHe1K1yitZUREHIl5EdeD+AMOUOQcnhUTRqUs5oajD21blNnrXCDVAIA4iyvPCjCXxjk+TN7WW6S/E6Q0ysoL4zQbCN5k1UqFTEDxvlSX4fhxpgDmCF0sVFe7uLHN9r5UM5wq/JtL2risGkLYKBvNaE4aAQ5XzzMzJmucjdny5jsUEpY57G+E34uWqptnKR5rHEsYyJwj0oevHgNeA0c3xo4bgwdieLKNftYODD+JaOWjLo0vK2TFGr7/fcD8uh+t5f0N99+b+HMWHkgShDIa6VUCEm+prq1nfJciOcT6qTYG3AGKC1QhbtVYA0oA48nb55s7g+NwevBywMdBUR54NC5dj7k4UqV72x1ZncLxfWAEtHkwIqUaONeUP1TrnyNLaQZFLGT76MQNajXIQdI6QKF4sT21x4qN2j2wAgVqT9vdXEYCAAtyx8b6kBIYtAQcnK9+s2wpD3gDfbfTGUJoBULyxDjzZEPZF/Ln3rWQpyAHwCRvPLqe6YD9IiXyOQClF6Gqy9LMldhOz/C/zCqDZo9mOja5crcZUCNRAf5H70GvAaOCw0cN4auVoMB8qj2peiigHzq3b2eFTKnaMVkDsbgkZCmWBvI8avyii5TQjqP8l14OxiXlWJcWK1/hPmoUcObmym2F3J1vIwp5iZZPuShh13xYrlU1H2L7X31uh1iNhllRaDUWlHnRuE6OckCd93iHp7V280SOpQyATy7uoKoB7m5gI0C1CeQ7XtL5zMPlNDj3p0zrZgYY0hCHMFro2YOz5C6md79Z7qHF66z3/iP7ZdQyPEaIdAAnWDwYL3AExw3oq2VD9RWvSAwZYRJRaaMl7ur5O1ecdlFFsbl/E9TAS374Lcjgf1TnsExU78ESg9Qyg/KfcaXKgpZgm5NKYgi/nb8314DXgPHhgaOC0MHiKJ4mfYxvbn4l+ESAUaKFMppRiR/vuyGSIo/JiV/AyJ5ShRNoKHIRQHQ+Fj5Oryzd9791JYF2wP8sUIeE6CMUeMWufGTHheI5WbzKGHyWLX2YOiRUGcHhRgBYwDU+EZF08CNAbkQdsSgQEnUrvN416F1VXemEFG7dr8uo/W1avfedXVqlBQzSSMLN8KEYvk/wf2BsYP6Ag5+oVhIeit3N1/1OqVU1P7Rx18Iu3yCGzu8jYF3li0cbFRlGCuAOjBzNGtcPlqwCowa4AdIwbAQksxhnlsmq/8iPEztE+eBF413B/oLJNjJCo8SwsWQgxZFf4SKp4h6jONLqeA9d1WZxJ9//uVgGyEHi8E7SAH2k7GwoD8Yarx4DXgN/P/RwHFh6Maq+n90iAEgfPkoXr49x/XGKEKoDUQlklJ4c3ib8b9TdIpXBcCCWjC8MgwKeS6gwLzM8VROOeUk5bPONQQldW0TpixzU6Y/YcWqwLvh/Csnj4kQH8bg9Tc+tKJiYNAUX0MtBrIUT4QQKPU2hEPnTOshiqKuFpbEg1w0v5/9TjlDldp93K/6hG8TT7Ha/cVct061bJ9QlhESBTZMYS0AnIsuPM8NfHCuW7N8uBuuYvDnlHfE6AInh8qLAnaOD+YXCnHxUgHKfPTRl+aZAfoB3IPHuUpAoL/FgkKhN3rAwwUijZ5+1/4ABHGMnB/sIJ1VHwSTDLm+IxGg3Ky7QaCc0TLqAG26in2DbXvxGvAa+P+rgePC0MEwARAkLHhN9WuXFoovt0GL8SjWb9yjPNQuC6sBoydUllrCS3bYyAWGKoQgGN5GDN5JesFj9E484cRo5WhElUsYlNIl81hNG3VtAFHwdtYKEAJBcnWRJYMeJIfXtVNN0Rj9ZryXsIc8MqePu1mhSkh2qUuDAmzStCcsBEq5w0zV31GYi07uyHmjqJ5GOApbCVMCVBknTxLDCowfj2fx45vMw3rm6fGuiajFYJWAaBgC6GZtRliBbFbRb1HnN2vuKoVTm4kl4xWBV3Yqv5ffVbyvkHmZAHBmqsSAWkRqbxITUK4YaVCi5BTxbJkYHI1Ur9vfADKQ3xJiJWwLiGZQv8bmtR7Ntv26XgNeA8euBo4LQ5cjT8M4BLWgAFcuAwp/kXkidRsNNs+EwthAAHTAMJDagqdDWO/53a/JwJ1oVEenn3GqGayzZLQwfoA3oFDC+wFdiZFkHVgy8PQeVmcBCIkJVVarXNxQjHhqSDOREbdsWlFeylmulNhgCNdhFJs0vM+VEI8gtW+UGRRRiA7PbPiQlhYihSB6pgijyRVipEB+UkLwyNw+YscQB57YI8gRwpSBF/yKaMHIIZJXa9ximNXO4WihQ/Jg5PBgU6FcAO8YDxPWB8o6MGIYbwAzUHnhveHNEbrlN/KUiREIc54pFajNoDgLhPAuIVB0CBUb/KBevAa8Bv5/auC4MHSZb65uIbHgEsY3YkGbk+B3Pgklrlw2TLxvGcKL/7XvFEjjvUHTBQiEFzNEwyXvyW3eEOFJeCX3CbkIOjNP7qzyfHIasGXg0DlWD0dtHhRdsKBD80V+Lrdq+PIUamb0SiPHLFI48WzVuD1gXiKthBo2f9CMGl4ldEHwgeL1USBerU5ftfd534rgIYKGrR5D3K5VFffGIdYS9FZI5M4ZxKyC10gukhwedXUB0wSoS1oH4TGmZog4/sUh9AkqFIos6MwohwiECcMGFcunhAQ3WNd/eg14DRxfGjjmDR3MIjfcUtNCeMGlmTC6nZCEdwV/2mf7LuOtaDu8EGTfYwv6R1/GeDDUh+GJXC40YGZ5PbzYU1PIuy1SndkTKsAmPwVcv6L6r+E50a8NKjNyWHg8dWuVdG1bVTbPkNArReCwsfASp28d4dB7lZtDQI9S57ZcbCNtO4+zNjmzFWYkf0Z5AhRhxUq1M+YXDAMsKvTECwiDw61IoDDD272zYFPLseGFwR3K9uWYmaeIgUb3lE0AWMGo4em9L+90245XzLASnqVmkbwjIdXUFnKMTVoOd199851ozprJM/7UDR4237z7Y4lZPbX14rfnNeA1EFcDx7yh43TwPPAsAgGAACVWWEBHwucYsI8Hvw0RD2RpASDo5YZXEqaiooauml76PQQCCaD2wXop+cTTeVJGjIafGBQajJJDAllISBHPDsRhIBA9VxVohJAk4b75j6wz9niIkyFLpgh7tdrzEKaELR2DFRg6mpi27jDGtRca8yl9h+x37vQeyodlNMPFPmBNxxvkuACagEQtVya/FZeDYB39UGsrcgfpOVGAGerSCFlCrNxfnRby5skug7rVwCnwfJInDOQKhSVvU97thuuvNm5CEKjrnt5lyE/Y9OHVBJmZWkIbn01b9hgjPuUYUKSBSG0uhKgXrwGvAa8BNHBcGLpmapyIsQgESq01T46wfFCwjE9ChDXr9zcvJVhOaIsGgj37Tnf0UIslNBmkTcyR1F3B8k+zQui1EPJ2hCGpdwu6LbAcjytoTIpRQgCF0GuPkCSGEQaRxwQcoWM3ReUL5vSWAX3OxuC13aayBOjPYLOHMBleS4wgvwHbx0OjJo4CepCqmCfImvEy8Sh//uVXY4/Z/dx00wdF+AB6oOcCsIIBwYsjNIlhJQf69dffO8idMeCQSLN/JhWAZyACRr+ERXMqBEreEHh/agmIzorVehjalA7MsOzT82+wwCfUKXrxGvAa8BpAA8eFoQN8Qe4pLLTqgR0kfj3WEDF4wPkYFowI0P17ynawJo0YI+D0YcFDxFM8UqG3GB4jiErAEXg1sITcLu8OjsdwTy2MxKjxi9z8BWutOSt97DBwz4stBUoxvDDCneS/YF2pXref+rp1Vf7uPetgXvie1sZMQgNXgC7Pqxs08P62ncaqmHubGToaMkIOvUhGkGawGPppEzupeas6VCucSwugMWrkSVNYyLABmWCk6I9GDz3q6jqpowKF6EeLljxSndKzCx5PhFo8QDrZs11nXZWHDmxqjWKPdNt+Pa8Br4HjRwPHhaED0Uc9GHmnsGDkQBOSP6JYGcg7Oa8g3BceS3iP1iiXXnq+eV10VO4uyqygzxfMI6uE5Exrga8SWDzgFPJnKwS2WKtl1KY1FeISZGT81iHA+jeotQ2Cl0WuaoqKudFLWbGe9FRHA3QD9RglC3iPGMCx6lqN8YUerLT0R7dmKNHuLnpH9DTxCKkTXCG2E5pTwoJSqXxht+SJzZbPxFjTzDEtcnDRg4jxhQatxUq3i9NPjPo+SKuDViZpCYSJcUh+kdeA18B/VAPHhaFDt8Dsq4mgONxRN5bOgdvfqlDcfepyEM7H0UaG5oHkxAIJAzTw8l7fO9/CZMHvqf0ZbnJJzye6ABQvksv6zBVSxwKOISFhXXJtlAwM7NPI1Ws8xEAZG9eMMWYQEJxtFbKkbIGu1tStkW9jgrBJY4qUbGu5SIxpLKFcgL54jy3dZPvAiAZCETyNLYNi/GB5Wn7SHZ3i+UDwWKknpN7Pi9eA14DXQFgDx42h46Ro3NlatVSE1xISmh9uWDXGYP2wmYSFQmNyPYEA1qAoO5C39z1qIcDg77T4JFeG50mROYjG5HolwOsZSyNNgDP04yN/BlqTSQBd2AGzDBN3Jh3CRw9vbVyZUI89tmCAq1KrjwFdRg17IMnTovAcWi2aMeJB4n1iaP4tIazKpOYfU3uwvpDwsxevAa8Br4H4GjiuDB0nh6cBMAXwB+E5uCcxbteIeaSoAArwHMLgzzgYVehfFggvaxquBmE48mkYAIS+cc9tmhwM/c99dukx2X0qrktCnFB1kZ+E3PmWO+pb+JIDxgOibq6a0JwUqNPNAFk0v7/V0FVWq50R6iv3XxYDw1TsYh0WguMEfLTuqZHWoSJY5j+9BrwGvAYCDRx3hi44seR8UvBMyQENWwMB+r/kkYHmUfUZOMvNW7DGfoKHEtb//5oQUsSgw3gyY/ZTKkso6h4a/airq0arAxTCxCPNKa5PGqbScYDefNtUXI4xpC4PIVfXttM417rF/a5i+YLuF4Fhsiv39l+UqQIS0RIoLHOmdfcoy7BC/HevAa+BOBr4f23o0AQtZXjJhwWvB88PFCZkx8hk0UmVVtPW9BbYQGiBQ+kBDV45fqjEHhrcwt1zbwfrak4OLiiYvr9GLyungKJr2qwnrcyAcgOoymjYioA6Jf/2hMAojy7e4BYrD3ebavVy57pRzVEvc5ddcoERM0NfpuiolSJcoLwcCNBwTjOtdcPE5O6y7Y2aLNgXLYYmjP7vTUCC4/OfXgNeA+mvgf/3ho5LQM6KFz1CnovaMkiSnz5UVwcTCRRbhDzTSvAqOQZq1957X7VoP/3i/hRNGAAUjK39k5HD0MUXQq6b144zrse9L79lhNGb1o618N4e1ZUtWPS0dQAfrXKBjioJwHNje63ajY6iNTHstOih+D4w7vH3E/9v2TwjzMbYtGlZ+bBSjvjjj/bv5m1GOprLBnKuuiJQA3mpDPHxIExgYOUBiHSFQuWpzQea2jqiBId7IDGQVLDPA2pjBYdqUjlntsm4Y1nIjX+i3DjE7uSw06v8hjrTSORgS6yk9Em3FCSpa3msXh9v6HRxQWpCkAzIAnaN+9WYs36TIXbh+a9P9/pi3CgT/Tu1vzy2dLPrO2hWHE8lpfuAagsC6Br1+lsrnco6h+YqpO8gw1a5Rh+16cmpTgXPuo3if3z9zQ8EVPnB5VNn8zIVu1qYltzkuIlLogY/pfvH2xs/qm2ahRBhkKnfdGicwxrUt7GrXaNEnGXH2h9Qzs2cs1ITjt3KsX4TPXwMCIX6taqXsG7vCb2AoGKD9ozJDi9Uxp2I250MocPH/Fm9Eh05XeFw7otg+wz+QxR1f2gSFtGLdKFaQlHWgVC2Q39CDFXwcmcc41kGqvmqKy+2sXcWbGbboLsHR8s4UNAV7i3ohg1ubmP47513P3HlhJC2/R/aLq2e0M28GT2j4xL7Qm4aVDJMR+iHY4tvcKH6O/OM08wwoRdqRqlfBRSWHHnjrQ/d5GnL1R1FvRtDLEds95oMl7qCd93m+gnlnJgAsmqge5xzPVHHiM6YIBQpeLsbI/BYLIHHFyDayWoBdtKJ0qUOFwpBdM4ndIj0m0R4H4BJoBdkcH1s7B8HFPX529p70UsSAZVOE+VAV8E1zy3axKTuGdvAf+w/b+gOXRBa2vAiXf3EcLW1Ge6gwkIAsmxZN14tfdLGm+PGq6XatjCC8NAhJfrB4xdehwcXeD3bq139HkOeDlL3Arg0P1SvOF6IJdUFnDrC8ZMfN0RnrttvFCXaVxZ+vPbayx1dHgJhe+ESgmB5Yp+UGax7cqS7WGUOqSl0P4Dt5QM9eIGEc6nBsmPpkxc7ucZ5IgW4RGTbee/MJoNxgwGK9rzwplht3oySFnCu0yd1MQ8h1jm+LWOw4FEBkOaviv4MP2m4YwM6BIFLxGDPi2/aOEoxVqvvYGLCPUC3i+HK+0J0EAj9DQf0bhQ1XCwHKMT2aQjMpDEQ8sbdhGYOkzcwlvA51Hsv6FzPkJEZPqSF9WSMb4TQ1fti3OnQZYK1XWK7GKDtm6dYu6lgP4l9kse2ZsEhsgjI0MeObGMGG5aij/UsrFbzY17wCITvtLzKoNKjxGSE+jZOnLrMZVAoH5o7DBPn8Nrr77sZalsF4hl5b/+iwwxs/O0SseF6QuPHMSPoZs+26QnSEHI9idY8+9zL0c3xbD84qJm7PvPV0WV4eK+8+o6B0Pa//kF0Oe+I/r0axrmWTCa4hkzAqdHlfChbggcXQ3ysiTd0oSv2/K79epDedQOGzo0u5eLWEbAjraSkWuskVg7BfgGQEAoJBNYXXhR0GoAK7NX971n3hnq1S9kNi4dAV3FeTl8oFLb00cGudsMBqnXr5foys9Us8ya95FaqMSqGCSNeUh7tmyrLyJL5KnUz/9H9IFaVcmXvsofnK4ViEB4aODnDL7HgmILPHipOh88yNYXO6OMmLYlukgctjI6N/nCMfCFMXbvhIDMc0L4x644fFofc+wG97KBTQ9D9E48NOYzWLjhlXpD5i7U0UoBg/NMrRwU/x/mkHRT1lBT7MzlKjsCeU6ZClyivKXypfXrUj7kqrZuILATCOMbHkjnzV7t+g2e74N6NNSZYRkSinQjLAwn4XYO/k/rEKylYvJX7QiU4CAjlLev+2R7LIBuYPH25w3gh5KEhIaB/YyzBkA16cJ47X819SW/E58TlWaqq5sdQ/qWkPIm+jwOGzonuEsBY+XsLRP+O/+UrUfsVUs6d8iSklHpiThnfKf4w+xsDSq4bY4bQNaVXt7r2Pf5/0CI2bTXcJswzNNk6VsUbutCVY+ZIjip4EPDmaEYa/yUUWuWovjKLzF2gaXQbzJpOl9GhLQ+C19ZM5MS8mIJGpszu8+fLLq9sqTGkjB3ZVvVwIw+O1/pPLB5sXgIv0GGjHjHPtHP7GvYiYWZO+IKQzM1ZMzoQjNy8nF/dxge9OajJyONRekD/vHlijOE3KL8QZvFTZiw374C/od7igQkeGkoaHp7Vm59SRXgoCSuHi/vj1zumyo7+pY1wj1HWQulKYbU7wmNIaIbMy7Fi9Z5RY8dsmqa3Ccno8Y+5sRMfs5/hNgV0lJBwz+BpQAGXXAnnsmmaS/QjlqxReQ/3WSAl1Px42oTOwZ9xPvEYoLrbpBwzzYcTk4rVepq3BcMPAjKYBsopkcnKvfNcIDnEDfvE4iExV6cH4/pDbEMJpS7+PHDA3Za7gTEGQT/XpUONmNsiysIzhKFLjhBGhPWHSU5wrkUK5XBzpvVIdPUHRyywZ5NB5Hf3PDcjZuiVGthylbtFtwXRAxPHWAJdIrSJC+f1NZKJWGOOhWXe0IWuUri2jMW9utZVP7dzrBN2tpsyhkamzlceACi5EHIHndpVE7/kYxZfZxkoz/N1wxJ2DIQX3UN6UJkpgqSEdLlV+9E2Y541b5Uehu4qI3jaZnTkVj5UVwfyWOSzZuv3/kPmWFsdZrNwRdJJnGOgTOHuYrnEfLLZvaAHJFf+Jha67Napls1GMbYIDwWdDoaOOAjxJx/URB4cRhOhk/kWTQ5SS+o0GmQ0ZcH2YLBZS83c6acFi46pT0JceNoIhfpcw8Qk8HgYQ75k05qxVqAfax26xRM2RAgtzpzcNdYwWwZTzmp1iE/IAMVakU4V5dWYF2FSBodqrE4UGAnCXUFo/RyBhvbumBXNC4W3XVSMPBlFKzdbbacSEyYGVUUSgPGu3XCgcbwynvrJlPSUhGIvmBgWKnBbgnk+CMLJ6yHQ6E2MgeyFQLxyzYOTuvatqygtUMXGx/+PSSAI52c3TIz/U8y/mSgwqXhkTh+r4yV8zLXfoVAtYe6E5Isvv3X5irSIktaveGyoOp1kPmx4H50X5xdcH57h3XrmaVgdX3g3QLe3VpGfY1m8oQtdvUrVe1m+gEUg+jACJMLJPYHETG5iOrTJRL+GARbkMbIoPDXkofnRdSgRII8TDhUu1wyUl01JzZJPPfVUlQvcZA8k1GbkO6j1273nDXelkv6PCG2JR0TH8gL5brGmraUrdBaXZS7zwABCgM68OWdd68xQo+rdNiN8edccl69wc3sJ0w395qyZLFZ/tjw8cj2rl4+w0EdwoBjD3XoRMQMGlPLK7jnBT0f1GathLpykqdkB4agOMIUrMzkpoPAinKGUhNClPSmhR2JudZ2A6BtJ7IW6TD0O2yuPhZS/N7/qI9va91j/0adw3fpdKW5nFG6JNVLkAveLZCAsRCnyFW7haipPvGjJhqhBimXUX3zpLXWf6GmTs6S6TTRp+ZDds/RhpByIshqkmSjrUsKIs0rtrVq2OxjSpQvHpLEdwocf/c7ksnufafZ3TT0XtPOKLzT67dD1oL4BsPBskk+LJRiLi4TeTo7wHiJUDSgHQ8OEGIGzlkllYlKtTj+j+GNMR5G/00cyLERG8ggIhJHfqVQNxhGJFRrlvZO/WCvLzdXS9TymRbMFL9KAEtCRjDdWiVx76J+AHJE1T++M/j13wZpU15MMXXT7yslEGjYbGsmao07k3kpdbbkIl+1TsPpIiXId7bvKBSJZbq4eUUgh0nfgrIheFrZ8yvTl9imEWUTtdCLKG0RE1BzRDC+ifF5EpRIRQdcjKpDX+jVsrPIQdk633dkgolxhRC2BIsqt2DL+nj7ryUjLtqMi8x5Za+PlEdqn2vHYZ6fuEyOZs1WPKG8SUadzW5Y1R+1U0ZPKKyLqlG7bDK7JA+1Hp8q202sjjyxaHz0fdYtI9mHIQ4quJ68mwfUeX7Y5Oq5Lz8mHjVMn+Mhe3S9HIwqPRfchz+iwTcmzj1yXtVpEIKeIcjvRsawXX3r1mx4pULxVRB5P/J/i/P32Ox9HMt1UNaLcny0X6CK6XYX+7f6Os0Iif6hfY3RdGakER6pRc3ScCM1jjhNRenQM96g8zYgMfcyxyV24a8/+SEad61tvf2SrPLFia3QfJe7tkORmBG6Kji9fpfth459ctc1+lzca6T94dnSsPMjDxk6auiySLWfdiKI9h/12rC0gPOVFGlDYMnrRudHkCUW4+MFLNnuuehHVOaWqroRQi25ffJSRStV7RpSPMsPBfoMHmoeuQtUeNlaNTCPZbq8TEXIyImLjiGZoEc3QIuowYL9zAwvsYIZL/eciyklERIkWUV4t0q33lMjTG3fZOF5GnKOaq5pBVE4uIpiyDOebdo5FSrYxQ9e9z1T75HgU6rR1mRRk1TGMGrfIjJFo0iKr1my331ieGqJEvG0v0P8tueuboU6NbafXNtRKKnpOXL/kytiJS6Lr5S3cPMHVFj++MTqud/8Zh43jxS5wwWHLU7Jg36vvRvfBfaiayzirC+QQ4TyRFSufjY4tXqZdnHGKDESYYE2YsjTO8lh/dJXRvq9yt+hPymFFBLyJbnvj5j3R35L6oobB0fXUnSTmcCaYWbIfnAxyb7O/WIKBZmIY3KN83nJHvYjC0xH1oYy1SpLLmNQE+mOw+Gm1zfrRfYgBKdFtYGivy1bNxvMei//OUq7Q3jFsJPz+4flSqUGcbRcv3S7C8388iDd0h64iM+DghsWoIGo2Gl3Gb3g3qSlCOUa3L6aTSNmKXSIl7+toBoz9bd+xz35nv9Xr9LPvX8jY3nRbLTNcjQ69UDBYzC7zygMShDyibubysJ6I5MzXKMKLSbU5EeX1bKa977X3IsykMWx4GIxlZv6CjK4QZ9HTY92Zc56y9YKZn2jDDh7Dl9+asRVazjxEPFDlb+y3G26pGd3GkX4RLNs8xeB68Llg4boj3dx/Zj2MQHBO6gKR7ONSGC26XmIec3gcEwWuJ/9ETm7XOtddjSNEDo5WipRoEz0e5eKim1OZgC0PlqmeTPdq7ehY1cRFxwrxqxdy9cNexNEBh75wv1+ve+opeWJhERI3ul0BX8I/Jfp9qSIewTUgIhKWH3782Z4rhfJtjMptIgKEhIcc9v0rRUl4boNtBp/ZctaJDB42L6LQ4GHrJLSASAnGaefzr8UZQqQl2K76L8b5LdYfNUPGV7m46BDeDUxw8foQDPhdRVtEt71120vRsUGkKCnDGl3hP/7F5+gOBZ7DoIdw3D8+GwdJ86KFc6ZKuPrjT75yCt3YtpYImDBBQIV3VUNTQvVuwJaBnffuP9Ndl+lKl1HgkceXb1HnhdGOfAUAE5qoLhfkPBBq/8iRkYd7WsW5FNsCfgBWDZhm+uwnXZbrrnLLhMwk51Pu/m4W86eJaxhUoHvW5VWehfxLpoyXu/Ub97hNW15QV/H6rp9Qcq+/9LC78dZark6tkg6AAtsHnXmHEKTkMd99bVFwSCn+ZN9VavZxu1WPFQg1QUseGZBkDVIw/r/6KQ8m2kYqVn4roePWZMS1FjgBgWlj++bJMYeGG9HGHKCFC+f1s5q9hH5PzvLh1I1NWWpDjVtV9HNID+W0Nqss4tkNEwxcxTLyYeTFkC5qXNxSDYwRGiUDwEoKsg6SkM72gHCCImfW/0ggq0JqMMz9QrnMzmemWC6d3xITTV6dJrU2pHGDe13ndjUst832KK8BXYyOB/RuaJB6QDdJCejLqer/yPP1vcpywkLOjhrCunpWktpWZxGzK2R5GBIUtqMKVQ8Wx5+nnDkgoNNUA5iQaALrZBztZ3Lz5OgRec/2PmB93hPIYGEClKKw77VFTjCoX2P7roiAPYMJIWtt0DH0nzd0hy4WrA4QIyMPqpVN9SrF7Pv/BCCgxgxqJoS6GoxIQklnG5TM/4B357zr4I1FP7eVq7ZbQ1OSyBAzg/qk1g2OR45HISzV9Ay0h4pmshR+7905K87eqHeix9x8bS+/bvKbctRxd+S80ToygMpEdqv4dNOWF+0BD8ifwxv5XEnolqIHu0zlFY3VlBX0GXVaoECXPvGMo8edQpTW0Vt5H3vRrFw2zCnU4d6Rsd23Z64DuHIkEn4RsT5sFk+p4e2NSvYf6yKPKgoXTwiyHusc5zysWrNBs+2nxCDxAaqWgfCXwvJDvSW1VbuEEARgAZIPurejEQqhqalDgLHvenaasXAoVO4aqSarnfoeBhIGfwQwdmq+QAdOHtfB3aMymITkB8Hr8xdtYfysscaNmfCY8b6yfnJr6sJk5s1VutO1Y02j+4OFBDSzgpRWq/iMgGhQeKVEqDHFyHAdwgAyttGiSQXbV0LbYzyGG4BMvjw3HzaMWj22j8QCjoRX4L0CgAm0J3RyXJ/zzz/byRN3d+bOqsL8ltHhYSQt/Sx3PjPV/al7hmvZ/oGqrn6d0tGxx/IXb+gOXb2wRzekf1NXs9rd0etK8S6sKcwekbDHFx10BF8+kwHLpwcZwXhu3PyCwfapewOCTiGncmhOCWnNtJrYLI0Z8At73xLJ8hmOQmpmZ2FOxKDAc4pIqEvJMMEowk1OkTl0TtQqbVozzhCZCoPErCWCiohSC15oC+f2U1PWNkbzRKkDrBHTJnZ2vLQ5zkf1YF922QXW8YGZ9wMykKMeesBVvK9QijVC/z+MJejEQPAA8ASOB2HCRKd3pEbV4m7ogGbJOq1wfVRixb3UNzIWiY/OhJYK2i3IyUHcHa0ULdXWEL1sByouJoJ4SlvXT4zDsIGR5V4BaYpQlwpfKQTjO7aIuioRlg2iEeMnicXnEG2YbSD0HwjgTz792pYwEUoOBD48GWjVvJI8uurRLTZ7YIRbu/55+7tRPU3wuteL/paSL9BqUfA9ViQHoGYRvDmK8xNqTjxQJBU8c0wuYwnbgQsVoY52wew+sYZFl9VWreazYntCKEmiZyQITjqzMPENhFdawbtbOaJLCPVy1OyCJsXohd8twTrH4qc3dIeumvJQolBabX/FKsxVPN8JeWm/83CmRjdrHnhCo/k1w4Y/DoPaoNmDZkAwdPeWvksw9Axu5NhF1kcOTrtRgnQT8tn+/KuiiXrLbuKct98QvfcmqJB8xNiFbsKodsb8sGjJRqNlKiZqIl4cTRSuwRv8UXVzArmYN7Zv99w4FGfUzGGEH9WDR03cDdlruLpiXeElDYEyBg6YeX+Fd0bL2GbLmtHCYQcO/C1v4WabzR6JoRM4wPYZnAwPJ8wt/2aHhGDfafFJET4vM4QQMoTUyRHqvqj/QpaKpSN8vcPr4+HwDwnIu8O/c//cI7onKJ+OVrg/uZ8Q+hu+8+6nxhVJZCK+QB5OZAJh0kIZBDRZPbvWiT80+jdNggsI2g6svYMiHLEEDye36j0DggWKv/F4E5PJ01UwPvIRGwK5OXoKZK/C8MrP25+niUQBonTItRMSJn28C2iQHEuA79dToXhAkt67Wz15vGUPG8pklnOl6TMMMbHkINS/pdXIYTSZMCRGTUZpUY++B9twFRRBxIUXniPWp/ct9RF/+5Q0MfFASIkQxqWp8qQxsUsv4q9/TPwtL8WLNBBA+Un63iiwh1gp4uhFM9MIKKQgKQxgBdQV0H2SvIBB3hIMWh2+46yX2B8k2EEykvD++pvvIppV2fZFdxXJpKSxODAjARw4QIUC9RfnoBCavQy+vXT5lji7qN90iG1DNWhWLrBfwA5g+iPHLjQAiWZrEc32IitX/wOzFs9nnG0wVi+xiFr82LFxzsDGVdwbASauXKDt4/EnNhvCC7DLsJEHYefiCY0AQkipAIYBQh7ol8/UAE6k9DjScrzq1uKcH+CNpARU7A231rT1qtXpm+hwSkoC/cVCdXKfqp4r0W0k98cw+hKADPvlXo0lT4XutRx5GtpYUMaJCUAozjspuP4D7cdEzxnUcFIiAx0dP2rsosOGV697EPTF+SS1PdafMfvJw7YRXkAJTnBNEkKYAhTLkadBRF5beNXDvocRnpxHYvI16Eu9Q9g3oB8APSCvY0kAPGHsrUJf8u5JCZI11jb/a8s86jJ0RXixBzclDy83JkZAM5yIiqsjr8jABDVojAPRpLxXdJ1gXSDGCoWaEUuqBmX3C69HQE+yb1BQN+eqaw8Y9UV1Gg6KUFfDduWZ2Sf7xFiJsy+ixqmRmXNXRs8AyDaQb8aDauMc1GHdUJyZVXtHjR2IOPs99PJhO2ERqMDOvVW7UZFffv3NxsvbjciLM4PHy4dtiInDPkG9AU2m3ICH5B6hC0GQpUQ6qVQiU9Z/DF2sup6UbO+/OJaJkaidTGfoTxyICULXg+Pn5cRY0Kz73/ggWBzzE7g8Y/k3dsJjMcek5kLuh2B/lApw/8USXuBh9CUo3cRE+eAI9XEYsaQkuJ8DHSm/nOgqIC2DY2ZyFl+YXAW/UyPKpC4hAQ2pcGBCP9tyMdtEt/eKENDxBUQsKE+BvOL/dNjf4fIR9J0UIlTF49F9cy7U0caS+OjLO/I3SVFtYqxt/teWeUMXuiLUh8UvUg5uej4pxMb4BcswaAKKRAu8g+XhT2ZI02atiHnjsDyoeQlmw3iKTVo9FKF+R62C5FkeLM4Gjs52FVa0l2OOvA0N+k/heCDhh57iYMZTIAwEGo8QT4sicZazvcBo35G/cZzSAur28CoD+DU1hHiSGF+FROyFFmyDT4ySACvmBQqdaWUN1NNRYB4uWQiOM/zJRADYOdBusdlHgHSjMwEWwsOOm+/Kf0aveaC731QrFUueefalyE2arDAzV5g71pA4y1q0HRm9N7l30lqAz3MO/BOtVKK7U/4rOpb7IjHhd7Yp9pPEhtlvQvxaPV5wHH0HJn4ckBsEY6nFO3Agbu0YGxUaOTpGzC0JelpMBCkHgMQhIaHWlf1h3GPV4wXPIzWzSYnaickzO1jfxzaVv0x0lbCRDUqRElphwJA50XMmMnC8ic/RxQswE58GpEG+LL7Ae7lGRLawysO9hzQQKqmqchTrxE/3tzK7Cg85YP7kz/g7EDgNp07oZBBoQBdAscm7AF7uLmqfsqXyWnIf1BZNV4FMX3XlJUbRBCv96IdaW04Nrj8Ie0Gt3VP8DusoHrCaw3kJbRYChyHthpapazhEtm2FhFuk/NCpIo2eIVAKxMibn9nr5CXYeJjOYTxH+g+e46D++k7HSR4OoA7dDva+9LarXLGw5WRAcLVqXlHIzcmWSwQcQ3dyEt19ezRwvQbMsNID6MPo5Qf3Iv3L6MIgz9jBEwhtGK13II8m2Q4hNLRVb6q3V947D0ee2cEdB//BJ0o+kl5jCHmlls0qulwi7OYee/2ND90z214ysBHtdihFIMeamIDMravrRIsXBKLuyaK3Qu9pJWGuR8iVIVlOSJYJUGU54ZNVCrA14VIASIwh8VbUwPXr2SBZqL9wDpPc2pNLH4zJfwmYgz6TCptGDzMWglGTS6P+CzoBQDnHODoUhKWJWP1pzgxdIM8PaMmghAC0KwhPOjNkEwE24BFAYWEBAKK6WSv1Ga+cOijZpAS+T8BiCMezUojkoMdf/HV5F+Uv2tI4Lafq+Eoeer7jj+Nvtsm2kTWi+Lvpxmvs+/Hynzd0CVxJ5SCsiSJJ9m++/d7xAFFfU0m1ZXQ1qFlvgBs+tIW1ycHokSz+Qw0Mz1YS9za9uCg/WLJsi0oBlkeZ/zMLgEC9XJ+BM52oiAwAMqhvE1t3ipLkICvp+fWmHkTqZOAL5Cau13iIa6UXIag6iGGpW+PhPuP0U9Vzqrnd8DzEtCABGszxtWpWSWUBM6wmhwQ7NUhAzs8792wHXL2IHl7GLRRYBblDDRWpVUM2qmbuDb1seWnykgWcggHOJ9DMOWefYcZ3oHrdUdMzQy2BANMwjlY6/A1ghRrA2fNW6zy32TYT+g8iWeDOjUQEjKR294OE9pvey3c8/5rxhwYozOB4uG94wXK/UaP2gAATCbWIYR0QqiPGPOqWyHhyX4QFst7bZTxpx1NO1z5XCLQUHnek3+WhqPtGM13v85Psa0dzY9CXxVSDCmo3lsyau9KNFpgG1n6Ee7Z4kVwu83VXGlAj/jqAR+CC3bnrtTg/cd4gSzE+AJm++/4na7tD6QrdI8JCT7pcOW8Qyvoe64UX/Ba/zAUDdn2Wq605aYBEFPGCGbNgOsu9TM0n14EyH94HgDuo1+NZCQugIYjQA2PKxAQOWoBdDwgNGl+2bd8nEM2COD0BGUMTVXhvE+LslCdp7xcQrkyeE5KD17KpvRMwnsebeEN3hFf099//VLPDReoOvUrG5Z8XDA8EDxroKVp3/P7HH65br6lu66GmiHhjzA7FpmBoMh6oD9RUMpgRBr3wntfDS/dmZs3rBHlmhntb9ix68VUy4mkgzKIZsuJyToEmqxgZpGih21XofYWjbg6PDuJchC7kF114nlNezzzLHl1qW1+yfPKedmh/EO/ikSlV6NZteN79qQeVFyTnV6laLyur4HjolDZRgakAABCRSURBVAwh71wZTGqiDqheZ5GOFeEBb6YWLV9qOWUYYm2JEvDaAP3HsVE28Msvv5unQg+v1/a/50C2Am2GVPr/g/ByYZKkEKVFAvACLtEkIae6PBfIf+thHkQsnYg5RLWXW6z26xS1TDr1lFPUafoENW2NWNdorqXCc9axIuO1V8TaxFEtg3CY7gQY06REAAf1SbzCCBBijaX7Ap49L33qv/6SfqgFo19iELUIr0ffu1dfe88mhbSL4kWukJuto5C5SjjutuHcUzxneMfBOIwo2z6on79kYK6VZ319ePNGpsz5ga4EJZtbzy4NcgOvjcFEgMQ2ZFEcIjkQJlyb4XKXKdMVZtQTqrcFfcu+mdDYsdi5/mUT0VieF6VH74mImwkw53mq/hEx4hxAflYqH7ucR6kLvYMOCGmdNc65xfoDfXItEyqBiLXOsbLMG7ojvFIBqwke1z3FctvNDrPCwL6NjF2dzXJDUvdE+x0g1rTfQGBbZ5au+L27WuHJWVO726yV31hG52fqaQhlYKyu0Hda79CZgHAFD3P4YeNY7i7T3h5CDBEsDMx2eUjDho7t4ZUGUGLCoIQreIngkWI86dIQ3jbHhNDpAMNGe5+giJQGr8ReYVZgxhgIM2gBCeJ0PA5+4xPPFu+C2S/QdCDY78ogzpnWTcfwl4VJw+P9d68BrwGvgaPRgDd0R6g9jA0zOOrU6qknHLUysAxQ20LuSeAK61TM5gf3b+KqVCxqfbSIhZP/ogXQSFEpwSJxYYiBgVqr+vIGyYkh5F5eefUdRyPVWAaIMfWUdyCnOExhTGqliMd3VvEunayXPDrAVa5xsLiUGipCIzCsIMOHtDCjh1fQrVNtK0gfo1xgBVGCxZKAHYYwDDNLdEBzUOicoJYK5wqYaRI6JeQZXzCszEDxZCicFi+nu1+5vy3KGeLtBTPx+Ov5v70GvAa8Bo5EA97QHYnWDq1D+FLlAMY3SSPQazJc6uhRddaZZ7iPP/3K8gcMvbd0PuWs2ptRUJsco2WC/665ACFhITxJzD1WA8TwuPB3Gmi2F4sB4I2bs2W0vNji+f1d5Vq9LQwxdngbM0SsAyUYuTn47RBCmRS7Ymhg6SAHSBEufdIuTmbvLLZDweu+V987jHFDdlD99eYZIwvjEPKCHOuwQc3UdXmIQq8y4FpOUTw8gxzTGB2zF68BrwGvgdTSgDd0R6FJXuS0mgdAUVZJ39kKQaqmzMEOAfsCXh0MI6DryE2QxxIk27p4B7x/R7F796YIYO+v3tuM07wZPRQeHaOE+VWGgiQn+LHyB02VJ+vUfZLtBnRftcrFzXOrUqmIdYGePa2HUwsUodSuNp5CPEIAAzS4TC0Js2iQtyP0qTo7ofQyGeJMBerKU35h3jDcg6BNvXgNeA14DaSWBryhOwpNik3FvS8gCXB5kt0N6pQxKD3Ezyw/oHwTbP/bDnUI7t2trr3Mm4pTD4FcOSWeU/hQgWGDpiQZXqFcQZf1pmvNg+yhUgXV5FjeEMQjsPSA/zCTjC3dwAGLQCXWQflAcnJdVCIAwhKIs+p6DBzTU4TS0IWlhjAh6NB1vHF5FhQarn+vhq5qrT4GPJiikgu1DbGQ5d1F7zjuYM2poT+/Da8Br4Gj04A3dEehPzj2eqodBsjDsgpPQqIsCjD3hkApHbpMsNzcCrVYAUzymCD6DeuWEbdedadibwN+LFD7DMKJKRWMXIOmQwQ1ftdALTDSV6zey/0s/srVy4e7e+/vaqFI8nYYUowwNTyEBqervq6yjAzAFmq54PW8SGOAaV+f+WrLGVKPB58mdX/k9VJDgFqrQF51eEUMxQaPJW2EaC0T8Dg2kH769qifGrvz2/Aa8BrwGohqwBu6qCqO/AvwYlEumecGPHqSjAgIS4q8afPz/Q8/ueJCRQ7s09jVqVnCFRIh8ofyxB4a3Fy1UsVStGOgztTVvffBZ4KRn2hhUgyZWCSsDqeY6o6ALlNHBCCE0gWxj7gsCmnOnb/GrVs5yjoEEELkt5deeUe1doNdfpHKAm8nV7dC24I0+kzVdD0yt2+SRLlJnQAe293Fclk+EMb5AsXpblDQ6vq++vp7J85MKzXoqwJhuit48RrwGvAaSE0NeEOXCtoUJ2W0To7NtW9d1bVWvRuMJAuEOnx4di9XvU5/saGPddSMwfwAO8PAPo1k+Eom+whgPaE3HOAPhBAgLONBDu5RGSXClGXEskKzzlpqpCh+PPPmsme7zvrXPbd5krurSEuD9uNdde8z1RozLhZ6FO+TBqwzJndxoiCzglcaNM6e1j1Oa49kH/ChgaBTYVIHlAMb/RtvfmSFu6JjcrDErFw2XEbwopRu1o/3GvAa8BpIlga8oUuWmhIfJLJWK8qmABSQB604PvvsW7X9WeVOV7ErzShBGwZtNfIWau4+//JbeXQtjP0i8a0788xath0V7ZXFeFqMAILByMLEkDtXVkcB+P0KYVL4TXgSw9em4xh36y1ZzLDBrEDbm6p1+poHRQ+8IiVau/JCOjaoW9aVr9LdDqVJg3LG5EC7H4RC2yfUyZzQ5pHKe+9/rhDlDmOxwMCv37RHRe7zrESBru1FVOTuxWvAa8BrIC004A1dKmmVGjpYBeAoHDJsvvE3jh3R2t2SPXOc5oXkyURabMZr/sxexliRnEMQobI1RwSKT80bHIZVVELwv+9+svo6wo/0B6MTOGFLjMi2jRMtTEgNXj71iaNL9cOzeisfN9+9uv99M4SMe+udj9z2TZNd645jrcg86LfXq98M62WHF7rzmSmi/zozOYd62Bj6j3XpOcWAOveVLWD1gxi2MiXzuFPEDBGfHumwDfgFXgNeA14DR6EBb+iOQnnxV4UXEyAIHtBd4n9s26qyhQP5BNyBUCRdV0wgFH/vVot7gCDJEWD/S0X1NEB5Phpvqled0WWxbr1apazgunyVHsZ5R8iUzssL5/d195TtYKHMwgVyWDE5nJTqbGAAEPgzYW+Bd6+TOi1DTxYQu/J9tDqFs00KvFPabRnvdofyfNTM0TWcnCJCDm6dPMkVT22zTskJNa20wf4/rwGvAa+BVNCAN3SpoMTwJiBphd8O1pAKVXsK7PF2HBZ2cmzqKWflAKvVCSG5svmZF41RBUYSwpVBnu7G6zMYzRfsKNTNQSdWukJn8+rqKv/XuOVDBvqgzKBd5/Fm0H5Sd4QpM1YYPyFsKmXEu0lu7ll5gA8Icfn0ht12WPx2g7Z/XaYrj8jrghVF/fZcAzHHTFYxutocWXdyDKwXrwGvAa+Bf0sD3tCloaYhYoUe62y1oVm/arS181C/O7Xh+dX17lbPcnkp2T0M8G06jHWff/GNO1meGJRbPa1u7hWn5qmuS4ea1loHLkvAMOeec5axoEC3RZlAC+X5oNyCvBYPEa+SkGSVmn2sXc6Q/k2tREJdyY2hBe8LbsyjEXg4Bw6day1M4LiklQmhUS9eA14DXgP/lga8oUtjTYNqpE8bjOTUiBUr1c7Y2Gm3Q07vaAUy5hLlOhoT+qY1YwzRSeuWOUJKUuJAqUE1lTDQuw7vjrq9Dm2qOXU0t13jtdFhAPqva8TTuXHN2KMyRBBDqzmtg4le3c2t/U/PrnWMpX+tjqePdJDx2suP9rT9+l4DXgNeA8nWgDd0yVbVkQ0EfFK6fGcrkp4+qYug9R9aETeF2kcr9NYip0anguaN71OY8RoxkEywFicv7pypovIHLXRYW2UG1LHVbzrUjNlTS4e5W+9sYLsnpEl+rkyFLvY3Obz71XPvSIX9w/cZFjourBXa8xR5cr8otAtzjBevAa8Br4F/SwPe0P0LmiZPVa12P2u9s0bMJXhyCXUiSMnhUJv2yKKnLTS6Zd04dQIf7F5T2JH2N48/OtDlyNPQmk7CyALKERAMva/2vzjfFRNAhLAi/bD2bJ/hKqksgTZD5PwwSkcieIZFS7WNuSp0YtCKefEa8BrwGvi3NeAN3b+gcdrlEBqkS0CjemVTjGBM6BDp6D1q3GLzyGh8CSAF6dy+hnlleQs3t79bqEtC/ny3WpsgFqxRd4Ix4xdH++PRmucbFaGTS2vRpIK6Ode09VL6H6FSSK1jCSUP82YcbAAb63e/zGvAa8BrIK004A1dWmn20HbpIN2N0gB1+q5Rr7+FLpcvHiLm/uuOes90Ue7Vf4YxpABGyXD1ZVbWcNstmS1USjNW8SmLqaWKFZTXVEkCMlcGJ5PyZHBhbtv+ii2jeL1Tj0lu8riORi1mC1P43351FydMG0tggKFQ3IvXgNeA18C/rQFv6NJQ45A9U1dXpODtrn/vhmZ8ytESR+HBJxYNsTBiGu7ete4wxj256jnXQx3NMawYOjoYPC2+yzDy8fvvf3bnnXeWAVpOPJGS9CMTuhTUazLYagXDW6AkYuWyYS6LUJdevAa8BrwG/m0NeEOXhhon5wWJMewogcyau8oNGDrH9ele35hCguVp8UkOrsS9HVwP5cbw4Bo0e1BsKH0sh5cW+2Ob33//k+s3eLZbuWa7cWVCGzaoX2OXJ3e2tNql367XgNeA10CiGvCGLlH1pP6PFJKDfty1e7/b/dwM6xCQ+nv5Z4sYnL/VxeDCC89V/d23R4Wo/Gersb9R6kDrnxFDW5mHCOIUxKUXrwGvAa+B9NSAN3TpqX2/b68BrwGvAa+BNNeAN3RprmK/A68BrwGvAa+B9NSAN3TpqX2/b68BrwGvAa+BNNeAN3RprmK/A68BrwGvAa+B9NSAN3TpqX2/b68BrwGvAa+BNNeAN3RprmK/A68BrwGvAa+B9NSAN3TpqX2/b68BrwGvAa+BNNeAN3RprmK/A68BrwGvAa+B9NSAN3TpqX2/b68BrwGvAa+BNNeAN3RprmK/A68BrwGvAa+B9NSAN3TpqX2/b68BrwGvAa+BNNeAN3RprmK/A68BrwGvAa+B9NSAN3TpqX2/b68BrwGvAa+BNNeAN3RprmK/A68BrwGvAa+B9NSAN3TpqX2/b68BrwGvAa+BNNeAN3RprmK/A68BrwGvAa+B9NSAN3TpqX2/b68BrwGvAa+BNNeAN3RprmK/A68BrwGvAa+B9NSAN3TpqX2/b68BrwGvAa+BNNeAN3RprmK/A68BrwGvAa+B9NSAN3TpqX2/b68BrwGvAa+BNNeAN3RprmK/A68BrwGvAa+B9NSAN3TpqX2/b68BrwGvAa+BNNeAN3RprmK/A68BrwGvAa+B9NSAN3TpqX2/b68BrwGvAa+BNNeAN3RprmK/A68BrwGvAa+B9NSAN3TpqX2/b68BrwGvAa+BNNeAN3RprmK/A68BrwGvAa+B9NSAN3TpqX2/b68BrwGvAa+BNNeAN3RprmK/A68BrwGvAa+B9NSAN3TpqX2/b68BrwGvAa+BNNeAN3RprmK/A68BrwGvAa+B9NSAN3TpqX2/b68BrwGvAa+BNNeAN3RprmK/A68BrwGvAa+B9NSAN3TpqX2/b68BrwGvAa+BNNeAN3RprmK/A68BrwGvAa+B9NSAN3TpqX2/b68BrwGvAa+BNNeAN3RprmK/A68BrwGvAa+B9NSAN3TpqX2/b68BrwGvAa+BNNeAN3RprmK/A68BrwGvAa+B9NSAN3TpqX2/b68BrwGvAa+BNNeAN3RprmK/A68BrwGvAa+B9NTA/wGMvXt2GNOz3gAAAABJRU5ErkJggg==;" vertex="1" parent="1">
          <mxGeometry y="442" width="320.35" height="158" as="geometry" />
        </mxCell>
        <mxCell id="zemKmCcNjwJqudbQ4LHM-3" value="" style="shape=image;verticalLabelPosition=bottom;labelBackgroundColor=default;verticalAlign=top;aspect=fixed;imageAspect=0;image=data:image/png,iVBORw0KGgoAAAANSUhEUgAAAaMAAAB4CAMAAABoxW2eAAAAwFBMVEX///8ATZQAS5MASZIAQo+Ke2sARpEARZAAPo0AO4z7+/oASJL5/P3E0+Pp8Pb39vUjXp2as9BMdanOyMKMfW4AQI7h6vK9y94SVJjo5eLFvre+t6/T4OykmY3v9Pjt6+majYBkjLjd2dWxqJ8TWpyThXaqoJRxlb20wNYAOIuFdWOfk4aquNCXinzf29d+lbs3bqeLpscvZqIAMYhdgrFDdqzN2OaTq8qBn8Oet9Jtjri3r6c6aKJ8k7ldhbNQfrDKMidWAAAX1UlEQVR4nO2ch3ajvBKATQeDO8UV9544tjeJW/74/d/qiqIGguC0zeYy5+yeGEtCmk9lZiS5UMgll1y+Rmxnvt0+zR37b1cklwTpPnKWIgi6InKPz59Wavk4D8T5tCL/spR2w+tw1/38go1dqKpFUoIjr3CCbCmcqCqKfrq1fCDML2pL2Rdxy/7+XxP3URRlQRbF2qcXXfoTqqpZTni1xXFi9bywy3ZpzunqMWPBru3shvX6C5D6dX5wbJtmURM5X4T672A0t3i/Pbxa+uyiS2qgKr7KZGRcLU7Qj274sVsVtKQBR0rZOb8IqiLrgsDzvKDLoio26/NnFyf5ZYzKkwARxynnzy77DUY7i9MnxCJk8wL3pk7th6Yqwyoj4QVF3e8QpV/G6FmEDdY/vUHpjGwwCKqUNXeyrDcmXHcuKzFAoQjiBK6pv42RhdpILLDG4b8HX3YfaWQ6o7nCcRFDRRNeUt+34MUEQMFM8Bqm+2WMugIaR6/4qS0ogfz5iNuSysioCuIu8uxJV914SpRjuEwaQ7CXhSl/GSPjRQ9bqBHOhN2ED7+MUZcXYubeXE4xXMpV1iAiqQlPYdJfxqhQ0hSe53h5SZoM38CoJMvD6LOdIib6SN2mTrFRLHWp8Zy41FRR5383o0L3uBe15pDqwN/A6FlWYu7Qq57opdkkIl5XuYdTaG3bpdMrpynCb2bEkm+Z65R59BnPWQnjCE/JQHTxNRrkeT5WVeG3rkds+QZGRlV5jadXEyJsZ2Itsq6suJVRevkDoeeMMku67T0U9xEjbi9wGjtqtMBeEZ8Y1jO6kEjOKLOkM3qWRXrQHEWObzKV6k4EhEjIEMvOGWWWREbl0l3tsHiRkcdq2OVyzfJW/bIbCpl+h2c6Jct2Qxojo2yXarvjcT4/Hhyb1XnoCoD0z44TSeeWbeew83ZAjrWSnezTlcsgb9e2y7F6GMFLgudu16nt5sfd3XM8IVkll3zwDBmppTKWaH5Q+1NQ092pyyidzcg9XTlVFEXLCwyEmR7BOFG8lM19NRRizXGxF6Rm2r9IYuTap//qTQu83XfQRVWdPC6i9X4NK+A52K5zrDdVICKO9rrPh/OeU62gDFCIvJ8zt77c0+NE8DKrcrP+34lSkPsYvOSlWzCez1XNL00UNf7lyFhsbaiVeVjG3PvAxYXXibCAUXaOjxNZQzXVuPou2imZjJ73KjbRxLrfNdwqnMt4IRQSxgkNIyXmUjGFyci9+2+viopAxSqAFV+NYBeDCsjbgn2cqGF65SH4snt4bGrQH4Nl8Ipaj1EyDpwF0/G8IFtW/YDVYHPBW8SjU6dixIJiPcYoOVqolUk4kqpe0J/BCAfGDee4FS1F56lkgqg/0KOexaik6yEKP3eAwq3yfOSVpDPbRKuRnBIqIoTFqCtYssAxhFcfqcxQY5Otii2VkNFpGeEDRV9GHDt7a0US8rrIo5XDbobfKpbORdOp88jYdkJFClXIiNkSrx6QUVVT2BTFJtUFGIxcX9+6uH28ThRR4JRgbL5YihzUQgzE+oMnFxz2zboPyWK0s6K1xdWusxhxpB4CRsY2qlAsywOFqCkz0mDvDzFiV4jeD3gHo5KWWLjAk5AYjHxNKcNghnP2mhXEGoxy2fY2soTtHRRczE4JS+e1jGYai9FRIStKa0gl9RvfneIwoyTdAFkSkRrK5cYiJjHivYmF+KwLVGd/ByOqR/JUe/UqoUYGI69w4QWlWEzQcDE8RjprvUHNgYvCm8IcRyEjHqzy2lLmtKWKujoFPwMjXgeFLJe8sNQspC1yX+WAd3wU1VKtsEw2I0HUrMn2qUpUiKPjzTFGoHNbIjakNCR/djQjXvZaa3HWUsV9lNylizPq0jUlxfUZRUMPnmKWsGwx625+IiNBWe6Pp5JfHbd0VmEzLWLYUox4PlgpSUa6qNYPd0G0sLzA646GqmcgAmL14JSc08Ne9QwIJiNlUgtmNsM5y4iSfCXaE2NkO6XSCRahlmwsYQ5f9byiNc81xz/sYXR3OhzbQhUXHWf07K24FvPUQiIjB/VJPatHmjDXARtuR030XdhMmQj6E4xkVanutxNNtZZ+/wSMeFm7nijLpQYz4GHuQENURCFJw3m0FI3ByBqStucraizZ2WOMgiJg32D4sGAcCSL3UKLs/adwzPM6nknjjEpee2TmwYlERsjyRiHTN4XF6LBU6zFfaAEnwD1+hhlZ55LrnQ8rlxYBFqOuieeYZTwM+yc+bADXPn5CprPn27hdFz2hgEwbYYJnu9sZdf9o1VrUCHbhkLdwIIAx1/mJeFasIJERWuzjexlJwmJUPjzHhyE8ccM38TPEiDEnPx8Y+oADXUDxx6eQmnClU+IKIEaxIPIcdkkLGzK3MyocHIabAgcSsQEeZ+QbBuywaCKjK1yVyUUjXTLH64x9WLiOn0FG5KydKl3YTLTOQ/OPHJ60IEbLWGeHB7V4HHJ+ByOmnMO+Q8xkDLtuGAwKhl+eyAjZu1bmk8GZGaF2yvgZWl4OyfkoQZMxYgT7K6clnf5FjLR45eFsJyIdfRajPVx+sfnMYNQN4wm6dY6UnMhoj+aez2bkLpBPyhhHYpYDmQXDPqDlHzEaYgsqQX94rovXCmbGc/unMAJ2LOxM6YwKd6FZzyvCjhrmbzNi24MsycDIsGuPTezcsBi93SUAoLqM/RTE6A4FGIVIK6GkMPIDzEHt4ZOPMzJKD1Xsfr3BqHCHzHSrSk54GcbRpzEySse9SkXeGHPdm4zs2lYTyaAYYtQlihYnLK8ujdFBjKrto4xKD01VIUITbzEq2FvoOgoiYQW8vR6JWReIdEbu6VVXo6ddbx5HASC6EBwbION6vDWMr0ppjCARfET0Q4xKD1y0uW8yAkOJg3OBSmzLJDFCC3D8rFeSpDBynpaxSPPNjIzaPgaIYlSigt7A7Y2aSGmMbBgPRUbD+xl150qsP2ZiBHyeZTA38vgQfiKjV6jSZEs2KkmMjJ2lkqrl37UePT9qItFsIb4eAVdUpRSja1takWmMUPAL+U7vZGScqksikoxbm4lRoTwMGoHXmERGOOz9oVgQkBN1XFxQtCbyvbKvR3ad2KP04qHbl5hdB+RIQ+IEegc5jVEBhQPgUvA+RosmMZp52VKGjBkp/Zyqv5OEPfG3Y0Efi6kW3DpRZQCoenwuPMOyM4+jg4gJCaJar9mFObSX6Fg1H9lBom7ApTKCb0DbZe9hVH4iZmNZ5c6OUYCTaFZGhZI/SQhIhUmMSmgJlWOHJhOEuQ9bxcNeV6tH/6DXrYyMM96XUQAgv11sRmDAafQeEblLlTrXiZ8wjroTvPNiAUB+xpsZFeqCNwThWzPsTfBitq1yFiN3j+qsi1cnfH4royFExCvcGR7ng4z4yB0D49SklmueCJSkjiPYKT+wHtnoXACv7lGc/nZGXtsijIRHRjp8uC52GSZBGIzmeMbc4ikTMcq2Hi2g9niFCJMkMQLzzVkkbUgeqzglFlRwYadU3m/X4QBK84TnktsZnb22oQ5s+Fu0rIvgyGgAA4l9jDUqcUY2UpRFHui4bRy5MALL86Q7nTDX+VKqkyYgDmWnjSMYo+WaUPk3M3IgDf2F/DITo9odVpB/YAvbDIbnB/Eiay8EW2MyYy5kSJwR9N0jt35vY4ScSzrikcaoYNw18TrIv0AdpzFawL0OtPl+MyNorwr0ce1MjCZaHS4F7qPXNCIG9+C1Rb8GhXbnRHuruCtmunnOYISCFTI1UG9jNAxhRFbNVEZgwnvFq5IFIwdpjOC8gV9zKyMjNPx5mW5DJkZVQQAm1aLUXTz43Usg3NLguJGyr5W6zlldEu4EDlGCgZbF/o4zQpvitGl4GyMIOrIv9wYj8ig0stTS1iP4Gtx/b2X0HMKIXi+GC90bjDzXRFRVy+9b9FGvq99/gNOhqTJHhvIMfAgSrNbvOZPvwuxksQU8rWRihJajyOWOR7g+JzHCoRJk9KSMo2e0ZYh0fysjtDNMHRwslDONoyeNCMUAr58KY7mEqcr/ITW0IE+LqUnGnYG2h2OMDMSIjsteofKy2HXoxDO9c4d/4SKRURcqB20J4XEUcyfgWkKcm05nFL9DvGAzuoNqTLfr7vaaqOiCoOuixh8jRpwx9M6Py97ZtSrd3+ukz27tWUfg3YP4BwKIz3XwECC6jukL3kPIwsiAQR/6oAMyR5IZueicEKwhYhQ7AHCCShNxT0hnFD+966ChSNVokjUWZN8dr9tt/fXAWlgM5/BwPtZi5yXK1LFOwXpyaLxGaS6IuJfGGaGDnRp5mnSPo4z4afJ6VIfWEqmqEh77UCPukD7dhSPZaCVDjPgJnbQGA1akAZrACPa7l0JE0LgVyfgTdhGz+0e3iEOfHtUV7rro2t6VHLtbqj1xireWpTAa4igDWom7VexgZmJ0hoXIW9THTziajMaRo4nNA9lk9HZ0KB+fr9NfiJmz+wrdKWoIMBnhyybYtXcXfqVRNIlX0FzlvhIuzJcwAnNpdFdOFJq+cCLcUU1htEAV5JU6oGt3nSt5wvo2/4jTubN39at72hPRHqRWRwQzVfMcHIctGDY6faYjb5A4p6rzryXvKKnbdeo4Dks5GUxGaFiDhte9o6rd0rCp7v0Wo3g+D+zkZ++rOXlJ4IsYFe742CUQdNIXVjWZEXFbk9MtQJenojQZ4wzEUXjZ4ppNndroIxl52lEmL/XX1/qeQ5srFppoqTP5stisvrxUOWLzUaMMIzYj4paBLvqdVeaFwEvGvQnYyQr4SqEih1/FqPC8FyNDKSopjPCJKL9C0YsTGeN1NZWjSokUQjHi/FtWuk6MVhEvMdF7EwJ154tX6dsHbEZdavMj9FrDSAZ9sSKqty9jVHDnrF1uQtC8zGBk1JV4Bh5Fh7MxMp5YhUAKfJRRRJQ61nDq/SM+GjtmMyoc41eqIKOSGvuKwzeqvo4RKHCbcI2O86/JoR/DY54lrsc0J07m8LBExr0Jex+DJCh1eOMFMYqunb5YTyyjLLB2qIaIk+ibExgZw9iLBBgRvItNOrzCvYYj6isZgdpem5YevZcJ1iWwMjwtiN8Y9Fcqnjrw7j5a1Hwi8vNyYRemVHA6JXjCM/dhy/QVSl4Q9w7sEoiR3VSiGuJFgfqZOXzX8nAUZKrA5jzm1jpqWKdq5KsTR7WJ01U0nS4i+8Cy/GrDkBjFKCx68mmMQOsWV7BWK7pvMXg3fxVL0ZvXA+n7L1SwEAAR6e2oRVUWhQAeWEj9ay6HIKVMXHCYyH5e3WJHBmve0hwIWI733lWMw9LyroeqHGym+7zbC4pXSS+V96O+zWPCmROtW+hedWCaCrz368zC/sT6baWwPUps66Z8qApeUMDLbCn8lfAb7Ucd2EVhZxV5/wBZcKFfXGJGXS0oWo7+oMkHxeg6u+tel2WFm2yv8zsndn6tG0r0vd3DUxPk2iMP2ognLMPMSW93zhP/Lr2+DX/MubwIhAp/2M7d/KkJZrLq0/yuFNUtycj7idjd63a/fd0tEo6PwCqx+jpQxvBp/3Q93pUizbVPT8HvEDYf74KcpbCmZEwhpeh/W7yfq/hIfprRF4oLKvq5I+T/Rr6NUS7vlpzRz5ec0c+XnNHPl5zRz5ec0c+XnNHPl5zRz5ec0c+XnNHPl5zRz5ec0c8Xm1OCHZA/OaMfK8fh2ZPh+Rf/AnkuueSSSy655JJLLrnkkksuueSSSy655JJLLrnkEpNWp13823X4bGnNLr+qTe2V2f/bdYgKoeBK8P9tKm9IUusz6/M10rp0KtlStqXpX2bUuDSoz5XZGj7o9+7bXorB+iadNyTzH2DUWGXtSR9j1Bh33p85lLW0poZJxZRgoUDZppcCP8lWq3+DUeZafozRWJp+eObvmb0IIxMSGa2ktf+WVSOeL1lyRqSMzfuvZFQYNbzKVRqjm96SMyLlqxm9T3JGpOSM3i83M6r0+0xDsJiOADBiZcr26lA+k1HQiljrf6S3hGo5moHVdtMe93qzNnO8eIw2M0mSTOm+HcE0Gk/B8/GGeNRvzNaDcbA8NGbjgTkdezJrJ+Zpz1qFyqgzXvfGDWY3SGNUAVVfD2adEcrZmfW94mbx4iqdgeS149KiGFUaPVOSph3U+hZUyXrW/pvDDdWyvbrvTFer6VRaAc0xKLXN6cD73vQoTUnzqbWWVtO11+4ZyteWVoM1eG6OwIfxamV6BXuyTsyzlnpjE7wB/JOmrJhGMqNRT5LW40unt8I1G0gzYOYximuAFkigciZ4bmJGDZDwfn0PWocMeqiSVYJKvkkwI9OUZqN+sVjZXACDeL8BCabtSrFY7DfWgNIFfbEBGTfgeaUxRfkaKzAoCsVKezAGnyqt1syUNi1Pgi49MqVxNE8P1OCyAW+ojMBw7cUhJTLqr8xwZPfXSOvgL7ODipuhnB0AqOG1o7LpmVPEqAPY9L3WXcC7kW4ClRRbHaZKvklIRmhsjEyzF0vZlkw0LzWAOmHqFv6zPwgtg8o9zF8Mp5mxKRETTgu/rH9vroNvgMbQC9osZzSRUYWYn0xzHPy1NrFWgd7h+0AzOrCU4gwRbUv3MHUDdkCgGzQzb6bmOlahbxLMSBpgBVzMuCXRJr18QNEMNFvsSaghhY0UfGjFXEmKUXFN5AFDKvjQg9r1ZG3ex9akXqTnsGyGYg/qck0M9crAHAR/gR5FvAW1vkU2+BI+bUhEHTpEF/1mIRgRCFq43yGhEhQ6ZtjHRiTbwswPyRQ2q1EkN8WoQRXVM4MSeoRSmdFOoP4RJVOGXTeDNNbkSOzAQTWj2KPWj8l396fmJfh2gNP2bwwzfaKwGVXuzUs0Jc2ob4bGNDmMkGpbq1kkN8VoEMkTVKFH9nDQ36OY/QVrRYiUndFIkvxR0KezwFf3p9S8MTOnwbcEo8rajLbpu4TNqMioEM0ItMNXen9K9XcwAEfB0zE9VZGMQJfsx/PQjEAJsZEMFqwZJQxGYN0YBH9RjOA7IsOzgWY1arEBk0SxEGFUjM603ycJjBgVijAClo7XMzfS9NLBcgkNCM94ouYqktEIuCaMPFFG5FjzJVqpYpRRcTSWTCajfjh5X+hlDrYeeNhEhTpgwPYLEUagU/4to+HdjBpBqz37lBQztBbAukvN3ySjhjRl5cnCKC3OAHyGFfB7UhkBRdONCKdZM9IKicVoEK3QN8m7GY2CVreB31ChBH4Pmn2PpzSSETB/+4w8H2JUbANP877dByN4EDxhMooUAVu/Bo/jNfoNjEZ+/qRIa/GyMldIz/Q4klixno8wakvAjfUrks4ocRyx1pp/nlEjsJRGKTHZ1hTPd1/KCPhoKHU6o7E5YK1Hs9/J6BIovRUatUwBfjw0o0hGG5O5P/9+RmMJRyjSGYHmksMetr5D0cDf/tuMgHXu+0eVQVyXhNxD35BkVDTjdnXhA4xaZHnpjCJuF2z9RmKdefrXGW1gJOIipbkNM+hnUT7sWGK5g+9mRA2OdEYF2vGDrWf3tH+cEUgQniHpm2YsIIBljRmtcHtbJmuC/AgjPHe+wQikJapLtD4eHvwnGVERRjRn0M2jdxSKUzjXdSgs9Pwf5nk3o41EpL2k+kdA1aRH0IatL1IvDw9UJjDadNiboF8mNzDClm7/QkTtC+MVPng4GgTHc8K2dZB14MUWiMJmZJ510OR3M6rc412NhFgQZtRfS/cwcX+Awt19sHJCIJVO0Hg2o5a3Q5jx3OjnyC3jyDTXjVZr0xhH9mHb5mo8aoFv2r3V1A/imfftTavl7a0hRQN1jDet0QWPK5Rn8G4fNsTgbWeNvaq1Z2/EgrxcY2k1a4B3jzomsQ9bAVk73jbkqHO/Goe6YTECHuE02d/4CkHnVNsrYo+huF7FGa0u3q6pt2+8jpxn6Ht73H4gOuyLo4EUfMZ6Bh3Vf3ZJylNYr0hGhP8LZRbZnK0gjqN7WFh7tBoEzwYrYuD2V8SO1mbmx8+l2aY/JayNUS+Iqkv3DagbchbvrYJAP7ABze89+V4ZbYJ2Vxrk0r9pxBb1ir/N3d9s+qzDM5tRA/RN/Lnf6Iw7tDExAk/aRLHFSJ5Wg8hfDA41MmpAPUBV2TQu445fwKYPnyQXV2ltWn4z+tRLKiOvRuhRVCXhp0avd9Nh2Fz+mvwPN6B578pfiyUAAAAASUVORK5CYII=;" vertex="1" parent="1">
          <mxGeometry x="320.35" y="442" width="551.68" height="158" as="geometry" />
        </mxCell>
        <mxCell id="zemKmCcNjwJqudbQ4LHM-4" value="" style="shape=image;verticalLabelPosition=bottom;labelBackgroundColor=default;verticalAlign=top;aspect=fixed;imageAspect=0;image=data:image/png,iVBORw0KGgoAAAANSUhEUgAAAKAAAABkCAYAAAABtjuPAAAWcklEQVR4nO1dC7hVVbUGFVRAHoKIj3goZnkxxEdgZpLiY4oopXl1m3YkKfMSSWLW1eT4xtwpkImGD5Iwwm6cG6L4wMgs0WtdNU3xHSo+8oFHQ8SQxs8c8+yx515rrznnWpt9zmGN7/s/OPMx5lxr/Xs+xxyzQ4dWIs2zO/QkjCCcSriC8FvCs4Qj6123XNqREKF2JBxMmEC4mnAvYSVhfQSuqXd9c2mDQsTZnDCYcDThe4TZhGWEVTFEi8LjhK3q/Sy5tGIBQQhDCScQGgnzCY8RPvQgWhTWED5T7+fLpZUIkaEX4XOEcTw+W0h4nrAuJdHi8J16P3MuG0nmz75mbzuMu9AphKWE12pEsjjcTujYUplCcfOQ51IH7juCcGaKV2P07EE4izCXsITwV8YfCbcSJhPGOmB0jP7+jvl98KmA5+xI2J9wPuE3hIcJTxEeJdxHuJFwOmHntO+0TIiAzxB+SNhChhMJtifcuZHJ9zqhb1kFC8UbCWV1cxGQj/Bi6HuhvIrwIGF9RlgVU05DhmUYNHo8J4j3NcIzjro/JtxBGB76bsuEiLeIsJ6wjLCbjENLRJiUwZjOFaqscoXiaYT1hJBfdBABKc/WhJutl/4WoYlwEWES676QMI/w94iP9AHKZgLfRphFmBJTXt0ISOm2Jyy18r7LBJsBPYxruRVcYxFxOqGz7zsuEyLdFUxA4J+EMwgdZRoixjDCkzUm3/SyihWKexI+YAJ+2fe5QghI6bck3CteMsh1crWXzC3IKMKfRb45CPetc6hQWd0JK0T5Jzvk2Zl/JCbP44TjEp61J/8A3xT5MCzpElx5IluDIKDBYsJOMh0RpAthVo3Ih5lzacmlUOxGeIrJB5zv+1yBBJwpXuyfCL088nYmLBT5z/Ctc6hwC2vKvSuJ/BTflfCEyIMWbkuP8nZQegxs8i8I/sER0faLICDwNuFEOz0R5fhmv/W8JGDJZUhZIYXizwX5gHm+z+VLQEo7XLzQlwjbBpTZTbREq9Bi+OoIKPMwUe9mQn+HPD8Vea4PLLeL1epPCNEDAnaLIaDBPEJvmYcIM4jwQEYELK94oTjOIh/wWMAL8iXgr8TLPMW3PKFnotCTehaeUJbd9Y53yDOEsI7TP00IXuynvLsSVgvy9wlSRAR7MYGErxCOkHmIOFsQLiV8nIJ8i5rLl1zkuE9ire9M2IeA+AhigP2uT3cUoWsHQYg/hOpxLOsmn66X88gJ1gkZ1GGq0HdpkBIi1x0JBDSYSegq8xKBRjXH7+VWw6vNcsmlUNyGsDyCfAZeM2FPAn5evMTbfMqJ0fcq6wKpg9YxHcoYHdD19iB8yHleJmyWQT0wk/6Idb5B6OSthEh1pSMB1/O64f4yP4jUrBeQfQh4eFklMM6LJx8w1vPF+BDw6+JjTk/OkajvL0Jftgu3HVpmo6+IMhoc831V5Lkyw/osEnoPT85hCRFqnAcBgXWESwgtbG/Wa4bfJax1IN9VZRUoFM9IIB9wrudL8SHgmeIFepUTo0+urQ1Nqy9C/2yhf1FgPn+ixOudkIrYRKQRngQ0eIRQNoMlcu1DeKYK+R4llMZYheI+hA8dCDjX86WEEnCyTzkx+h4S+j6ZVp+lW3a9mGnvlJyrJe/TIq/3LL+K3r2F3oe8FRCJugcSEFhDmExoGU8QwboR5kSQ7wPCHi0FF4q9CM85kA94xPOl+BBQdk1TfcqJ0feC0Oe8luigt3dI18t5MdEys9+VWdWJdXci/It1rw4aWxKBVqQgIfD7iMXrkwnvCQJ+qyWyUOxIWOBIPmCNj2GCJwH3FR91oWsZMbq61/BDzw3pejnvHiLvA1nWi/XLH90nvBXw7kcaAm7YT7b18prhBSBjWUShOMmDfAa72fqrvBAfAm5BeFtlswxzovgQN4fqidA7Vuh9y6fr5fyHiPxNWdVL6Jc7I8O9FXjOhOPwpFNhheL+hI8CCOg8E/YhIKe/RrzAr7vms3RgX1ha0BwSoidCL7re14TekwJ0nCDyz86iXpZ+uQ05xltBwEw4CsclFlQo9iasCCCf10w4gIC7qNKqPtazdnDNK3R8W3yEzBahra43qPVS5VY312ZVN6H/FqHfa8lsg6SYCRvMSCxEj/vuCCSf10zYl4Cc5zviJcLodJBH3m+Isd/7KsAoNEav3fX2C9QjCTgti7pZ+uUST6I1ToWknAk/REi2CysU/zsF+bxmwiEE5HxF8SLfI1xCGBiTdnPCoYS7RR7YAh7qW26M/u0I/0jT9QpdkoCzsqifpV8S0L8FhATOhN8hJLcUheIQwrqUBHSeCYcSkPOeLlozA9jO3c5dDUzxf88tnUwDq+LPhpQZU49bhe4FKXWdJHRlNjkS+v9H6D86SEngTNhtwFkofiMl+bxmwilaQEwkpqnSjPhVi2RReJ7L29q3vCr1+IrQj1Zwu5T6jhD6Uu93R+i/S+gfEaQkYCZctCqBAy1YkMRe6LAy5YViH8ITGRDQqXkPHAOCfD8TXekXuJvFYR1YAk/nrga4klvKWmy12V3vVzLQuZfQ579bkaz//4V+57FzmXjOhO+fLw4yUaFjrFYBVhcY1Etzqy6EGSkJ6DQTDiTgWaL+30rOURuxut5bM9LZXeh8Mwudlv53WPdagvchsg1ChDrAkXxvElqsPJS2gfuHiu6ecCin3FCxUBxFeCmQgHMcX0jIMoyxCVyiNuKZDqseciE7dddr6ZbGq0Gz6Ri9/YReb+PhFiFS9XQg38eEw0Th6LbuTBgjrSR8saywQrEn4RcBBPyL40vxJaA0Ux/lmi9L4Q/5VpZdr6X/10L3MRnqlb1fujXG+dr6uRoBL7YKn5RAPgPMKi+paJ4LxeMIb3kQcDUhcbM7gIAvq9IaXlgXklKUPvpp3tctNdD/TaF/ZoZ6p2f2oyGC3V2FfEsILcsgVNhQVbKwdQX2DAeUFVoo9iMs8iDhLg4vxWcvuIuon9t2YsaiypdJsO3WOzmXdxl9VWl5Cd27v/VypU5M0oyFzj8J3VIpJIJNiyHfa4SWcYPSB7j/5kk+AwxYjy0rWO+SYKnmfQcCJq4zeRKwp/XxN+r4L6LrDVvIdSvrN6Kchgz0fVnoS7/ATSQbH0E+WECPtAq+xpFs1XCdstfO0LoVivcnEPD7Di/GtwuW632TXPNlIVTeb0XZXoa3AWXJ46cr0rRYStsYGiNXLL+l336MmQmfZxV8dAbkM8CJfPtc8OaEczrEW0onruQHELDRqtezSo/JZifgeqW3785Reluuh2uZXK7cIqtJ1xtR5s8l4UNbfKsRyuaMScRM+K75wtqZCtpRlbtmyAJY9D29ojKF4lDCoyEz4QAC2p4NQoExFnyrJM6kKc1OSpvVm7xhW1ieovSQ4zlR7g3KzzMC7CevEvlhuJHZLpCcCa8ktBydVHrJ5W6Pj+EL7CeWn1UoFLckXN6hfB85cSbsS0DxfBMzfB7sG3etUp6c9c72qWtaofIGq9LM3/REsLyJ3WunuM2U9oPzsMiHniJzl2338LivbO1OaV94tSKfAV7KyIpKFYqfJzzvOhMOJOBnlV6zRD0eUI42gUqft4XHgfGE+63ngZ5I7wOq3DkQln9WZQiXc8KfICyz6gtbSHiJuIDfIdDIP6ZXrLRLCdv7vGMn4Zlwo1XZYcp/ySVNN3apspcJtNOiWS4zYV8CUtqDVckgFbs3wR6flB4jvyueJ9JW0iJg1hjoWFcso2BPe4WHbnTfp6larRYQ+fay1vuwTvbkRiKfBH6du1ZUsFA8ivC1as/gQ0ClN+oN+R5IQz6h81DxHJghVrTYFDZOlVqZrNHds74gIs6NXK70MAuz29cZ+D+sXeCG4yCVgUcFL1HafVetyYZNbAxmsREP548FJkbQ4NaVgEpPPp7iOmAhdUBSHo86yDHeeck5cqkQenHHZEw0+DHBwR0sYXyf9e+mMt7+8iDgf4m6XZZxHY4TupdkqXuTEKWXCUKXXLCm9TulN/kncvPudZQwZd1dCfiIqLPzsU/HOgwSul/KUne7F6Wn3EsSSAY/wbAGxqAdi7EY03xObQTHjA71TyQgxW8rfzA1qEMPoT/SSXkuMaL0yr55eZj9PkaYr/SUHGdMYYjQam8yciSg9IhQC28BkuBvZK2/3YrShgYws8JyAhYsa+LjrpbiSMCRgiBLa1CHoUK/l2+bXNq4OBJwT0GQx2tQBznBuTFr/bm0YnEkIK5l+IAJgsXvzFyWsX7pps37qolc2rB4zIIXCJJkdrWCKj9WiV2G1MafubQh8SDgAYIoMApNvRBNOj6jyrfijk+rM5c2Jq4E5LRXC7LAuuM/UpR7kkW+zM5e5NKGxJOAnayuGMtOOGjjZOHL630gnn254bVtcQUhlwzEh4CcHpvxMEFaa5EIJkgwmYcnhCmsFx4gsPD+S6XPxdh+ZLCBH+xIKJd2IL4EFPk+qbSZve14yAUwaviuSnsyLJe2L6EEFPlhgnYU4TJuAeHv5kUBtHx3czcLe7rdM6x+Lm1d0hIwl1xSSU7AXOoqmzIBld5iHGtQ7/psktIaCai070GMH2t9jSvGravMjL6WZeUSI62UgMZEvzEiDvetLc1yBq3Yb3NW+nLxkFZKwK5KHwqvsKNUJbfAmRnz5gSso7RGAlaTnIDtTFIsROMcBy6wHsh/42jCNgl5YNYF41McbA89xedEQKVd7cKA4kBC34S0OQHrJQFbcbjMT9rvAf+n9AU0j4h0Mh7HE3DyTV6jhR0UnPbrKPLsZeUbK+IaVPzOykCRbnelj6x+JOJxJgdeTyMdIuUErKP4EJDHZnDJgQPYOFQFt2OfIsxSljm90mb8R3E4Jg0wXLiQCYJW8AaOO1/k6cb5zL3EkoD9OM64zz2K/x4px4pKO5TEDBrncQYQdmV9IOS8mOfKCVgv8SSgcTd3WERck7LOc6hyh5bjI/L8lImxqxVuzqBUrM1V64KVvrYBcQdExIG4q2OeKydgvcSTgObC6opr7JX20BBHQPhIqXBTwYTBGtyFVngoATHmeymmLJOv4qq0nIB1FE8CohuEWw6ccd7HisNVqftaYYaAsS5pKe5PyjrqGUrAiLQducuHDeKyuHw5AesoPgTk9F9U2k0vBvY4/zysSlpDwMlV0vyC8LoVloqASo9P56iSP2nYKv49J2ArFF8Cch5YNsMo1bgjWWy3iJzOEDB2S03pyci/rLDQLnhrVZqkLOaWr79DvpyA9ZIQAoq83Tg/Zsawdh5vxRsCnl1FB1rRN6ywUAL+mFvmgme+nID1Es8xIKxHKg4iMdHgLxBLLb2tcHz066vohAHrfVZYKAHRIi+OKefqnICtUDwJiI9/T0ycuUDmIBFmCIiZaYVbOaVd36LFmmKFVyPg5RxXsbvB4ZFXYCm9FpkTsLVJAAHxEY+NiLuA43YRYXId8BwrPWao8LGMWfWOVlw1An6P44ZHxC1ndLbCvyDqkROwNUkAAZczadAS7cfd8g+UXs+bY6U3BFzAeW5S2nXtkUrfqo64cSI9vGRhy20qx83gv+XNU3tzHPwVfklph+djOO5UjruXMJowgn8YcCtsbio/Q/HNR0rvSUO/cZjeoDK4FSkXD/EkIAw4z+MWyrjrBd5jctotjyFgo9KGC0+IPHDDcaKVHvvML0ZghJUOdTbX3mKJ5RgRd6oqdyS+kkl6mNTJac+PKi/wVeYSIj4EjMiL+49xf3DkoXJJQBEGb7I7qwwceMeVy3EYXw5UdbrPOBdHSUNAB90VBMwllzLJCZhLXaVWBGTyDWACTuW/s7snLZf2ITUkYJTh6LSsy8mljUsNCTgyAoOzLidUqC59eJLSU4TtxLN5gz3rWcdNQmo5BmzNonjx2Zqh45xLk1gXzA+r11raCgFVxqfhlHYbh3W/CksdVWUnJpeMZVMlYEJZOQE3luQEjCwrJ+DGEhcCKu0VdS8bVpp+HN5DhHWOyLe7lQ9ufw9X+p48bJn1t+K35XxzmRQHCl2dOU3/qPpZ2C6mThVXTkQRUDxf7DsQ6b6p9D3OuLh8aEQaWd/dOQzLVKco7bjzWMKW1b5JuxFHAkqrlhZYacxm/xQRNjAinzy6iQ+wnMNh5g97Qhg1TBZpGqLKVuI8sCpNKKrhtJg6NUQ8bxQBGx3eAfahYXSBM88wljC3ysPZUieRTtYX6WA4ASdJa1Rpjxv72XskfsC2Lo4E7MgkNFc14GYjuXwBU3hYnMBz/oMifDPOh3PDD/H/t+G4Qfyy/6D49k3WcxmXcTyHdeZ8Mzl8AP8NbMZp8EHvF+EGaI1eIDxuWhRRpwM9CbgV54Fnf1w62dd6B0dynp8odpzE7w2tIS7ivkqk7cJ1WMQ/POhEy7cVx5tb6Zd6fMq2KS4EFGnx8d4hXGeFwywKFjHoQmFg2seKx698qhV2G//KK7wVKG1OtdwKq2YJjRltxaFzCrtC6XPH+0bEGS8MDRFxUQQczkS5RVVa/XRkkv9ORRg/KG0ShiMLg6zwJmX1GiJuHhO3fV/c40NATg/i/NUKwwm0hUqPbfBCvyrievDLP0KEmS26yBuXlHbzgfghIsxrEsKtFcptjIl3JiC3SLhAPPI6CVW6bPFEO47j+3BdzrTCm1TM1WcUdrHP87ZZCSDg2dzK9eC/MYl4mzCR/4bbjl+K9KP5l9xNhJkD7rtUlrAhfn+OP0mE+ZwHRhf3DLe8kS2IKwGV7lpXM1kiTbvED2bHqHhOA2ftt1hh0Bl5QbcqjTlzAlrpR/CLOZz/HsV/D+a/MQbC4SAzPoMhwjJLhzHfT8IkkceHgLCkxoSmYpYq0rgQEGNLXNJ4n9JDjP4RqpD+XE4f211S3B2q8vBVU9y7zwkYn34LpWd6F/Hf+NjPivgx/OL2478xObDHfyDT+yp6v1hiZytP4gdR+uA80p2bkM6FgJiRw6sXXL3Bs9fCGF1wuvRxQnmYcDxoheUE9CUg57lH8fFHpbvc6SKuK7c+aBXgDxBLC0dY+Td8MBVxUq5KmS4eEXBOGbPeh5N0OxJwggg7hcP+MyL9WRwX6x9R6WOri62wnICBBPyh0ksoZjJxsBV/J3db6K7Lxn8cbz7mp2P0b8skkONGFwJex4RPvETRkYByFoyZ7h+5JexlpTdu6EbYukRezKBnWOE5AQMJaD4Q1uywLNPJiv+20ssfaAWXReQ354EviNGPfOvkh1Z6ZyF2oK/0oSPEV3hhUNoR5sVWmBcBOXwY1+sGK7yX0mPFH8XU7RDWd7QVnhMwkIBYlF3Lv+q5EfED+eXhMsKpMTrgkgPjQNujFu6gg1OhBVb4RNY5OkIXxmhYU4QHrKhlEkwmmqwwbwJynFkQH2mFw9chZstDrHDMyOH9Ybldt5yAHcIIyPmMzVzFmIjjzRHMCl+CHI8Tddg5wYQGbjMm8L/4iC+jlbTSY+cEY0vMsHEmGRclmu21m7gsrEVOi8DfDAGV7t4RZvaW7+K/cb7ZGKT+WuoTdcA54ps57gWjn+O2UXrZBz9KrOFhcR67G89x2D5CT4HzIq6Z/382xx3Efxt3cjNVe7YkV9qlxu0B+SbxLzvO7/Jkju9SRQfIgF2MJ5XeC32aX/52MenxcTCb/DPhfxWPuZTea21KwA84bd+Y+OGqZJBaBlH+wQnxICGWnYwrOBAP3h8GW88xMULPVRw3JqqMfwNR0RKR/UAu8QAAAABJRU5ErkJggg==;" vertex="1" parent="1">
          <mxGeometry x="880" y="442" width="252.8" height="158" as="geometry" />
        </mxCell>
        <mxCell id="zemKmCcNjwJqudbQ4LHM-5" value="" style="shape=image;verticalLabelPosition=bottom;labelBackgroundColor=default;verticalAlign=top;aspect=fixed;imageAspect=0;image=data:image/png,iVBORw0KGgoAAAANSUhEUgAAAawAAAB+CAYAAAB4SSU8AAAAHGlET1QAAAACAAAAAAAAAD8AAAAoAAAAPwAAAD8AAAuzpxg07gAAC39JREFUeAHsnFeIFT0YhrP23ht29EYQGzaw93Zhu9ALu6goFkTB3m/E3lZUxIbYwYoFBS/sgmtDsSO6KhbsvebPl39zmMnMnJ1T5phx38CemUySbzLPl8m7k2QmjTHGxR8CCIAACIAACBhNIE3UDoJltItQORAAARAAASIAwUI7AAEQAAEQCAUBCFYo3IRKggAIgAAIQLDQBkAABEAABEJBAIIVCjehkiAAAiAAAhAstAEQAAEQAIFQEIBghcJNqCQIgAAIgAAEC20ABEAABEAgFAQgWKFwEyoJAiAAAiAAwUIbAAEQAAEQCAUBCFYo3IRKggAIgAAIQLDQBkAABEAABEJBAIIVCjehkiAAAiAAAhAstAEQAAEQAIFQEIBghcJNqCQIgAAIgAAEC20ABEAABEAgFAQgWKFwEyoJAiAAAiAAwUIbAAEQAAEQCAUBCFYo3IRKggAIgAAIQLDQBkAABEAABEJBAIIVCjehkiAAAiAAAhAstAEQAAEQAIFQEIBghcJNqCQIgAAIgEBoBCs9PT0l3lqwYAHLzMxMyblwEhAAARAAAf8EQiNYnHP/V5VAzkaNGrGMjIwELKAoCIAACIBAEAQgWBpVCJYGBFEQAAEQMIQABEtzBARLA4IoCIAACBhCAIKlOQKCpQFBFARAAAQMIQDB0hwBwdKAIAoCIAAChhCAYGmOgGBpQBAFARAAAUMIQLA0R0CwNCCIggAIgIAhBCBYmiMgWBoQREEABEDAEAIQLM0RECwNCKIgAAIgYAgBCJbmCAiWBgRREAABEDCEAARLcwQESwOCKAiAAAgYQgCCpTkCgqUBQRQEQAAEDCEAwdIcAcHSgCAKAiAAAoYQgGBpjoBgaUAQBQEQAAFDCECwNEdAsDQgiIIACICAIQQgWJojIFgaEERBAARAwBACECzNERAsDQiiIAACIGAIAQiW5ggIlgYEURAAARAwhAAES3MEBEsDgigIgAAIGEIAgqU5AoKlAUEUBEAABAwhAMHSHAHB0oAgCgI+CBQoUIB9+/bNkTN//vzsx48fjHPuSMMBEIiHALUk4/9Eg09JaNiwofEswuAv1NH8eypZPjpy5Aj/9esXHzVqlO3e6du3Lxdixc+dO8fz5MljS0vWuWEn57SzLF+H44JTolbiJBCscLQHdFRm+Ek8QfGfP3/K2/PgwYM2Udq4caM8/ufPH16hQgVbGvxnhv9C6IdwgINghcNPIbwB0JEmOMLSv39/vn37dl6nTh0by5o1a/KtW7c6nrzQRnAvx9sGMIclyFkD5rCsNLAPAv4JiGE/Vr58eVaqVCn2/v179vz5czl/5d/Cv5mzaNGirHr16qx06dLs3bt37OHDh5LPv3m1wV4VBEvj6yVYU6ZMYUOHDtVyJz966NAhNnHixOQb9mGxffv2bM2aNT5yJpaFOrJWrVp5GlmxYgXr2rWrZ3qyEmbMmMF2794dl7mePXuyhQsXsi9fvrD69evHbEM8lbBZs2axly9fshYtWtjKFypUiF29elUeGzBgALt48aItPVpkw4YNrGXLlmzXrl1s5syZjqzr169nrVu3Znv27GHTp093pOsHFi1axHr06ME+ffrEOnbsyF6/fq1nYc2bN2fjx4+X6cWLF4+kf/36lZ08eVK2qcOHD0eOu+0MHDiQkT+8AnX01G7OnDnD9u3bx+7du+eVVR7fsWMHE8P7bNOmTWz+/Pm2vAULFmTXrl2Tx+i8Fy5csKVHixC3evXqMeJIbLxCWloa6927Nxs7dixr1qwZy5s3bySrmO9jZ8+eZcuXL2cHDhzAgpQIGX87tsd4UcTI+N8eEly8eHFKqrBt27a/xr979+4pucbMzMyo1yg625TUY9iwYVHrEe1eEEIi6/jx48e4bIwePVqWf/r0qaN8kSJFItefkZHBc+fO7cjjVbejR4/KsuvWrXMtI4RDposO1zXdardDhw6c5p8ojBw50pFfrAzkmzdvlunWn8+fP0fKqeO0MKNEiRIOG+p848aNU1mz3dICDxpqLFmypKe906dPSztLlixx5BH/EETOESvf8+fPy7LinxWHXXUt4gmTHz9+PHIO2hH/2PBHjx7xN2/e2I6TP6Jdh7KJbUSXIjueDjABls3LAUa8Fl1AsJIHHYLFuF/BIupjxozxfW8mS7CKFSsmO1g6/4kTJ7h4YrDVgUTU2inTgotOnTpxEgPqL/Lly8fFkxcXTzhyBSHZEU81nMTYrT9RgiWeOHmXLl0cf3369OFTp07lp06dIlMy3L9/n1euXNnVnl/BIkOx8M1OsAoXLszF07GsH4n9li1buBi1sfGrVasWX7VqVWSxyuXLlz25uLHK4ccgWLJ1Zf1AsKw0gtmHYMUmWG/fvvW9yi5ZgiWGFqXzxVwUr1atmkMUZs+eLdOpUx4xYoQj3dqpkgDRUxcFeiKzpql9JViPHz92TVf5aNu2bVv+7Nkzae/SpUtcDLc5ysQiWMRXzL05bFjPqfaVYInhQNf8a9eulfX6/fs3p8Uoqpzbtl27dpye0Cl4cXErl8OPQbBki8n6gWBZaQSzD8HyL1hi7kg6gYbA/HRUyRCsbt26RRw/fPhwx3nLlCnDP3z4IPNEGxqz1peGXylQR167dm2HzVgEi+zSikQlgm5Du34FS/GlJyFrfb32lWDRiIuep0aNGpGnpmXLljnS9fwU79evn+RCwt+gQQNfZdzs5KBjECzZYrJ+IFhWGsHsQ7D8C9a0adNkJ08dWps2bbLt0BIVLJpPoXk1CseOHbMNZalOkZ6oKJBoiUUW2daJyuXKlYvfuXNHlnMTuVgFi2yqYXqah1J1U1u/gkV8aU6M+IrFKg47yp7aKsFymxsTC7Pk9X3//t33ExsNtV65ckWW8ytyqi45dAvBkq0l6weCZaURzD4Ey79giZV5XKzclI64efOm6/CXteNKVLDoSY6CWJXHq1Sp4tqB79y5U+bZv3+/a7q1PtZ9EioKNIxnPU778QhW48aNpT0Sm7Jly9ps+hWszp0789WrV0s7169fz/aLHNEEiwSeAs2z6dcXLT5nzhxZjuayouVDmtQqCJZsLVk/ECwrjWD2IVixCRY99dBiBAqTJ0+O2qklIlhiqX7E4UOGDPE8D31qiYJYLu6Zx61zJZsUXr165SgXj2DRwg4VmjRpYrMZi2AR3xcvXkhTEyZMsNnRr0MJ1tKlSx35bty4IW2kp6c70nQ71rjiIl4ZiKmc1UYO2odgqUZPWwiWlUYw+xCs2ASLOqPBgwdLZ9CcS9WqVT07tngFi+alxHtO8hy01DpaB3j79m2ZLzvx1G306tVLlqN5LD0tHsEiG2oOSry3Z7MZi2CRnUGDBsm60TBnxYoVbbasdVWC5TZ89+TJE2lj3rx5nuWtttQ+sSfBpdWE6hi2nrrkmWAUPNkSUvADwQoeMgQrdsGiuQ7VCe/du9fz3oxXsNS7b/SeUKVKlTztU0d69+5d2UgmTZoUNZ/e6Vqf4PRl8vEKllp4QQtFrOdTrNzmmqzvYdGQIJWj+qgl8+KlY5stq10lWOKlX0ceNfcnXth2pFltYD8hzUmocMocE3w3+v8ZIFjBk4ZgxS5Y1MnVrVs3sgpN76BVJxiPYNE7TiqILz9ke0+bIlj0zpMKTZs2tdU7VsEifrTyUH3IV3z1xWZP8YVg/XW9+OsVcG0YqoGorWqYQW8hWEET5hyCFZ9g0b1AcycUHjx4wMUnhhz3jl/BovkSWmRAf+pdIP1r6+re07emCBaJCgVadFGuXDkbi3gEi65TrTy8deuWfPlZv3YlWOLzYbbzUT48YaVES1JyEodz9YaQXVy2zBT8QLCChwzBil+w6AsUqmOcO3eu477yK1huXnZ758rtvjRFsMR3/eRl0Bc09HrGK1jiQ7VczUXRMnXdrhKslStXOtKUXzAkGJym/AcAAP//wEGxFAAAGrRJREFU7V0HsBRFEx7MCWOZFSNgwFSKWcEMioAoigFFRAUUFROgghgwIaIEAS20LEV4KkowAAoICFahmBADBswBc8S8f3/zv96a250N9253b+9ed9Xdhkk9PbPzTejpUUoppxJ+Tka09957W+Vx++23Z8LBuHHjrOlnUUZt27bNJI+ffvppaB5ramoy4aNbt26hfITJvHPnzprHX375pU5xXHDBBTr8559/7gu/zjrruPk/6qijfO6dOnXS7n/88YfTuHHjAvdnnnlGu40ZM6bgPeflqaee0u5z5sxxunbtqn8zZszQ737++WenSZMm1nAcHtelS5dq/1deeWWkXzNc+/btdTj8NWjQoCDsRRddpN0++eSTgvdmePP+9NNPd/777z8dpnv37r4w8+bN025Dhgzxua211lraDX/HHHOMz/3kk0/W7r/++qvTqFGjAvcXX3xRuw0bNqzgPXhDWYL69+/vc4M7yhx1P+gHuZp5lHsrNllf5k5wuiZk8CeAlb6QBbD+33hB0nUBLDRkzz33nC6oadOmFXyrcQHr3nvvdcNtsMEGzrJly3R8r7/+urPmmmu6brZGs5yABV5vuukm599//9X8Llq0yFlttdV8/JYCWMgzg/jEiRML4mbAGj58eMF7hIkCrL59+2qeg/4AkDZ5y7sCjCp4yK3Aggo56fcCWElL1B+fAFbpgNW0aVPnzz//1MLt2LGj+93WBbDQIO6zzz4ORmygsWPHuvHZGss0AQujvMGDBxf8MLtxzz33OLNmzXJ+//13zSP+3n33XWfrrbe28loqYGGkyfJo3bq1mwYD1ogRI9x3LKMowNp4442d3Xbbzffr2bOnzpMAViwsiuXJVzhcSFld3Vqa8o0AVsoCpugFsEoHLHx3gwYN0oUFeWIaEe/qClgI26NHD7fwu3TpEvjNv/3229pfv379Av3Y2oUTTzxRh/vnn3984XhK0GUg5AZAcvfddzvrrruuLx5Ot1TAQjw33nij5uK9995z1lhjDZ0WA9bIkSN9aWM6EzRw4ECfG/Nlu7Zp00aHA1jb3OVdAUYVPORWYLpEM/gTwEpfyAJYyQAW1mJ4Kg+jEDRspQAWwj/00EO6Avz22296JGBrLBkMOE2bH9u78847T8f99ddf+9oZBiw02piOM3/Tp093Hn30UQejGqwdbrLJJr7w3vSYx7qsYXFcmBr98MMPNc8DBgzQaYYB1iuvvKL92qYLOU7bFZ0DENKyucu7AowqeMitwHSJZvAngJW+kAWwkgEsNGTt2rXTBfbXX385zZo1Kxmw1l57bWfJkiU6znfeecdp2LChr0144IEHtPvs2bN9bmGNKxRBQPPnz/eFY8B67bXXfG5hcQa5JQFYiPv444/XPGMqcvvtt3cYsDDC86b92GOPab8LFizwuXn9ms8AOBDWJc33cm/FJuvL3AlOl2gGfwJY6QtZACs5wEKjNnXqVF1oc+fOdaCEAYrSEjSVLrwN48477+xA+xE0fvx4X1vAGpJ///23s9122/ncvfHhGUC4fPlyHSePVkx/eQUs8Dh58mTN95NPPukC1qhRo3z55hEkpjzjaFsibkw1fvHFFzr+Pn36+OI0ZST3GqsEsHRtqf0TwDKlkc69AFaygAXQYGUETOWBSgEsNIynnnqqW/hQCjAbS4APpvVAaMy9KuqmX77H1BxoxYoVzlZbbVUQH/zkGbC23XZbh+XKch49erQvD+utt57z/fff63xianallVby+WF58BUajyDEu8UWW0T653D1+CqApWtM7Z8AlimNdO4FsJIFLDRe2PtjUqmAhTihWACCkgO0CM1G8vzzz3eTu//++wNV4VdeeWWthMB7pm644YaCeDjOPAMWeLz66qvd/OLGBljw16tXL9cf1gOxzsh5NK8As6uuusrdS3b99ddb/Zlh5F5GWG7l4hsBLJZEetdqAiw05r179471QyPPjU4pG4c5DvO6+uqruxt6UXJJABbiXLhwoa4IUAjAHigzTaiaM3322WfOdddd52Cj85577um0bNnSueKKK5y33nqLvejRGADMjIPv8w5YkAXW9JiC5Iv8AMCZMN0HkD766KO1XFq0aOFcfvnlzuLFi9mLM2XKFCdILiwfuboDK/fGWpHyIii3dFO+EcBKWcAUfTUBVjHS+uqrr9xvLGnAwneKRpEpqEFlSxdha1jmN4/psO+++05HO2nSpILpP0wFYjMsT5Nx2t4rFEJuvfXW0EY574AFmQCMmQDWppzMe8gFIzJMf4YR1gCx52yVVVYJjMuMV+5lhOWrTwJYPpEk/qIaAAsmfaCJVswP6z3c6HTo0EGHfeKJJ9x37AZ1ao63efPmPnf2Z7veeeedOixGNzZ3NJCIuxizSscee6zLj82U0ZZbbulgSgujsZ9++knXFyhtwGoGgGrHHXe08mLyd9JJJ+k0MDox39f1HtOZyOeFF17oiw+KDizffffd1+celubQoUN12Djyw1odRlcvv/xygVygCXnbbbfFkksYL/XUTUZYZossgGVKI537agCsetpYxGrcV1111Vj+6psMRS6JYE0ikaReQdNpOv2xCmD5ZZL0GwGsyvjm6hugSH4rol5WBJNJt5mB8dVnwDruuOMC5ZKkQ14A6+yzz069oyWNYGW0L1JOFVNOlcFokg1mWFz1GbCOOOKIMNEk5pYXwMJeI2moKuP7l3KScqqtA5UhiMRay4iI6jNgHXTQQRHSScY5L4B1wgknCGCR9puAgciggupAZRRWMk1ldCz1GbD22muvaAEl4CMvgNWqVStprAWwpA5UVh0QwDLb4PoMWDANkwXlBbAA0BXUsxReK6thlfJKobwa8LwgXXNN1JBmwh+ZoFF0iqkvLTpKQV122WW+90m/ePjhhxUd/11UtHTiqjr00EPVfvvtpwh01Oabb67ocD9Fu+wVWSBQM2fOVG+88UZknLSBUYcjszGRfkvxAJ7o4L3AKGpqahQdUx7onpQD5ESbeesU3YYbbqjI+oGiTbOK9h7FjgMypoP8tP9vvvlGkaHUgrBkykeRTTpFFjTUDz/8UOAW9kCWEhQdu6G9fPvtt4o2pRZ4p71HiixV6Hdffvmlvq6//vqK9lDpezrjSpH5pIIwUQ+od40bN9beUKaQg8lHVHjTnWz1KTpaxH1F9hEVZGEjOm1Yy4Y2NPvkZ/PvfUdW19XBBx+scIWsUYZ0TIuaM2eOorOvvN59z5AzypA2BiuyAKLwvWy66aY+f3Ff/Pjjj7psUD60f03RuVpxg2p/22yzjaLz0BQdAKk+/vjjosJWoueK6Alk0fNHGpU0woJFaBz1QBU+Ujw4Nwmmc8IOvaPK61BjFhlXqR5grgZpBf1w9lHaBCsDpZjDiTp3KihvOHGWybahFpqLIBhRjXPuE6dDjZYOhz9bHebDE3G0PIeBCSUm6vC479k96kqdCg7u7LLLLjo8DPHWhe66666C9PkYj7C4YGGDOmNO165dHQLPgvA23qlD5xAohUWpTzWGXGzh+R0f7IgNwXi32WabhcYZ5XjGGWc4XD6wKsKHcXJ6YVeYy8IZYiBYCwnzWyVuwQ1HnjIYVehJuds+dsgBh9VlQePGjYusdLAKDeObaHSLJerV693/QRa2n3/++WKjLNo/jnYPM0eDc4HSJtiFK6V+pw1YyH8xVh9MwPIaqkU+uUE0AQvvccw8aNiwYUXL45FHHtFhYdGCZZklYOnEa/9QnugMMB/e61lnnVXwvWBaGseFwEAtbPnx8faIDvUzTIM0DcCCMVyaBdG5oZmcwHx483XNNdfoMOgEwkKK170KnwWwdInX/uUdsJo2berwEeUm38Xe07SbPqPIW6FxqmsWdMABB1g/LgAZTWmlzgIO2/PmvZjnLAALFs6huRmHLxOwbOaGggCLG18Yr0WjGSct+IEVcpqC0uUEq+MczgQsmHGCeaI4P5qedONAXDzCwkGJ3vDI6x577OHQ1LkD0OSOG2YacJYX88JXjJjYz5tvvqkN83o7bMg7Dmv86KOPdJ5g/zCojrLMeISFkbqXR35mK++wI8nvvFe26N6xY0edNsATxnaZ/6ArjnlBBxR0ySWXRPoPiqfC3gtg6RKv/cszYEFJgNY1THZLun/ppZd80w/msRElRR4R+Omnn7Y2kN27d48ImYzzwIEDS/rAswAs5BR258JGo9zYmICFqS9+z9cgwELDzxQXHBEnx4ew5tSmCVhRU2vMm+3KgAVbhDZ38x3yixEGCPLyAu/EiRO12wcffODQ2mNofFA8onUg7Z8ByUwL917A8rqbz2FGjk1/uAffAFSQadnf64+fAVIgTOMz6LFbFV8FsHSp1/7lFbBIQcChxViT1UTuYYHb/MDNNZZEEgiJZMaMGQ4Mq2LUiEbn5ptvdnvCIcEScYJl81I+6rQBC8ZjeSR98cUXR/JqAtb+++/v888A450ShAz42Iw77rjDFy5IRhMmTNDlgE6P6accgIX0MRriM7fM/XWw38eHL2Kty+Q16B7hmWygmxZggZ9OnTrppN9///3QjgrW7DCtCbr00ktj5SsovxX2XgBLl3rtXx4BC9MXUYvFZh6KvccREVxpkRamL6qZsEZRao80bcDCSJotj8ACOjosXEa2qwlYBx54oM9vGGDBojgIIwvvVJktLayVAFBBONvJ9FMuwAIPfHQKFJGYJ9JG1XzijzQa3ffsbrtiim/58uU6XL9+/Xxh0gQsdB75DLHTTjvNlzbze84552j+cPJzqXWZ46yQqwCWLvnavzwCFo5eSJOgZURque7HQar1aSZX9rihWFLqx5kFYIHH8ePHa3lFKeOYgGWb2gsDrN13390tE9t0oldWPALBiKZRo0YFsiwnYPEU2ZIlS1yecJ4XE2TkzUvQ87Rp03Qw27lXaQIW+AFQgaCEYetAAFBZWSboGJmgfFXBewEsXTtq//IGWOhx0d4Qk8VU7ocPH+5+zNwgpZJQDiLFukKpH25WgIU1FT5j6rDDDgvk2wSsQw45xOcvDLAgC55+xDlNUbLhDs38+fN9fssJWJxHjI44D5g6wzQoCEoV/D7qeuSRRzqoJ61bt/aFSRuwAEg8TWvjmbcTIJ9QvIjKS5W5C2CZbWjeACsr+37QzOPFfWgoYR9QNRK0v2jTZ8kfeVaAhcamd+/euigwcgg6U8kELNueKm7MbWtYSAMHMIJoI2yobHD4Ydi+n3ICFp82gOlKs5HmbRIA2CD5mf6j7tMGLKSPvVmgBQsWFOQFI65XX31Vu/Xp06fALYrvKnEXwNKlX/uXN8DKav8Xsn/44Ye7HwBGXNVIthN+6/IhZwlY6EhgrxMo6KRbE7BatmzpliPnLQqwmjVr5hZ30DeAuNq1a6f9Afhs62rlBCzsnQKh88X5xhWjJVbIwFQf1rVM92LvswAsjLKWLl2q82OWJ0Z8IKizF7PBuNg85ti/AJauAbV/QR9rVsDhXauAFlZWBEsYXFHR8PDelazSzyIdmwYd57mYa5aABb7IlJBudDF6sDW4JmDZpg6jAAtp8GI/tDWDZPHggw/qYpo9e7bVTzkBi4EEqu1e/qEcwqBFZq8cTGti6jvK8os3HjxzOkFq72aYYtTazXC4x2Zn0PTp0938zJ07V7+zKYN4w1fpswCWrgG1f3kDLN5fYvKY1v3YsWPdDwOVHVYAqomCGtm6fNhZAxZ4hOULEExXeXk2AQvahV73OICFDgsIPXtveDxjqpjX07BfzubHBCwARNhv8ODB1jgQbzH7sOAfU31QBQcNGTLEGi9GWjxS1R7pD50ypHXLLbc4APo4U4ZZARZG1rx+DeslWJsEwXxTw4YNrXm0lUmVvRPA0rWg9i9PgIUKS8ZRTfZSvUcjbFZuaFjxHpZUE84gcsjRZrLIzG8x9+UALNgW5LVF7z4yE7DQMHvzEgewdt11V7cksKHYGwcUAEBo5IPWAU3AciMLuMGshTcNfi4WsDAqBGHLAhm1DYwXa0Bo+GGKiqfcTPagyADwCttgnBVgQRZsWxKbn7HZHgRzTCynengVwDIrbJ4ACxqCWU7Lwbaa9wNg0zKmjCrxfuTIkb68efNazHM5AAv89ejRQ4sfas2m+R4TsLxghnBxAAv+oNgBwt4srzywvwlkTlF5/ZiAhbWXjTbaKPAXtn8oLmDB8CxmBpiC1vi8fPIzzCRBwQF5484A4gJw2bQtES5LwEKnFRY6sGaI0Sp4rMs0Jue3Cq4CWFzZcc0TYKFy8W52k8e07m17TqAWnOU6Whp5w1QRDAYn+bGWC7DQieHyMHvaJmDBhp83r3EBCyarQFjPMuNAPWCzYGEWI0zAslmJMOMMu2fAwoZ52Co0f/3793eGDh2qLbVjRAVCYz5o0KACnsPit7mhA3DuuefqKTfECduEyI/Xb5aAhbR5kzB4GjBggI8fL39V/iyAhYrAlDfAglprVoSGwFbZ8dGavc+s+EkiHRxBUUrDaZMH3pULsJB28+bNdY8b07WYtsU7E7Bse4fiAhaOCWHCFCHnn1XGARA40oLfe69JAxbzEnZ94YUXtFUQLy91fYZtRDbAPGbMGF9eswYsrKsxcXnXNW9VEE4AiysDrnkDLF4IN3lM695m0ocrOKaZoF1VSYRpFNhm4zwkeYV6PAiKEMXEi/rF5LUSgXh4zQKjmbB4R40apaOZPHmy9mcCFuwzesPGBSyEYwOs1157rRsP8gmaOnWq+86bBp6TBqxldI4bbE6aPwYTrEHZNCZNvmA8F8AOiyHm+6h7aOGBYDnd6zdrwEL6THTgpo8fL39V/iyAxZUB17wBFkYHWRC0ETHdFFbZoQac5ZpaKfnGFFG3bt1C8xOW1yg39LxB2NcT5dd055EKwmITrumG+7iABaUArLOA2rRpUzDCQhreeIsBLAAVaPHixToeTAfyCBvrPd64zeekActmrb1FixZuPQyaFWCeeA0WU4v8Ls4VaYDQ6fFqDgpglRUzypp47Eqka08Gf3kDLHxcixYtSj3nYXtvzA8cds5gLSLPhEamV69eseuWmb+49z179tQiwEgIC+Nxw7E2W5DqeFzAQnrsF9YpdtppJ7dIbOZ8igEsnCnFBEv6vFkV06tR6tRZABbyDht6IJS1bQqUy4PzDXV8bMbl91FXKIyAoF3qDSeAVVbMKGvisSuQrj0Z/OURsGCBIk3CrnnvAXphHzT4wV6QPBIOFcRIMIz/JNzQMKOxBJ155pmx0oOVc5xdBILSgI0PBqGoKUGEhYo21m9ArMGH+7Zt2/ri5oYbPNvS9b7D6AqEEQpr4cU59DIrwELeH3/8cc0j6mKQKju0FHlriA3IvfnmZ5z6C4LCDr/jqwBWWTGjrIn7KgNXCu9V154M/vIIWJAFGou0KGgTqLcMzGcc1cBrHWnxVWy8GGngkEuTzzTv+Yh4HPEQtZYCPngaEYoLQYvnxQAW4sR+KUzTYgqUqX379j4ZFAtY0EYDwWI4d05wIm6UPLMCLPABzU/eSwX7ekFHxPMGeIBwmCo95w3x8snDtk3IAlhlxYyyJh75AXAl4o8x7WteAQt7L7jXm6QMvNYtWN5xrlADxn6dck8RYtSAjaBZ21aDogMfUY7DNU2bb6b80Ms3R0DmkfKmP9wXC1gIg9GaSbYRZrGAZU4xIm6YhIrT2GcJWMg7jkbhze2QsVeeeN5hhx1cCx3PPvus3hdm84d3UIRhzVxMI2Kfl9evAFZZMaOsifsqg7dy8LP5QaZ5n1fAghzQK+eeXxIygGo2FtRZxnW9opfPat5J8FVMHLCtFqbdWNc8xQ0Ha/qstQa+Fy5cqC0l4JRgAFNNTY1r3Rzu2MCM6ayg+OsCWOjMmCa8AE7e+IsFLITH6IoJtve8cdqeTcCaNWuWnrbD1F3Ub8SIEQXx8z4sm9KFN93OnTszm/pIEK87nqGYsmLFCu0P+6vQwenQoYOuO7Bu36VLF22KjP1AI9a2nw1xCWCVFTPKmnhBJbVVNH7n1siUb/IMWJAFTOLgAMJSCb3yYpQFuBzCrjj8b8qUKe6aQak8BoXH9BeOjLAZeQ3jLy03rJ9MmjSpYFrOyztO80XDGsVDXQALcbKlcqSLAz+96dQFsKCBxwQr7d44bc8mYHHYOFdY7jDjKwawEI7V/DHdGtSBQf302hK08QajtmFTywJY5cOMBrWVhC75JrK2nAmDZI1a0ZqELy2a7lFki873PukXdJCeoqO+Q6MlNVtFi8KKzsNRpCwR6tfrSHP+qm/fvor2EXmdEnumYycU7X9S1Igq6gAoUpcvOW5qWBRNiaoJEyYo6u0rAoCS40w6AtKoU6RSruioDkUdC0VTVYoslaiZM2eq2bNnK2pMI5NE2FatWinq4SsadUT6Nz2Q2SZFB/op2iulCABMJ9WkSRNFyhjY0KNoXabALeiB1uXUKaecop3puJlY/NP6jyJrEUFRBr4ntXl13333ue6kjaro8EpFI1ZFo2j3fdANTU8r5J86YYpGm7qO2PyiLkK+ZjnRlLaiqV1FQKXIXp+aN2+eLaj7jiznK7L6r9sJtBdhRMCnyBixImUgNXr06DCvoW7c/iEOxFVfqWIAq74WUFi+aS+OoqknRT1qRRYKAr2SlpSiw+sUPi6a51d4zooAqNTjVfjIwSONRvQPDWsQ0bSMog2jipQoFJ28qnknbThFU29BQeS9SEAkUA8kIIBVJYVM5mQUTXkojG7wQ6+RVKh1Dx89VNL0yk1OaQ1HkYKEokV8PSIg7S49osCIhPb6KFrg1yOB3DAsjIgERAK5kIAAVi6KQZgQCYgERAIigSgJCGBFSUjcRQIiAZGASCAXEhDAykUxCBMiAZGASEAkECUBAawoCYm7SEAkIBIQCeRCAgJYuSgGYUIkIBIQCYgEoiQggBUlIXEXCYgERAIigVxIQAArF8UgTIgERAIiAZFAlAQEsKIkJO4iAZGASEAkkAsJCGDlohiECZGASEAkIBKIkoAAVpSExF0kIBIQCYgEciEBAaxcFIMwIRIQCYgERAJREhDAipKQuIsERAIiAZFALiQggJWLYhAmRAIiAZGASCBKAgJYURISd5GASEAkIBLIhQQEsHJRDMKESEAkIBIQCURJQAArSkLiLhIQCYgERAK5kMD/AGUyNKtD5cj3AAAAAElFTkSuQmCC;" vertex="1" parent="1">
          <mxGeometry x="692" y="130" width="428" height="126" as="geometry" />
        </mxCell>
        <mxCell id="zemKmCcNjwJqudbQ4LHM-6" value="" style="shape=image;verticalLabelPosition=bottom;labelBackgroundColor=default;verticalAlign=top;aspect=fixed;imageAspect=0;image=data:image/png,iVBORw0KGgoAAAANSUhEUgAAAXMAAABzCAYAAABqzeImAABhsUlEQVR42uxdB3xT1Rf+kjSze9Eyyt57DwWR5QJxyxQUUcCNE8SBggJOhiKoICCCAwEBQWWJDGXL3qstpYPSnaRNk/zvubmhr2nSZlXBf47eX0Py5r3vfee7554h03Ydi+tYarPWkLUGrNVhrQZrVViLYi2ctWDW1KzJxPYW1oysFbCWzVoma2msJbN2hrVTrJ1gLRX/cTErwxF8ZS/CUjezz2EISEACcn1L0HV2re1Zu4G1Tqy1FQCu8PA44RX8XihAfQ9rf7G2g7VDgUclIAEJSADMvZdI1u5k7TbWerMW+w+ck5h8c9EeFt+dY20Da2tY+02w+4AEJCABCYB5BdfUXwDpLQJcPRKZTIZCUzHMl3MBPcNdlRKK2HCodexQVsBUaIIpT88+s38EBUEZooEySMH+aXV1SJoBPCZaDmsrWVvA2u+BRyggAQlIAMxLSwJrz7A2Ajabt1dCgExA3r5JLbRrXAN5BUaG1wrsPHwex86lEtKjdtUoNOjQEMlp2QhnQH4uJROXswsY5pdYbIqMRQhSBUGhKAPyZKYZLtoF1j5h7QsB8gEJSEAC8q+I/Bq4BjJn/MhaImsvOgNyU7G5PNbsyMshZ4C9/3giurdtgK/fHo47bmjGAZuAnP2PpPRsBvY1cfT7CejXrTkD8nxYxPGJ1VstFgQp5LCarSVLp86lFmvvw7aISqBePfBIBSQgAfl/A3PyQCEbNC0u3usSmhmomgsMKMzVA4qKL5fAWqkMgul8GvYdvcC/W/37ARhPJEOnVUGnUcPMgP2Pv47y39aw38wM3LUapY2RM8VhKrbgK6YEOjdNgJ5MNTLZ1WObGdCbzRbH05Ip6EnYvGLmsBYTeLQCEpCA/NfBnJj3AtZOsta3vA0JOA2GQnw0YQhubFsfhsR0Du5u2FoAjQoREcG2f9I+DMitFiss7JhkQw+JCOW/FbLvoFXz30iKr+Shce04DLqlHe7r2QbIyod9TlDMQDwsLBgq9tdwPhUGfSEskHE2L5FRgqm/xZoy8IgFJCAB+S+C+dOsXYLN3lyhmBnAWo0m3NWtOVZ9+jSU4SHQp15xD9BB+G3DUkOh6Sq7toO9WmVbLtAbi1gvyK6aWJCnx+03NuP/fqh/Z8Q2qgEjA3j6qaioGLogBR554CaMGNUPrZvWZFBuYSBvdtavb7CWBJs3TkACEpCA/CfAvAlrB1ibyZrK3Z3MxWYE6dQoMBQhMliDZTPHACYz9Nn5kMldX7qdSQdrbY4wRgLzUgrACp1aKcCc/SaOxUG/ahRuaFEHe44lIpKx8Mfu78bYeR5XBjp2vMS/zyAmTId5rw1G41pxMJutzswudoljbRVs5qSowOMWkIAE5HoGc1rUJAN1S4/3ZGBeo0oEzl/KxOqth9C/WwtMn/wwkJ4Do6HQ0bxRRoK1qhKQloI/WWEEmBezc9hZu5UxcDpHnWpR6PfkLFzJKcDE0f0QUbcq9FlikZQx+tu6NsMv2w7j289W8/3UbAZA10ImHAPbjo4pk5e6NjInkT39nsAjF5CABOR6A3MK+NkIm7dHiZAPOANXQ3YBTKYyoOdoZ0FMZAiig7UY8sLnWLZxP54d1ANjn78XlvNp3IZdHp4rBIBzwC5F3a0IC9FykNdzoJfZAL2wCMP6dsSlK/lI27wX7y3aACVj9E892B24nAtjgRHVGtZA87rVMOfHbUBECHd7JE8bPVMutavF4IYuTWBKzbItnNL5S65Py9py1uYFHruABCQg1wuYd4Yt10nPqxjOgM1kKuaLmCqGcPF14mDO08PIgFMWpHDJzCNCdVAHq5F3KhnPvL6Af/3Riw+g/8CbUXQmBRYnaG7/5vh5W4qVuDAdkKvntnZunsnRo2VCLC6kZyMnLQtBjKXTQqu2egy6tqmPNb8fBMIj8OXK7dxk88bovgivVxVgx7u/RytkZudjDWPmsphw22IrdSQ79onjSZgyph/+WjMJrVrXg0FvZGy9jEsl+dGzE/A8MgEJSEACcs2COUVJ/imYuQ1YGYDqUy5zT5Hx4wYy1vseLq16GxsXvYzImDDGYnOcm0zIv9xiQa24SHyx4CVMfOlBfLFyB//pp5lPoFW35jCevAirs30ZQC/ffJB/fHlUXyBUC/3RROgPnUNYo+p48K4u+Gr5doCxbRUthmbkcBNLBNvupy0HgLrxyDyWhKlf/sJdHYf17wJk5aBf9xbYuPM4zJeuXDXVkIKwMMXQonEN3NS2ATo1q4WbmFIICdYwsl/MFYKDn3wL2PK/3BR4BAMSkIBci2A+mbXPS9i4jHt6GJLTUa1eNXz5weNoVrsKXp+zBht2nUCPdg0w85UB5NzNA4PKCGO1oQwQIxk7T8vMw5wV2/H4iA8wbMJX/OeNXz6Phjc2hTGngJtUpICpiQ3HwZ3H8Mibi9C+QXWc2PQ+xo4fiFcnP4yDy9/E92t3473ZqyCPj4SFFjA1Kjw7tBd2H0vExZPJ0LLzIjIEM5du4sd74aFeiO3eBtFhwViybjcQouWsnPQImVgoLcAMpmxIhrLrm/XhMq7KNExRUABSMdvGZCySLtyyE2AL3PTsCUhAAhKQ8kShrNnFX8f6krVnpV8UFhYzUi7HkHu7YisD3lrVonHT7ROwg7Hrr1f/ha49WnO3wxkrt0Ofp4dSVdotu5h9d0+/TtAxZjx0yFSkkqmEHePA5gMIrRKJXp0ao/9NLZDBtjuTfBn5hiKeY4VrKYaycgbIe7cexlfr9yE4RIMGCbEI0anx6Q9b8d5Hy6CICIGMcrMoFBjYrzOeGdgdG3efxE8b9kGh00DF9s9mwB7ElEn/7i3R58ZmOH0hHdO+WAtFeDBXINx8dPYSRjxyK54d0hNrthzE+ElLuFeMgiszC1dI3do1ROLZVBhMxVDRwmyJ4rmbtXwxm/nHxKpg92e4BHX+efZZHXgTAhKQAJhzWeyMYZKNvCpjyMTOyc2vXaMEgIHk5r2nGJNVIDkzF22b1sTsBeu5i59SWxpUirML0P/WDoiJCMbXP26FploMVBTdyYD69LlUXGD7z12+DfuOJyM7z8CBXGquIUUiZ6B7JfUKNjImvpKB9Jp1e3D8VDJUDGxVaiWbmti8UC5m5OCHjfu5WcTAjpF2Ocd2LnacQ+fS8Ni9N6JO1WjM/m4LdjMFoY0J5zMPPdsvmimJ9Z+P5efv/+xsZF7OhS4qjAM2AX7O+XQMu68bHn2wO5b9uI1dP9i5SwE6JRQj/8Y/AmAekIAE5N8ys3zD2hBnP+gYC07PzMOf6/fjgac/xSnGnl8f1Rede7UBEi/wROQKBqgNWtQmlxMYzqTAcCkTBsbADdmMrOYWoE71aG6HbtClKQpNJgb6ZuiYgkjOzsPHHy7DZsbSL13J5V4ljnZ3MrvIWdNGhkJbOw6auChoqsdAGxcJBc/BYjOTUDKtTHbOXduPYsHSzbjIgFxLUaFsXw0D5cvHE/H1KhtxXvvnMYAiS9lvxcUWvrD6zjP3cL/11z9dhRM7jzOlE81t/TZbk4ySy0DJ/g7o3QYLZozhC77cNFNa3mbt9cAjGZCABOTfYObkZjfMNf0jdiyDKjoURYwd7z51ESPv7YrWjRNwxGjFq4/fgc7NauEJ9t2YwT25h4uRshQq5GjasAY6dG2OsGANVv1xCKeSMnCFAWcQ2ZwJpBkgKiNCoGRMXyHxISc4J5bPc6wwll3MFEAx/1vMXRTJ7GGm/WW2hFxXO4JdJ6XClWtUMBdbrioG2sbEjp/BlEs6O/+K3w9Cza6JwviL2Oyg5+0dMXPcAJy6kI6BL38BKzsGZ91CDAVGBDPls3jycGjZsT9asglnU66giAC+rBdPD9iqIO0IMPOABCQgnojMh7Jx77D2qrsbE08tPJ2CN98Yiolj+vHUtDc8+hEuMJAf//AteOL+m3g6WhJKYfvRN5uwdOPfOP73aZgu50JeIwYaXUkOFZk4JoG2hR2LvFJATNliW8wEO5aC/VUrgzhQc7MNA3IjO7aVQvhzDZwx88hQAtVQLRSMjaucpAogt8MidnyToQhqxsppQZPMMaRE/v5mHM/lcsdTn2Ddyh3Q1at2lZWTQtCfT8WDg3rgu2kjsXjNX3ho2HuQ1a+OYHYvlB6AFIyGXaeDt8tDwnRVaRIoGxeQgPy3xNt85k96AuSc+RLTjY/EWzNXYMBt7dGkTjzAQDVv1wm8ykD+1Q+XoV37hrixeR2cS83E6vX7eOi+koGnLiKUkXwr924hs4WR7WfNzCXU5yaP2IQqaFk3Hk3rVkWDGrGoEReBKpGh3M2QokBpgRMC+PP0hcjO0yOV7Z+Ulo0TF9JwlDHsg2cuIe/iZc6kwZi3IiqUKwICWfJ2IXMQeayQWihg29SuHoM54wdyIJ+/YjvW/bQDylpxJeYVcT5K6jWiv2328yW5QrLZBDF0CpjSEcNnbD83Kw+66DBYS9ICfA1bDpuNgUc0IAEJSGWBeR/Ycnfb2Ce53TFwK2KAJGNApWbslkwTjvnH6d+68GAeFj903Dzs/W4C1i94EfX6jIOeAZqK7bt3x1Hs3bAfYKxVFRtuyyluseUUNzGgK6aoyjwDVwpderbGbZ0ao3vb+mjbKIF7jPgiZEbZffQCNu8+iXVMwRxhMwJ9VgEQFQIVUwxk3pHJbPdEXjcXUrPw2uzV3Ax0PDmDZ15UONjsi1mfNGpeG7fe2AyHTiZjy1/HoIiPYiDPGHliBldEH7w1HN+u3Ynt245Ax+7LWhJk9D1rHVg7WylmFhojeSCpY0AC8l8RT23mNVlbz5rO/gUx2SYNaqBz58Y4yRhucVIG96e2qIMYkXXQFQzQgxiAJe07jWLGTvvf1BL33tIWKQygL2Vkcy8SbUwYlAwg5TJballaZCxMvgwL26Zum/p4flRffP7aELw0tBcvPlG7avTVDIi+SDC7ngaM4d/SuQmeuK8r+vdug2DG8M+m5yD3RBJMRSbIQ7QcsMm8Qjb7pBPJmPft71CHh0DG9s/MyWcKSNjB6drTsvDkw7egR4dGeO3TVdj3+0FYDYWwsNnB7fd3w4/TR6PvDc0QHxOOzYfPI+tKHlMUV++Fwv+7QuK37z/jmowbqnTZh6E0ZsCqUAXehIAE5DoXT23mFEHTQ/qFgfJ/N6uFw9++ipx8A75euxuLf9uLPeR+eDmHs2xZVCiPlhSJZnnekjgGlOd/eRf7GGN95K3FOHk+DRqNLWGVTPhnF13M5Ht06t0a44f2wV3dW/zjHWQsKsaitbvw4TebcHLHER4spCZvGNutMMVl4spLG6bjGGmfkBgoQMhiQcaG96Bk9xVeZxjvi5GP98Wrw3qjTrVo/PbXcbw0ayU3+4Sy346eTb0aVSqRT1l7yr+sXMEBPTJpNZSGS7AEBQfehIAE5P8IzCey9mZZYGCAx0Bo8sRhmDDytqvfUym2uSu247uNf+PQgTMAA32yRfPFRpUSzZkCiGcgv+HnXex7NbRRYZAxJKTpv4GUQFYeWvZsg4+evQe9OjS8Jjpr0brdmPDJT0hmikrOZgSacB23c9sB3G5l4Qufiem4o18n/PzJU/hw8UbsPHIBH429l3uwLPl1D6Ys+A0ZB84ClDcmVMvt+kqtCoVMOSiVZdwsB7H2rR+HnQG4FhEX10GTewpmZWjgTQhIQP5PwJxyiGxxPmNnwMWAulatOKyf+wxem70GzerGcw8Vu+sd2Ze/YMC+cssBxkhjkM9Y6++7T0CmL4SCMV2VKNlGroSmC+kIqxOHD8cNxMg7O19zHUbVjybO+wXvzFwJa64e6ppVbD7rkjUCSk1AAU/LPn0K9/VsjZMM2JPSsrB0wz7M+451Y1o2EBvBPWMUsK0nUKMcMBqG4dm5BgQxBYcS+zlNUWhacskvzFyuhrw4j4H5WgQV5cIScE0MSED+b8D8b9ZauT4KY9OnLmLpwpe4Mf2uW4eh26ChmPfRaCQlZ6Bn+xJm/fve07j7xc+Rk5MHjc5mGyf3QFIIPNnVQ72w4PWhiAzVXtMddyIpHYPGf4X96/ciiAE6hf7bvVEM+QYk1IjFqg8fx46D5/DJ8m04tvM4D4xSMEavorQFjgWqqQ+TMnB7345IY/1A9Ut1bOYiWRD9VjB03xUSY+Ka3NMczImhV1S1OiABCch/A8zfFCYWlAvmDIxrU1j7F2MxYfZqDLmjA75euQPLvliL6E5N8OKQnujTpQnueupTXLyQBl18lM2NjwE5gRj5hn8x7VGM7Nf5uurAcZ+txrSp33ETkq5KJAN0M097G8yYdTGbgeSeTQVCdVBGh0EpL+vlQ+sDlPbAdD4dQfGROLByIpJYf9w26F0oWX8Gla6oNAA2LxefhGzkqoJEDuaQBcEq8zkQOJy1aNJjLjQDTUCyYMtB4w+h48WJc1nL2JBs1axSWCv08vi0Cl1dzIh8ueaqsNWBLXZ3aEQf5jq5L0/GggqK612MBd1bjmj+ELq/KvZJn4uxSBX35e3xq7F2GbaAOl/Ggq6lyE32QmNhFGNh+YfgJFaMj1cz8IrAvBFs5d4qnIfzPCWMnb/++hC8PeZODH99IRbNW4egulVRnJUPZaEJihANChk40WIhmRB4b51JQXyjBKz9/Dm0qV/tutSIK7cdxv1jZsFcYIS2Zixk7N6o5B1FearVKl77wlpW/3EQNaRns9cqH7cPuBmLJj6EmHDbYuTdz32Gn77bAl2jGlL/cyqC3ZwsOb4z81OITF4lAoZ8ZubPs/ah+FwkQFSqIeimqHzeXX7qcnpoPxIAYZEAiQYl7rZtWdvv5fGpVi2VOPyMtSd8uE56d+wVtgpF38jFtZJCcjX9ZOwGh8X1/8zaZg/Ana730wrGgjzSbvHTWDzO2lwBfGYXY3EzXJhp3RBKFUIBdD+w9qAP1/kXa53EZ6N4h+xjQX91Lva7Alv9AbJO/CL6rjLAnchJkujDOkIBesZwKnBNpEFyy4VExv4zMZZ9KjEdw++6AYu+34IzF9K5j7aKPFq0jKkyBFPrNCB3bQqpp4jQdt1bYue3r6JOfOR1O71pXLMK7rm9A5b/fgDZjIkHRYVyeLTli3Gm+OQoYsqt6GwKwmvEYtGsJ/HumH7QsdnJa3PWYPL8X/Dec/dh5Y6jyMrI4SYc8SpHiwfpd5+mY3QQhRpKA7vWomxuQ/dRLrJ2WrwQ9YXyV0manRj8Blv5PF+EjrcQtpqqSofzyMVvU2DLQumt0vtMMDm6lwU+MMJz4n5p3OId+kUpAJviCNJEH6aKe4gTLzS9nJTA7jHx2yE3zpkixoKO39DFWNSDLSAt0Q+P/xeir4KcjMViMRZbfZglfcxaXdaoyvp3gqF7I2dEvxDQJDgZi6Pi93QxFnZ2TLOO2rAV3BnK2hhxDX/7GUZojO8Q/ZgilI/fmHk3eJrFT26znX/y4Sh07dAIrXu/AnW1aChEaTUbI5XxWppGtl2POzvj17nPQimX478gyZdz0XXIFFw4mggtVSaSFHqmmYu5yMxTFYCSiDEwHzjiVnz+yoMIZQru2Pk0PDB+Ho5sO8JdOt+b8yx639AUbQdPBVlBNCXpgWl63FQMuHditcCsCmdAfgUxZxfD5t2iK2vH904mwJbX3pmQz/woH49PlZpcld67VSgMX6QXaxsk/36GtVl+6JdFsKVpsMsRMctyJpGinyahdGCfp+sm0hmTo8xn7VEf74nSN69w8dudsBUy90VaO8yu6LnyRzK6uWJGIVW6dV1sGyb6abIDe6f7vteP8LGbtfbi817JZ/fht5zf3ri6EUV5Got4JsNii8V1IWUCgyoRGDfrJySwv1tXTkQVxlL1+YbShqgzKejRrxM2fTH2PwPkJDViwrBj6auo26wWDOdSeXSsXQyGIlSLi0DtGtGo1qgG1v/4Bpa+NYynDFi++QB2HbmAI+THTiaoOvE4xPYnLxmqgWottjjaRMf5dKFMOyhMeTCpYpAb3xsySzFrJn91w2eC3TiTgYLF+cpgnMkmPwA5ycMO/37IT/3imGvHWM62tL4wVSgnx/6b7cE5PxFTd1djUdPHe3rSxfc7/QDkzvp+CLxPQSKVbxz+XZ7ZJFfMDno6fH+PmLX5Q/o4gHc7QSr8AuZE93vb/0G5SBrUrYqmLerAlJYFPRVZoFS1lHxKkouETAEUsp9/9hK27jrBfcaTEtMhF1GNBG5G9lu7m1ri18/H4r8o1Zjy2rjwJUTUiIE+OYMpQsVV28Y59u+Xh/bGxZ8no3fHRjjM+qLtQ9NwX88XkccU5W/L3uTl7hQM0PceT0QXxvKvUN6WkDKpCkaXwyTclqDiPBREtoI+qhXkxQZ/dcEVlKQgoOmo3oHlDPXh2D3FdFcvpsVSOekPfczafQ7fUUqF7n449kXH7ndjH1JQSxy+o2l+JzfPWSTMC/axkCoQnY+KqqvACGIBJxx+O+CH/gpBWRt5HSfj442ch/uL0lIFNcfhOzKB9agEpQVv3hNXD9SYUv/KNyJYq8bOBS/i0OmLPMpz55Hz2HMsCYaLl1FMCa+CNZAxELKazIhsUhOL1u/Drxv3Q8bAiUd/MmAvSMpAPGOlP895hnt2uBLyBjmXkolcpiwU8mvHbY4n3WIKKyYiBAmMZbuS2nGRWDt3LG4YPAUFl7OhiwmHVq2CPjULM5duxpj7u2Ep65vBw94HSNE1TMD3m//GhgHdcVOHhvhj+1EcPZEMBfmd69SwmHkVUemMSCmmib4xdKsZcouRAXprqPPOcIZulfuD+Fz1lPhGKJ07Jb89wtr7Xh53pMRkQTbxhZLfLvvhugfDtihJNuxQybSa0jxv8fHYRYIBejoVXSOuSyr3CnBxRy5LxoJs5f0cTFbTvAA2SMwUC4TSWSr5rcAPY3G/UK7pYjaqljw/3/l4bFJAZi9Y/hpBpByJ72YfriUBJfUgaKxiJPdPJiW315ic3UxbhwGHNjYMu7ccwOh3lmDuhMF4/5nqV3/buPsE1mw7gi37TmP/wbOoEh2G3t2aY/m6XTAy1q4L1XEgKiA/cgZMyz4ejbiIEJcXtPTXPZg8/1eev5yCbxTXkBnGyhM3WnhdzzaNEjDlyTt5fhhn0qV5LcybPByPPvUJjDoNT3OrqxqF49uP8IjQ2rER3IsFTWtxzx5jsQUdGLgfOZsCDZWzs+O2xcozRhYzJakqnYOGHuop8MnFTMYZOdnPTdqqtmhQuV+iQYvE3+OwrbtIwbwJbLbWlR4ekxbz7PZispnXdvi90A/XPVJiyiEbaUvJi/Ua/BS05aGccfJdfQ+By85Gtzm823WFucXTdMt1JABE6yCxHpiQ3JVHJErjSWGKgDA9kS3dlwVIK7xz/XS2TtXKx/scKBT8OKFg3pfMTOi3D3wxszxa9pWXQVUtGp/PWIlXptvWO6Z/+zsOnLqIXh0a4eOx92Lf1y8jc+tH2L1kPPIZozZmknlAy33JKd0rMnMxY/wg3NjStXVg3OzVGDxkKo7uOg5Toe0ZpMpC10qzWGyeV0Z9If78ZTduvnsivlq7y+X9UOrbUY/3hYUpJqtMaIOEWLw47XvUrcn+vjuCh/HHxoZj9/7TOMiUIUWBysVshEfXsr6kOUAjth/P91LCzqvARYUnT59rqywIFoWWL4z6WejSlzthat4svD0uURB7YPP48KcQw2ogGP9q1rY7mIcG+nh8b6eYTiqdu3SjK29/8v6hKuOZLvrVExkhsOO0GIt4x8m1j31FhPImoch+gs0bRirD/DAW3oyH3sm9+eoKZicQNMv8wRdTiyOYR8HJajmZF8jNTlEnDu+9/wO+WbebF0dufeNYVLt1PB5/dykP1Y8K0yGDMfBVv+2FLCaM70d2ctOFNNx9fzc8M9i1eWntjqOYNnkJBztdzThoGYvXqpU89/c11eiaKECoQXWe9vbxV7/CmZRMl/c169WBaN6liS0wioG0jrF0KjX30sfL8dbofnh+SA8UUrEMOm5kCI+ILWZs3JBTAP2ZFK4Ee/Zqg5eG96HqGjwBmR8f6quAbtLGCROL1Z8AGS3+OuaVIXbY3sPjjBCfv5AwF3/KwxKzAcmPDr8Pwb8jzoA7yQslEiX+fuXwO3mt9fTgeFoJa7Z7Ffk7uY/dhjxf/P3Z4XcKnvs3ssNFO8FMX1xt7xAzTjKZkevpBdg8WaSsv4+3YE62OKcO3xRWrtYwJVQlHEOfmIl6CVWw7qeJuPT7AXzBgOmeh95DzbvexKDXFvCoTgI+ziwv5yK8djxmThhc7oXMX/YHf+x0YcGlCjxcq0KBPNr4KBSnXsHCH7e63I68daaPG8gTjBHLJnaurV0FG3ceR6sHJvOCFXl5Bl5z1GgohJ4pvqILqQhnbP0RBvYHN76HJW8Nw+Bb26MOU3SUN14itBB2gz/ux6LQ0Qq1v7spSDIVd8VI3JFHxXN5WQIg/lxMIbPBA8IkYY+wJT/sI5Jt2nkIev4SZ+O714vjyCVjYfVhLAhoqwuWuqASxiIUJR5Ldjv8PpR2k64mAP2fljZOvtvlBwIxX/Kd43rAcG/BfICjjdhMqWgZI6RUsHq90bZgx4C9SY8XUadWHD768gXOOOU1YpF0LhVnTl/kHi0E/mZaLczK52XiyFWxPDlF6W5DddcFkJcgILtWZRCOUaGJcqRXx0Z4fGgvgBg8pfhl3aIJ1eJ0YjpfFwi6kgvD6RReWPq2e7ti6bwXkPHrFMx/fQha1K+G79bvw6pthzHoNkZm9YWOrqG+Tv8hNxth0sTApI5mnwsro6d2OWFXQ8VLWZHQYu8oCSvPqYTrGyI5fnY5L9awf+Epc5wRZMC3lA6nUNZDhhSZu95RoyUMP7US7vc+wbrJJHRO8v1Sb0HOj/KIw79znZhG3JVaTgiEfUZY7ECw3XIhlYJ5Y0h8G7l5pLAIRRnZMGcXwCps2FR8IaxeNW4WGPzSFxj7UC8MH9UXlvOp3EygJiBnCoCCZAovZaLljU3x3NCKXSYtZCe+HvM9sX6yuOFx8xpj2WF14qFnzJpoEQfk4mJ079AIzz57L6a8+wiyf38f6z4ejYG3tENKRg5emLEC1e98AwMHvIM331iE9k1rIZKBu95YJD00LS76Vl3CauF2c+epTvwmnzn8O9jNF3KAABozKqNQRwnzJ/na4ftlDv++X7BS/9i2Khby2nGMwKZcSVk+nnuekxmUO4rqXgk7nVtJYzHCwdxllxUO930T3HfR9IfMEbMzqUyE98F7QyRjISUQ5Na7xsGs5VagmNQ94jb7dIkYOeUMub9/F0x9+i5cZuyaamdSQQWqr0mBLlJZ8PZw5DPm/uOK7dDEhnOgMlGgCzvOqyNuc48dkteKFdelyN0Ac5qZjB3cE2+9sxRW8lbhGsyK40wJLn9vJC+RZ2AK8+VZK9G4QQ0c3HoIM95l2FWnARUTRXTdePS5oSlqsONkpWVxZSqkNmx+0Ot9ugmZHNYgDWCstJnRz4Khd3RgOu+jfNe4kZKX+3wlXNfdog93oGwI9THW1grbpl0B0Yv1gR/O6+xp1woWRotLbMpbxmvlDSdK0RvZLO73BgemS95R5U3NnpSw5EOVMBYElt0EI3ecyZG76E8oHdRFCmhnJT2vFNyRIN6tF2FLRyEV6quPfTi+3ZS00MlvS8RzKZ3FTvMEzK8a2vksXqPiUYkHT13EPTfbvG+SGcD/efAc97M2MNZ+JVePxNQrPByd3PWo6ATPWkNgnpqJLjc248WbA2KTpwf3wGfL/kA6Y91a1oeaqFCcOnweyzbsQ2aBEU+9+y2w9wjufLA3Ppw+BhvPXsLhE8m4oWcbrPjwcYSw/s2mGqhlI3B7+wLmMquZJ98q0laHOvdMZXbBPAcwbyDYrqvCG11RErDzZSVd08MSs4Ez+U4C5vYXyx9gTrlGzgjwpEYLFuTiF+9kWwppfxZlvTp8HQspmNcW035XbooUrGVfM5hdSWMxzMXMQToWDzuYhyY4MFtvTR7EiI2SsaDFzqooay8gJUZpEjb4cL7+or//gvMcLKsF47ebIZsLsv2LO2AeJaYtV0UXrsPF5Mu494HJqMdA+Zt3H0HzulXx/jebsHYOmwWQV0ZkMM8xQl4W8tgIXr+Te1yQLdlswcj7ugYQXCLRDMCH39kF73+4jJfS4/WhdWp8vGQTslhfI4M9k3US8PiT/dGgahR3+ezYrDYvGs1p2dyfkXQiCerYMusPvXy9Nis5oFqKOLBXorlliWCX1R1MHN9WwF42wIvEQ24IKRPK5KiH60CUFQK87b7Urdx5sdwQFcq3U28QZhYCj78rcSxqOYzF4gpmSBQgtK0Srke68LnExTbU50eEIoQYk4EoG5npqRAO1inn9y1iZkhjsdcP9/pIBUrLKEx8zzjsU+4zZ7eZ3wgHVy/KB6IO1ULdpCbOHDqHzrdNwOtfrMXPH43Cjl2zkNCxIV/cpJJnwQ2qQ0OpW4ttLq1F7PtazWrhwVvaBhDckXr06wRZXCT0+kLuuqlmQH34VAou0WJxUTFGPXIr+t3UAk9M/RZ9RnyE8bNX8yCqHqNnYNKMFVAyJaBQlAkPaONkGughOzehWB1pK1ZhNVfW7ec7mVbSrKKDk20bSphaZdnK7X68FCCU52KbPCfn98fiG4FSjAAkym3hmE+BBuHrSgJyO2A4gsnNAgscpaZkLCprhnS/MDPNQ+mFT2czCmdj6IucFyyc2PgYF8/CAj8BeV1hQrlUQV9+4sCoaL2injvMvJ1TtsbAhif6rRHLfaE/nvQNFi/fjpWznkTi2ncwad4v2LznJPfI2Lb7BLShOtvCXk4BHujVBiE6TeUMOztHod4IS46ee9eoI0N4pKi1gqx/Mu7DbeHKBoZCyJgC0oQF88LLFfJQdnx+Tto3SMFBlWp1eirNmeK7vUsTrP15JxnSeTKtYosZRWlZSGhdD3NeH8LTCH/GZkC0eDH7szVUh46bvVSx4Qhi55RUH5IqZYpWPOF1l1pMMGnieOEKmbnQHwUrXAmZM8ah9OI7sY7dDtvZg1kIzH6ohOug8w+RKBR6ySIdXiCaomQ5UZT3i+n9WR/OT9N5e4DCdNjWE7ZJpvUU6UieDfeh8oTA5GUHIkf9vt2JKYoWaU7B91D6ihRrU8G0Y5yMBXky1XDY70ZhLtrhw7lJcdo9c+aIWeBOlDgWkKlvHWu3++E+7T7a5MXwhZNnjoTWkCxCqYRJsJqe17crAvNy7SHkLqhmoGltWgsZDHRu7PUy7hzWG6vefxwj77oBjR+YdNWOaywyscsLwd09W/sfwxkjLcw3wMyuIZgBYdvebZBxOQfHD56DMiIESo3SGdDZxF6aLl+PJh0ao37NKvhr1wlkpF7hYfYwO1/4I6+cYjZLKUpMgy4uAl3u6IisnHzs230SFjJ/eJE75u4erTmYW1i/0voCX0A1mvDSw7Z6AaPeWswVoq5uVWlhCjEWLtXOTb6BnsyWOfGqmaXShKIGl6K0yx094G/BtsgFwZBGVrJ99h4J0+kJz3zIg8Q1T/bh/I5MYIdg/Isc2BgtfL1SSX1wScyUpNkPB4mxsCsqjcT88TkqpzCD1Ie/i2ieyEM+grmj/C2Ui9Rl8DbBlp/yBcIkz30teObfD7HvJFc2UHtC+XoV21TBAU/H2GExY6WrF6xH10tX0KZNA+QyQNSSHZcSUWUXoEWrerixdT2/9SwxaoKYwgtp3Itj1DP34A0GfNViw/nvr1NBh+krIAsKLZPLhVt/yVOEsjeymcMnH43BmLtt6z6ZDDBvHj0Dh/8+y+4rrGxZTlIeeUx5pGSi+11d8NUbD6FONVsg3azvtuCZSYttawYeyi03NEUoU0Z5eXpoKeUBf7VluLl9Qxw8kYTNVFeUzYasZo/em0a+dbJcpMIt5p8rWeY4gHm4eCE/kDB1+i4Rzlf7/SEPi79viXMklLMtReaRd8nTDkxysp+vicwqxIKel3z3sgDWuZU4FlIwJwZO7oGvSUxKxIavlGPj9dn6KP5SdacZTti3VC4KRSplqLQQSkmpLvvxmogYkcfKeMl3T4qx+MjLY9LCJ7mA7xfPuE70tzPJEYD/nVCodtPjvSgbnXx1qkmLCbXdvRpihrwuJQOblPQcrN7MlFiItkRZ5BvRs1Mjv/UoVeUpNBSi8GQymrRriP1rJmPOSw9cBXKSSaP7oUePVihKz3G0xsBC9UlPp6Bmwxo4umbSVSDn9C88GB88ywiaUsEwubSdWC6YvJkx/0lTRuD3Oc9eBXKSpwd0R98+7XgRak+lFpsJcGWXY0tZwotaM7WzftdxLF6zk3elysGEw93SGbjz4hbOpTV8CHEnVk4Jt4rVUXwhtJKFzAm/Onw3QvJ5pMQMUBkXQy8FpRQgG/57wkb7RzntggAZq4PyvLcSro2UxkYngNurksaCqh05FpiQrgmMkbDyrEo4P5kR7EFhHwuwLG8szgizlDRgiWZylRER+irKukhSsY87fSQQ9CxRmuA/y7lP+p1KLa4pZ2zKgHmCs7kA2Z8Li4q5icHR7EC1LUGeLre2R6M68WRb4Y8592IJVqFbq7r+AXKFAvr0bJjZDOCZVwbg6LLX0dpFndCmdateXYC9qngYAhoZkLfu0gR///gGT1blKHWrxyA4IgTmouJSjLzgci6PtlzAQPy1h52XS2xF+Vkoq6EXjh+8j5gCuRrNGarFotV/YcP2I7w/jQWF3E5Pv9N9UPpcU3oWLLkGnnbYzAOzSjFoV25tboJ5Ea8HWqyOhsxc6WBO4ugvTdkU24rWSID4gko6tzTiU+/mPmc8ebF8lEEom6GR2Fj9SjqfI+MmZky+7rQO00ooscpahKb1B7Vgwufd3CfPCTt9qBKflQsO332PEo8ad4VMFXeL580Tc6hj5CspkuauwLyJo2nBVGSCkQGohf01Uah5WjYHFDnlF2Fstfj0JTz76kBMePwOnqoWAlRMRhOvUN+yQQ0fzSqcrkJ/7hJParXi21cxY2z5JMhgdAAgdk0Gdp0tb2iK7d+MR2Sw88VYsltbJGhMAKmnRc58A77+5EkMv72Dy3OSnz1FT3pjYW7dOIHPaIoE01azzweOXEBEVCgmTH4YnRjYG9iMhNi4MTEdnTo1wabvX0PRoTl4e8JgFDFlU1TWxNPY+15nisMqKg7JfLaZWx3+OhMKAHEMPKGp/QTxmUwfSZXwcgZJZgGeLuYtcTJtbuljHzmTDJSN+gsXfaauhD4h9rnP4buxKCnR9hXK9zDxxY/VPgtb7ONYUDTozX7oe2fmDseUGRoxm/EkwZh94XOBBwQCgp2fccHwy4B5KROL0VAEE2tvvvIg9H/NxJnf30ef3m1gvJCGglO2YilfLXoR0xm4rttxBOdOJEFpB0oGgI1rx6FBzVgfgFzGc7oYTl5E/RZ1cGTN27i7a/MK98vkJgsxRmQjP5OC+gwQf5v3PHQq1znoC9i98tSybB8O5Hl6XoNz5rSRGHpbh3LPuedYIg+U8gbN2zZKQFhcpK2wB5PC7HzUrh2P1bOeQsMasbw4B11TEQPy2+7oiL++fhk92jbA7iOJeHFoLzw36g6e5Mvh3Am+4K9VphBh/T77mMskz1d5Mt/h3/dITBcVucAFuThnRXKXYJ6kSDyNHvzJiYIZWQkAQkK+zc84TkDheV4Wez8pPByLOwVrdmcsHMdZ6ea1USBSF2Ey+dXD+9rhZPxG+EmZOgp5tzimCm4AF7ZrF++DHYBXeHifxU7GnGaEkc4GoUopppqWhaeH9cHEx/vydK91q0bjt9lP464HuqMWA5PMbR/j4ds74sfNBzBkHJudqVVQBonnxGTmZgvvyaEMJsZUCxmQ97nnRhxeMRF14qPc2pVAmTNKDuSXkNC0FrZ+Mw5x4eVnytQTmLIWpAyCgWqVMhCd8u4IbhMvTw6dTmFgzmZf4d5l4oyPCUPNqpE2ExVHcxM6taiN3/edxPAnZiCVXYeVAXx8g+r47gPbc/TEtO9xY6uR6DLgHXTr0AgR9aqisLCUDd2HHN+UAMwCuaXQjfe+QrEzFm0F29GCn7NFK4qAqygbnc7FOSsS+2KbN54/Bif70YvlTl1TuYPCcQfwZjkBWZoNeBKBqnHRX45CMyFneUY2CtuuO+ewi7uzh+ES9ulNhjdn+b+burGfwkEBufPAk0nOMTipD9xLr0AEgmzPiSi7HuKNqYVA9lFnD9hVACAbOdg0f8SdnfH12l2QtX0Cshaj0OepTzDt6f44v+otXgLu7le+xP0Pvcfd6XQRwSX+3WYzGtas4h2Ok3uevhCms5fw8JN3cgWi9sCP20rminwjDMeTUKtJTQbkryA+suL1QAuBeW4BNydZL17GxMkPY9zwilMIr9txFLh0hft/eyv1GAO/CuasX1PYjCCdFnGpbmhmLp8hTH3pAYTp1Fi15SA+o8jb5vW5OaaIKZ6WDOgthlLvgJfFkq08nF9VkAh1/jmYg3TwUeyr0xVlRcx0Mb3+1I1zONryot3Yp7kAQzvb8kYcX0ZawBvjxn6RDmAe4wQEnQm5Be5x+I4WSUe7eb3V3Jy15cN5SgN3bOWOx45z87rsitXbVBS/OWHAL7r5fEpfXC3cK/gxBmVdIGkcXq5gP3vE51Yvp72HnJgkn3C4Bw7mV6mvhYFxg/rVcOhUMkYPY2B9MhnI02PDp0uwbOUObD2RjOCGI/DTfDYjig1HWJWI0nNbBuoJ8ZFejUoBBQBdzMRrbw/HV296vpZxx80tObNv0aM1/lo6HrViI9zar3WzWqhJ1Y8KjPh4+hi8OdK9uIAfN+zzCchJqtM1ioXXoGANtjIFkVAtGp9MGwl1rTh8MP0JbrM3MkX13LTvbPb5YDXemTAI/W5uhfMipa6HgOaElJPStECXddC2+OlbXnPK8tdGYscMr2B7xyn8Vjen3I42MHfyukvd2a54eX/O8h2Tbbmi8mFtnQBeGzfORx4IVNg41+F7YoQV+TxTiLrdpt/KDZAl4JaWfNvvplmnm8O/b3SDnb8lAVBv8y4bXADnLRXs197JWLibe2Sgk2dnWjmA3l9CIHxxncx0MraTHcG8ZHpqZtNsBshVYsIx9Pn7cPujt6Njj1YI7tYF8fWqYcH8XziLZZQXkSEa9OjYiOsZYuZm8mRRKRERovX4KmkhLzevAC9PH41Jo/oi7Uoe3l+8AftPul/E49kBN+P4zpnYPu95xEeHub0f5T35c/4LOLHtYzw38Ga39tmw8zh27T4JRUy4L6CHqDAtNwtR/6koEyVj6a9MX45R93WFcfvHeGFITxgY2N/+xCycY2wccVGowZRoNlOwAyZ8heS0bL5w6oQReyRUmEKTe5qx8vOcoftgM6dpmdQzghZPZlawzxGH6fIXbpyHFIDjYi/9e4aL7YkFU83Re5xM8T2VJ1x8vwbO0xKQkM1uqpPvyYTS0Y1z0uLjQy7MMN/DeUEZImkLJKBK7GZ6BedJROk0wO74tn+Ksml6ial/4mL7YHFd0rWGQV6Ohav1CrJl3+riN7LTOysoPtdNQKc1E2eVdqYJc5HUznyTg4nkfpTvQ+9KyI3WGTi9BFtKZBsn03Ydm2ln5wZahKtbFQeXjEeoC+8PWmhMzcxDzbhIDriTPvgBGvaZUt6a2dT/1y/H4pbOTTxTOeyYlJ2xR/uG2M/+3jpmJjI27kX9vl1wcs2kay7N+UMTFmDxwt94hKY+MR33D7oZP0zxvKzl9KWbMfa1BVDHR3EzEy146hnbrpZQBQ/c2Rl5BiNW/7YXGRcyoKkRw0P/KXVCUbotSZyGKVXyUZekMfgTXlQeIgCPTF4Dbc4xFKuivAHzhXAvH/ZEwcgchR5USsuaLGyLziKxXnEBiK7kYXFdVDO0vMCHg7BF95VXrPkd2HyO3RV6aSn8+6QwJ7jzCOeIqTSxOFf+3BNQfqDSGHG+19043xQX90QKaZdgkTVcsOYnywFrVwrwM3HcDhUoExqLY+Vs8xxsQTvuwsKTwpRHpqr6HowFjd3tThixXV6G67S0SeIlqlmB+ezLCmaey8SswZ01iF200l3iFWAyo3GdeHzzy278dfg8alWNRnRYMGIjg6FhrDuBgXa9hBg0q2tzZ75EvtiMOZIHCnfvC5Jzm7qnQsE7BOQrtx3GPY/P4HlT0Ko+rugLkZ2rR2SYDteKUMrfFb8fYPo3vMJcMBUJLTCTC6XVVq6Cm6lUUaFIycjGjA+XcR92GWPiGtbnNGOysH8rqI5o1SgUM1Dnof2lLSJe2kfYseVq2DLxeHVPOeJFPSQ+2wvmWsQ1EVshe7Url6zfYQuh3uQCyO1T6iNi6n9ZXKjMwRxhP1dbCQgdFYCe5HBdQUJxKFGx141evNwHxLnNTvYxC9bZRVybQjDqfUJJ6Z2Mj0XYa+3pVrMqGIB3xD71hdnFXmU+UrDjInGenaKvsh3uWS4Zi3wX59gtgG9XOeaPQtEXh4XZyeLQH/axiBbmHbvp5rTY/pzExm3fNkHM5CoaCzrWCTGu6bB5e8id9KtGAKJJjDUpilPir76cfeia41Gx++B7khlhjmQsyCzQQNzTesm4W8U5osXzaarwpbQpEvuz6+r5oe8oCC6/tHtXqJbnLH93+gokHU+y2YRFaTTyWoE6yPaZAcvwu26AvrCIFzW+em6ZvEw4vbvy+U9/YtTTn3Dfa13tOOjPpaJTtxbXFJCTLN/0NwqoqlK9ajYkoZJ6uXqvjsWzH0rgyGS2ID4ihM9U9Pb88MXFMJLfOy0QU9+KjIk0gmrW9w4KxctJjAxFITWhyznibbc844eu7VDB7zPdMNk4E39Eab4jmqfSrRIewSlubDPVx3PcUIFS+RLeZU8c7If7nwPvUt72roSxeK8SoWYPyq6zlCulwFynU+PkmUt8FHVNa15N6sRt4mbWrBbODimL36Lvt0AdEQxtFVtOFhuztNhs517Ih5+t5sfQsePRQiwpkT4dG+FakzVbD3PPEzKLUCZJWiBuVN+7SmIUxSl9ZUxspjPgge4I0amwcsshblIppAAuNvsxir9UjcicmYeb+7RFToEBew6c5fldJNrcY5GbDSgMrokiTRxUxjSYg3yym3srxQjItSKmQBdcfxIkfYkIvBUiwEaanY/MKEFBrFGUICX4YwwxMiwYGgb+l7LyeBk5st2aiy0wFnr3HKjIjTBYzZNLGfWF0FaLQf/uLa+pzkq8dAV7j17g7puGPAMsiekYNX4QPhjrHfkjYCalJYOwe7P7rhoThueH9MSbj91RZvsik5kDOOXGyWSzgV5jZnJTjK+ASFGfZCs3RDSHKiUZ1239voAE5P8czMlG4FZkjowH9ZhhOXoefZ++GyEMgGfPXcu9WxQKBuZGWyk5r9ihqAHKc5WkZ6P/oB6o56XPemXJuZTLyD6XZivizGYnb059FBMfve3q7EXmYRg8j1otNtsSghEoh+l4H2/dfwankzMQxf5N3jbhjHmHh7ImPquCFLick88AvYDnVpeId53PlInClAdDWCNos48wdp76b7HzgAQkID6AeV6FrzrPPiiHIe0KkKPHbSPvwMJ3HsEXK7dzZklAxm3lRSZk5Rt8uqAiSpalDsKQOzpcc53VqUUdtOneAvsPnMWiaSPx0O0dsGnPSaz64yCmP3+/x8e7kmvg7qC2BWQLqtSIwa87juKliV/DTKxdo7QFEJGdnGzmQUFQa1Qc4O9hs5aq0WE4rS+1RpXj7b1RpSGLMgSGqJaMnVNacQtwzfkRBSQgASkPzMsNnuA5vRlgmBPTEdk4AV/OfQ73CvMHD6EXRZxlAvWTU33IkklpXi/nomW7hrjz5lZu7XL4zCVMWfAbBt3aDv3cyOEilZnfbcHZi5cxaXRfXpS6IiGPnq2fP8eTXxFDPng2Fb3ufRtduzbz6nYvUs1PYdYKoiRmrD//YKwcUSFQkZcLN6nbsjLSX2LvlA44Izsfi1b9CaVO7eg9lOlL58uLC2AIbQCt5iCUhRmwKLSBNyQgAbmOwDzVORuXoZgBSNGFdP7vEc/eg7kvP8hm9XIcP5+GoW8sxN4jF2xFnO3CWOTJxHQfLocM8kYM6OPeIu6ek8no+ciHyNtxAH9sPYQ+m96D2k1vmlHTvsfnU78FsvNQOy4Szw1xr9BMsPDe2bD3JG5/9GMe0h9f17so+jPJGVejSEkZFpvNfKFZFSTWpeVlZ0jF7HcZ24fSDVsKi9h4KKQeLZe87npyfQzS8cChoKIrsMpVgbcjIAG5zsA8wxkbN+YUwJKSiXo3NsP3Ux5F20a2wKVFv+zB8Ec+4C6KimrRtnzbdjBRKjjT9VoY61RVjcY9bpSc230iGTcPnmIrBdeuKbIYW87OykecG9GfI99ejHmzfoKC3RPNOC5c8ozQfrV2F0Y8M9tm/qAMkWbPCyCnZuYikWYxatVV5UlJxuT2HOZOfNgpmyR5HBWwPqaVTh1TQtbSOdzTvMZyhRpyUx5C07bwBVFLECmtgM08IAG5XoS433lHINczoKH85W9PfRSnl7/JgXz8p6vw6ORvkEz5QBiQ6+rEsT9yziavSoiWs/ZTiRnecHJeeadjq7poUgHTPcoAuMewadBn5UFXK467SoYEa6B2I2Bp9LtLMe+Tn6CsV5XhqJLT3SCV+4FOE+etw4jHGSPXqsqtHVqR7DuehFwG5kEa27kp6IqyT5opwlMsijoKmbviIkLw5ksPoEOHRtDnlVmfSPQSynlhCl3OUaj0FxmQhwSAPCABuQ7B/Kj0C/3lXDRrVhsp66fi9Uds6Q1GTvkWU8fNw8pvt/BybVHRodAzwDZS8QRJJSIqqKxPz8LBU8lewImVM/Ne7RuWu11iRg76DH8fBQwIdTWrwErKhAFqCNmPKwDl5z/8EXOnr4CCKQslA34qTEHeIOHBFdvLyV593ytf4q1XF0AeHwUdmwFYzd7Xtt1PQVn5BltOFiZGBswDbmnHi1YUn7wI/bk0GJhSJf9y+1mC2DWfOHwOt3Vugseo/F1mjmOVoxPeADnZxoMKM6DNOsyAPDgA5AEJyHVqZimNvAwwyFd86sL13Oe5WkwE7uveEs892B25BQaerzx17L1Ysm4PCoxFPEfL9oNneRAN+T+bCoqw9cBZ3NerjUcXwpWCToNGtVy7I17O1aMnA/KUMymlK9cTmGsJzF0XoZgwezU+/uB7KGrHcQZPfvQ8BQED05iI8lPlHj57CfeMnYvTu45BxRh9kFLhE5CTbGN9RGYpqwjTJ0U25LYO6N2xERas2Yn17Fy7jiXhNDt3YVq2LRKXlBWb/VxhM5iVlFJAo5IyeJoOeWEzl3ETS2jqZigLL3ubmyUgAQnINQDmR4SppTZ9ERyqxYWUy5gxc6Wt8nx4MGLrxqNT45po3ySBp7glr5HhfTtx17hNu0+g16MfQc6AmOcfD9Fg007PCSL30WYsu8DovP7kmUtX0Ovh93HhaCJ09aqWBlMyDbH9qNixWlkW0F/4eDk+ev8HyGvEQq1VXQ2IomAdAklDoeual5/8uA1Pv/YVA9siaBomQG61lAqo8kYusHvZ/veZq4UtChlDr1a/Gq/SRPJwv068kVAGSarotHnPKfy8/QiqVwlHIRuX7eT1ElaqMAblNinw9Fr4omfeOWjyTnqbMdGey4Ls9YVitkeDQ4sBdEO0iCJdFY8Vjba3d7xGfEdmovwKzkfPKS0Z5Ijnl85Znn89LaJUE8rOfr5IcX2UI8Rcwcy1ljhHnuTeaEGBtB7lzDCUsy/lGzGiJBeIFSUFYfRliJRN6or7uyKsj8Q0lBWY0DTiOrMlfaEW9w7JoJrE9RaLY+fDvUAzOk5VMZZFkuPb3Z2ofzIr6EtvhMbNnlpgO1w4a1QgNM6U8CpX3Lt9DINF356voA+CxHZWcSwtSiLnjeKds/evPS+6TBxTL/q8or4OFfcqzTVjEc8pXecZlC5sHi7eLfv2NP5hQWKjM3YwtzCQVDIGqBTFj4vYvzMYM1xz5hLWLNtqc6mI0KF6rTj0btcAt3VpinoMiM6cT+NMUx4RjENHznOwubFNPfe1isIWNLTy94MYeVfpxH8r/jiEgc/PQVFmHrSOQE53zhTIqVMXGeCd5Ndz1WTEAH7A+PlYs3QzgmpWgYpymUjSDfCCGAz8l28+gLGDS3uznL2YiUcmfYM/Vu3gSbX4YiM7rz846287jiIvKR1qe1Umxs5bsj587J0l2LLvNG5m/dq1VV3cyu6lXeMEBuydebMHJn30zSbknE+FplacjyYWSn+r4UUp5EV5KNbG8ZQMHgp13HzxIBeIF1slHmp6tp5H6QIHVI5spngA7QBJDzPVJKSCt3srOB9lqntQvEhm0aj48D4X29MUcYV4MQiMIsTLSDnT761AEdBLSClebxdAkCvuM0woArJDnnLVtbClA+4lrjVXHC9U3DtVC3rJyX6UFXGQ2F4pzkcpXcsLZCCgpXwYDcQY2BVMgbgO+72EoXSA4L1wr4wZuZctF32YI8ZVLY5pTzoWJsaQClzMdaGo3JV4cc83iOu3Jy6j7z6Ercjyy3AvSI7Gm1LTNhGAWiAB8r/E+JQH5vRsSYtgpErOW0Xce65E6aYJAA9G6QLr/cUYORNKnLZR9G+ueF7sSoGSmd0n+lY6Hj+J363imdpn1zBbxU2VVWsEsjq1rdnVOwO1i4kZWMgY+F7GzDXkoy2m+2S31mdfxsrNf3sE5jY9HI2ff9mDgZp5eHH4Ldy74+PvtuCHxRv5+bUEXk48R8jXWq8vxNBx8/DeSw/ihuZ1sPXgWbw1ayUuHkuEmgGlgvttlwUqSt+7jSmLW8bMxPjH7oCMAebSjfsxb8kmngNFVbcqVzS+mlWkQn1jUyZyW6bEMB32s+vMycrnNVjXrfoT637YiglhWkSy2UT7Rgno1sYG7h2b1sLfJ5J40i2ZrBSR/sOba+Gh/GqmqBios5uEF4FClCec0r1SMeZXJN8TwD/nwChIvoEtfzmlwh0rvqPPU51s60yGCwBaiJJKPfS5PZxn+dsmWCulTR0pwOgB2CrGVAQGZgGiBK5fSJjop+JeK5oJ0b6jxL3Zr5UY5gC4DtajZFRUYNlegYnSx35dwXnOC6VFKXDfF0BCAPSQmDkpxMBqBOBTitzGcL/M4DYxY5jI2rPiu8XiODXFU1hP9Mlroj0Ez4s0Q1zfMXHNlFd6mfieFOoMAWykSJ9y83jEXilnPFUgelOALgTJmOvGM2Cf/iaK5/WUeC6M4rn6ToA2AcTD4j0MRklWzkmwZaksL5x9v7jvmWL8w4RCuF0czxH0KF10S/EsVRP38TLlM6cf+5WjNVwK5RapVyWCZ/rbfvgcdOEhHDANV/JQq3YcDv/wGkJ0GreO1WrIVBzcfxrqyFAUUqFi+2ImY9dB8ZFQUXBSOUm8ZEEKFGblwUxRlaFa7hkjC9FCHR1mM41YXZt3zOzHwlSRfZSUFwNUOWPjvPBDBYnDDEkZHuUzP8xmEC0HvgOrXAGt8GThbolFJl5QmoKH6GLpcosoR7zeyJN5UYk+Ws9YvehlfPbjVqxdvw/aqFAp6NCU5KSnY2iVKzmgRyat5v7lxNS9FGIVxyUPbeMKZgsawSDz4VmVc7ssQumCDaQkhlYAEtQ/0yVKxBOh4hN9BTjUgWepEwh4ZonPxFwrKjxMAHlBKLmJHl7nAfGiU1bDx8rZLlcowac9NHucEIBIudCdZXDcjpKc+jfDVpjaE9kgiKWzfUmZpgi2HQzP01cQy20mTJLuLuoNE/1UFyWpe53db5J45h2vKUQoblf54x1lrQBxEgqD31OOaSZXMPS77XY9CJaS726P8PBzooUX0hDDAG/SC/chioGmXm9LW0xJsy4cuYDvf9vn4Zzfyk0f2uoxCIoI5k1XI4a77FkrAFXyt1YzhquuGgW5VgUNY7Radh0yi2sgt1k4bFm8daQwmGJSsvvQ1qwCNc1ELP5j41cRaM1OWNOyodOqSl0DFZRWiKpD9stVBcmhZfekS6jCUw23bF2PL75u/fsM5KUrDP3tDZDbmTnZyk3aKpCZC325tSyJTZNstxUtxhrFlNTbKDN75LI9sGEIXFcBguT5zvbyfBcl9+kpiBBzOi0xbVRU3s+eKna2F9dpkNi0y5Mf4HllqlxUnP5jmeTzEA+PX0diITjs4t6elZhiPJVUCcv2VIGdK8emDmFiUbl47tYJJeKOjJfMtz8qZ7t3JDNVSMH8irvTdGKPRbTYyKb6zXu0wsrZT6NHm/q4m8LvM21lCoNE3u0vf9zq3WsjfK45iHu2G1cGtAhKusajfWleR8zYy3zs7khmdj4Wrv6TcdgQjwpb6A2FCK4ejflTRsBsKkZeYjqUpRd6N/p2ZTL4KQ+LfTpY7KbJJB+la056IgREZx2m22T+6Oxie19T7Nr390bjmQS7s193RWk2nxMA4I2iC3Jzu7EubPbliRwVF484Lfmc4OHxG0g+NypHCX0K94phO3vNgZJ1BHfkN1RcsLkimSHMju7OrOx50rsJ042j1BYzqichycckHZiKK2ST10h6NopTMvHUywNw6NsJiGdT/a9W/4WNu5nyigy9yjSV8VH4c/tRfPfLHgTEJjOXbEb6iYvQsH7isxuzBcWFpoqzLZrN3Iso9XIultBsh/Kpy8pMTb3Tm3IVN68oDSk2u7nvWsFT8Pdl+lNN2Cyl5bvIvlwZFU2sXt6j1AxU5AZjJWZKtuz3/Xz9NQV4ayQsO82L8a3o/qXJ/T1dBJXmiaLF46ou2Dkp8KP/0HNK5oVVPvb9r8Ic4q5MlsweJqOsGXK+UJqzHTWtXX6BCzLLgYd68XQKVDo11vzwGma9cB+3md/x/ByMGPEhEs+mQiepCkTRodRl71IRaHcsLGTSuE6T9FnccFVMYkpw+pJNbIIdaluClpGJw4pgjYrb7MvDc12IDqfOp6Hf0Kn4dtWf3LNGIue9sEuWIJRMzq6jGHKzkX1W/NNdJ4Nv7mx2FjoONtslSX0PWFBlKipHoWn6j+IzFXju4mK7cQJkN/t4PsfCAnTOF+B/90FHud8BUzyRPRLzCtmfad2A6p7+v2V8oxnrmxLlKK3pSuub5GEz2Nm0yS7HnU3XeZ4WvRGFJ5LRqXcbXFg/FX27NMXXG/ZD1+JxrJu+gvuWWw2F0J9MRmFWPl+MJF9sddVoHGTsfPriiq0Acov1+oxVYexa7gaYT56zBrnnmMKLtIG5gbHs9s1r4f4+bVF4+DyM+YW2snBOzUdWviagjIuAKjzY0bNmlZsmDdcoZSnGfyDd7RDBNknIW+T5a/AaFzhcr6MQI+8N/5QjixIsnEKqB4lzF6LyqggR6CxHic17nkR5eSLSxWmlYKZkbnoXtkX2/xeh8dokPtOMyu4auEjMRndXZF/7DpJaecTI9fk2k+aMWU/imQHd+ec12w7jnc9/RueuzdHi4Vs4q065nIPqsRFISsvGrzuOQMMYJ89xHhmCiZ+txn23tEMClZhzIQ2rM+Bnx5WRP3clLDxWipCtw1SMJhUU0di46wQ+J4VWLZr7cZsI/AuMeGFQT9zdqzXkaiU+X7gBBkr4RbMbsqfTNtQPFBnLtm1wQ1NY2HZnEtNthaBLj5n3swqFBkpjGhRFOTCrwq/nh59YnN1tkYT8kcmPeMc1dI2/CfbZXigcYp3SHPR2+/8cP5yru2C5dSSkLcsPx7Uzl/FCYeYJJdFYfH9aAPBCL49PJkNyJSTbeC3xXYg4H4HaG3CvDup/QV4VzzAJ2cfJY4YWtkeWN021y3LBCrgGpIhKFBdj+riBHMjzGKicuJCO7DwDPn7uHgRrNbiSW8CrD93PQInA/6n3vsev2QVAvIozSl1MGHJOpeCZd5ZgxQzXzgYj7r8Jy77dAj07ni4s+JoHdJ6Q7NIVKKtGYfj9ruv2mth9PDflW15RSBes4azalJ2PTj1bo2mDanwbSi380qAeePPztax/0xARqr1aYUjHlGLrBtURyRj5aDpOaVa+01ewkjHlIi/W/1cefvJ5nySZlpL9vI2EsV8LMk+AOUWMkb+7tDAyFcYm27o/BuR3oTBqC3D82s/M9i8xk39OKAwIoJ3kh2PvFtf9qDA3JEjwihg6+Zr38ZNyupaF3u/PYIsfsM9YhsGF56EjmNMCxFIIFy9i1rqIEMxb9Sfe+epXZGbbYiTIP5oKNBQWMbA/cgGjX34AD/Rug29/2YNP5/4MeVQoX9ij4gkEXspaVbBy2VbM7NQEzwzu4fSqb2fM85XXB2Pa6wuhD2HXSqlsFXLAeo3ZXmxJxQHySw9S4PPpY1Cvquuqe0+/uxSH/zoGbcPqtghSWhxmyorAusND0xAeqsNn4wagL5vlfDNpuMvjDH9tATJPJEFbO17aJwt9uxeylxdyZm6VB/mld7yZ3/h5hAhQKBfCLbD5BhNYPgjvvFAqQ5bA5j9O07mHJGB+F2zBIh/46TxZwqRySjTq5/eF6cLkhzEmmz4tPJOnxp+sUd7qcYIQHvGj4qN2t2DjdvbfTpgXu/0fsHN6VgYKRbwJ5QSQBbnoQA7mQQoZB+3Dx5Ns+UgooEVmqzBEdnEwlt75ri747M2HkMbY5mNvLeYAHMEUQBDbLz1PD51WDaVSARMD52enLEXb5rXQtWVdpxczdcydaF2vGibP/4UXuaDkWzK5ArJrxJxrs35YoGVKqs0dHTDlyf64qU19l9vPZ0pwLmPb8oRYxoBt81OavahUCmzZeRxFrE9zUzLR78F30OPeG7Hpk6cwd8V2LN/8N6pGhyNfXwidToWaMeFYtmEf5NVipECeJoDB+/uRKfjCJzUCdj9Owd228sB3l0FnQuyFvBCqCfY7TNgarwWhWcJiYaK4SbB0Mr1QhOJB2GIG/CGOKUS3C/ONAv61mxsFUz4gzCF2M0mSn2dcK0Uf2b18urJGBXh/wX9b0oQypj4tN2WHMzCnl4CiQe+044bGIUUs+ZrrM7KhSYjBdx+P5t8NfOFz5P99mofdxzerhUfuvwmvzljBc3MrGcAHM7ZekJSBB8bOwf4f3+BRo85k4C3t8GDvtjh3KRO5+QxoGPhdO2Bu5abs2MgQ1CjH/k+y4/B5PMrYNCXD0jjkhCGXRLKT0xK9LDiam6k2L1yPF2rG4Y5erfHbvF/ZflqeRdI2ACqoI9hxxMKykAXwoeYnvw6FBhr9RQQVZsIi1/iji+zmAYUAk4p8yMlIf66SXgCa5tjdbT9FSbCPt1rLn1PEhShZoL1dgHlXlI5o9beQT/5EF0zb6odjDxOsnIJ5aN2ig4fHjRFgTUzfVcAZzVpCxeyLpNX/AZhLcVrnKZhDaPA7XZkZCinLYL4B8z4cxVPgjhg3H7/P/xlNB/bGcwO6Y8ht7bmtlzIqrvtlD5Sx4RzAdIyhpp5IRr/RM/HnkvFQyp2jNAX+1LMnoboO5XxaFvqOmk6ZvhBcowq7d7PLuSqBM8/90rw2Ppq1EoP6dcSchS9h9BMzoaZKTiA3cwvP4yIBcmJWn/uHSMsl77PPWtPutxwppsS7y9lWJ1783T5M98u7YGKItID0rmCMn4tz5vhwPn+B+kHBNMl8cAdsngrn4F0uE1dKxx0XxA8EEM/24Niu7p8A/E1hFiAzyHfCvOWuFAuLADH8peVst0IC5vk+9pE/xCI5ZmUt9LkV7OSKpayFqyAiylR7LhWPDL8Fg2/vgH0nklCkkmPHwS+xb9FL6N62Pt6Y+zPaDp3G8L4QCsbALYLik81YU7cq9v5xELc+9vF/UoWmXMnjOdezky9DVyPWKZA7ExXlYteqMPqtxRh8Z2d06tUGhRcvQ65Q2DJKlpbPxEvoo8igNFyEzFLkLzOL1N+9fwXbPiL+fu/luVRiBlCeTEGJd4s9/LvIh/OR+Mvn+Svxt7OYRXzip+MWuzCzOCNy5Hce5sGxzRIl4ez4b6MkwIbMW54shlKaBVrXeMXNcSDxNLmcXDJz9Ddrlvv5uO7gtNsbTSpLymUwpGSife+2mC8W66pEhuKpB7tj77FEtGQA3qj7i/jwg2XYv/ck/tx7GhqNkptKpCfU1KuGzT/vRI+RH/MMjP8VSb6ciy6D3sU5KnRdJ96jTIvEurVVo7B3y0HMXboZfy19Ff3v7crNWQ5CzHKq357EwizIrH7zM18kYeeUOe8eF9vdJMCL8ngc9vJcdn/Qam4ojfN+uLdakvP6Y9pIoHdMfCY7+jd+Ahb7tVFQUnn5WewmlwMeHJ8iMmMdlKOjkP/8KckzMNqD4x8QppN55Wxjz81C2xzy4NjUF3avm3p+en0iJMeMk3z2p9B42r156pa3oUJZ01UgGg8npdSNVxOEU8SnTKfBzzOe4L7Or3yyCpPm/4opn67GuhU7kJmvh7JKBDRRoQjSqdnBFU5zkBC4k8fLmV3HsXbfKTxwWwdGSoNwPcvBs6noNmQKUk6l8Jzr3tQGpWIZJtY3p5MzMLRvZ3y/YT/OnLnEvYIkQh4Ea/wyd1OoEWTKhYpC+bk3i8+ATjZyWnMZKvT2AMHQaompN3lsUNbCl4V5pR88i0gkNkgeDC+JY0OYczJQkkfaUYjtkU3anqmQ3On+dPN8lJmP/LXHi/sg0QjAyRWKNd+H/iJW3EuYV5b6cBwCWcorT/7dN0pMXTQOUQK86F2mRbQ7hSK1R2rS54rC7glEbhUEzw4o7QVAhoi/aZKZD7nLPi7+3U+cM1iYkspLG0xeG2QTbyGUjVY8RzWEOep7QQQoNH6wm30TLfqY+saezTFWAC+lBrgMzz2dOorr+cQBYPuhpFjEBR/fpari2aM+t2d4rC3uxyCe+VLPuz0FritpJLQlRxPyO6dScnVrVsHWrUdYN7BnOSIEishgqHjqVg+AS6QIMDKwim9UHT/PfQ5tG1S/LoF85bbDuG/MLFgKjNDWjPW6yDNHwyIT6lSPQbu6VfHDb3uhYf0rK1GIJ8SD7hdvBCrirMk7g4jkNbzikB+lqmBQd6HEncwuqeJFneslS1ktnksyM1HACiVn0otzHStn3yfFy/e0ByYNip5cKV6gRAHg9so1WqEgfFGsdO1HxLWv8+E4BCJfCsV4QShVuQAsneTFV4o+tAjwpepAw9wAc2LXH4jtz4tjxYgWJM79msM+BLavizGqJ0CaZmo/l3MeUpjbhIL8BiXrdvYFnZPCNORJn5PyXyJMIOcFEOoEwSDFQnb9/R729zxBJrLEc2i3l9cWfbJV3Ksvkdn9xTtiEs9eoVD+9OyliPOf9ATMSWix4S2+sZwBsMkMY3Y+T8Gq1qh89wNXyHlOcGiU+HzqSDx2Z+frCsjHzV6NadO+Y7xDAx2blfhaxILyvGgpX4uxCEazGUGU172kj+nB+8Ff107eLEGFVxBxcR3kZj1PulUJEiweQqt4+P8tf2+FMMlk+cim/SkylFSXKUZAnI1ZdaFAU+CfYKr/rLgD5hCaq3WlXQRFU15hCjwjB/2H9sKCN4YiMvTazq1zIjEdg179CvvX77WVpBPRnT73BZuxFBebuSsjle+TmKm+hS3Hhh87Xs6LU0Qm/QSlPoWx8+DAGxGQgFyvmq8cm7lUaPr6SKVdBZVOI7twqA7Hth7G7J//QkxsONo1SrjmOozcBN/4ch0GPjsbl05dhLpuVZ5b3Nciz1Ih10x5aQ+WTDEV9y+jlNlS4CoNaVAZUrkNPSABCch/G8ztxvybKw/QRXGImHAUMJa+etkfWL7vNBrUjEXda8TnfNG6Xej33Bys/WYj5OEh0MZHSu3ZlSlkm91ZKcopKAQKUy63nfshn3lAAhKQf0ncNbPYhXID9Kj0i5Lb0ggUXczk/+7YszXGD+uNu7q34B4f/6TQguTCn3fhwyWbcGrHUYDWCuIiuTHP+s8AOUUvPlVZBy9WRSIsfStC07exz1G4PvMQByQgAfEUzMnuQa5n/whVJlCnUHcTpYZlGFO3XUM80rcjD/mvX6NyL4GCob5etxvf/LIHGYfO8QVOFQPxIJnsnwJxEnKp61CZJzAr2Qwj5wTCL62HRa72V/BQQAISkGsczEko3/n6f/QiGYAWUYk1qjFKleoZqHZu1wC3dWyMm9vWR5vGCTwLoS+SkZWP3UcvYNOek1i38ziOHjgLsO8QFcoLVP/DIE5CGSzJl/dcZZ6EbObkyRKZ+FNlerQEJCABuQbBnOQJMf3/Zy+WwIeBqtFYBGtmHkA5YiKCEVujClrUjUdT1hokVEGNuAhUYQAcGarjOWLIB55wuKi4mGcizMozIJUpBiqkceJCKo6dS8PBs5eQl3IZoGIcTDEoGIhTYWjrv5eClwIdNlX2SSwUOFSUg8jkVZCZi7h3S0ACEpD/HzAneQe2REb/zoXD5qVPWRktegbAVHaN8oxbzDzLINm2FWoG5MqS3CYms5nnYLcaTTaGT8U3FAoqWMpL3ym0aqgU14SZgbLnLf4nThQA84AE5L8hvsTQU8krys8w4t+4cHtImJoiT8OCbQ322hFWbms3M3A3mEySuuoy3mTE1kMZ2MtlZWKeuJJgX1LOGPo9iLIV/rO39uI/BeQBCUhAAmBuFyrrRMbqwf/YFZP9nLFr85VcBJFnSXgwLMUl6T2s3MVRxlh5xbcmBfKri63p2eRMznOJm/MNMIfroI4O5wWV/wGhaNsPA49lQAISkH8azEmGCKI8pPLwW+RxycoD9IW8AEbXHq257XzPkfPQatUcjAuNJpiz823mFsa+lRHBUCokyb5ktm0sdhNLiAaaUB0UCjkKcvWUfAZDhvZE/67N0bxeNew/mYxXZ65EYlIGL59XyfZzf9VPDEhAAhIAc6+FsrNRApuRlXGRPLyd/b3phqbo1roe+nVrgc7Na+O+V77Enu1HIGOArM/I4dXs77rnRjRJqIIt+0/jzw37YIkKhYbYOwNiQ2I6QhjL7vfgTQhlYL9q436knU/ji6hhbJvvp4zguVEWr9sNY2ExhvXtiEY1q6DDsPegZ4qDMkVWklDyoI8Cj2NAAhIQb8Wfq32PwbYo6nchIFYGKbh3yYXULHRiQJ7NmPRvFMQTzoCcMfao2HDsXf4mr3JfYCzE/NcG4cevXoRVFYQCxuYNl66gR6822LjoJbSsE4/buzRB6oZpGDCgOy/OXK9GDHINRXjgmdlYMusnDB88BVv/PoP2TWoigikLzuQrR4YHgDwgAQnItQTmJK8JUPerqBiIE6Cv//Z3HNxzki9S/sKAPP/iZag0ajD0xldvDeP+5t2Hv/8/9s40JsorCsMvM+AwshcHaNgtSgUVpSqJUqk/jNRd65Kqta2xNi4taWqLpY0xaioaTBSViqata6kNpmLKj0rBmrRgWhcWo2wKKiCyCcjAMDAzPed+o23SCqhoHXOf5IgzTr5vflzf73DuuefFrrX7sDjhAOZOisC6pZOB8mp4BXkjZ/9HyC2sQMLKZMx9axuKKmrFUC8N/VtByU2s2ZIGI4m/OixA6XAhAd/zwxk0F1WIckw/nz3lMaU8r/iQXIYSieRZE3OGZxvzHNum/rog16q5bs618qlTxoj3Tv52SamNcx2bhDfEXyfMM0z6DrF52Wx16OFxstB34uUgb/GaHZDEvPFWPa4W34CKxJtLK+ZuMxqb7opyjqndgISNS/Hq2FAUkuCrKGs3cBmn/9oW2QMyBA9veyWRSCRPTcwZHgrFA+n77dCLyaRsas6IGSlenzlfBrg5ic1LkBAnpJwkrXfA4eTVgO8gpGx8G3fbO5F0JBsI0KGgrFqc8jy47T2MXhgDv+jhiBwdgmXrD6GrsRVaPq6v1aC7oxO+fjq8MiwAt0ncU+MXou7MdgwfEYz22jvKQ+Xx4MH27FRTLZefRCJ51sWc4dSYTzGu7Y+LGdsM8B7sg/ERg3HuUiVqKGNWO2vFLHQ4aZCRfAK7005jyetjYSn9Bi6uA+EavhwtVfVwCvBCC2XWwVM/xy/nSnHhcDxuZm7G2Ss3cDQ1U3S5qOwVL1YtXZNPiL6xahd8xn2ArfQw8KRrbY2bLZrQjY9eO+fB+uw+slwuO4lEYktifg/umx5mLS08GpwMN7dhQniQeJmZdxlo6xAbou16g8jMj2ZsxGvjQhH7YQoKy2swPjwQ02Ypln+iR5wEW9+sF8f5006dx/GcfCyYNAoFeTuh8/WEvqFFcVKyWMRvAZpBrqKssm7TUTTdbRddNAM8XND9aGLONlc8pOyEXHISicRWxZwptpYW2H/x4XzxSIQ7WjuA1nZMjx4u3sr6o0SUXMxmM9DYisRP5mFR7BjEJR7Dz7vSETF7Ay5dv42fdqxExNhQtFc1iGP75VmJ8PfxwKIFmzFvzgas3p6OkS+9iL1fLBabnTx2F10mdJPgi/INiTfft4XuUV7TCCP9ZPefh4B9FmdYo0kuN4lEYutifg820mWz34N9+TBvTLJ92hAS3BnLpuDdORPEJuWf50oBFy0Mxm7YDXLDqvkxKLt2CznZF6GOHgWQ8Cbu/FFcIyYyBCAxnxwdLtoP9x3MArQaYKgfUpLScZmyeO56cfLygPFWE2Lp71FhgWi/UA5U1mJF3GwEB/lgzZffi+s5WMsxvX11KL6p/ng8w1+JRCLpE/b/wz05Q32HYjPFDoppPZVXOFt21DhgSIAX8ksVE/FxlG3nFVaIcoilswvVt+/An92IHOxhul4nWhU9vdzFZytr6Hb2qvsbl546d2W0raviRu88UIPiG3XQ83hdys5V9PA4/e3H+DojT9w3MiwAk9/fgdyci9CSqPPDpRfYUZtbNBvk8pJIJE+LvtrGPSlR/44inYL7BsP+XWGxg1qtxq3qRuTmXkbqkWxkkYgH+3qijjJ0YxeJeVsHim7WYwVl7ROiQlFI2fWs+ROx57M3cTw7H5t2ZwCUvV+rbcLMiSOwZHoUalR2aDB0Imn9EkyiB8PMuK9QRYKu9vZAKf3UagbAx9MFp/Ov4tMtx3Cl4BocA717+jWGHef3UsylSIMNuYhbVPZQmTqhbS2BnYX3FtTyf4VEYoM8zgjc/oZLElxT5ymMnv/1gW6zBV08V8UCMWBLTD3kmnpVAwKH+iJ+xVS4aTVwdXYUdfXk1EzYOTmKuSr6+mZoKQtPil+IMaH+KCPR7rJYsHVfJooLKzHQXyeGKnYZu2Gsqudjp6JfXe3hDI2jw4MMmyuhzHXfT9FiiwtAjsCVSKSYP8nSz0wox9ynUPRoGS+GcJEIGxpaRXmF56zwwCx0GGHv7S56xy0mMyWcahha2mDmz73gAmgHACTwdpSFa3TuUJGw93GQFrdcUrqPAxS/2voCkGIukUgxfxp4QOkEiYViV6frsWQgtNhyX+QfhMla91ar+rz/y9ZtbJWXSXEKylH85wIp5hLJ84H9M/797kCZXXLI+l35LD83j0dRRFIEsyb/naWLP3u9aC8izvXvMihmynyS9XeKIrlUJBKJFPP+gU/rnLXGPQIpQimGWIXdz5q9c83djYLthzT/UHizNavWQymXNFLUQjlaf9Uq4iXW9yQSicRm+EuAAQDXQH4GmyPi0wAAAABJRU5ErkJggg==;" vertex="1" parent="1">
          <mxGeometry x="5" y="292" width="371" height="115" as="geometry" />
        </mxCell>
        <mxCell id="zemKmCcNjwJqudbQ4LHM-7" value="" style="shape=image;verticalLabelPosition=bottom;labelBackgroundColor=default;verticalAlign=top;aspect=fixed;imageAspect=0;image=data:image/png,iVBORw0KGgoAAAANSUhEUgAAASQAAAAqCAYAAAAahCYoAAAAAXNSR0IArs4c6QAAAARnQU1BAACxjwv8YQUAABWUSURBVHhe7Z1drB1VFcfn3ts+YGyNkmjSIvKgsSXAg6IYuSRa0Kg1lmo0kVIk+kJBjU+24MeLSou+qJXWF43Sgm9Cid8fqJESAfWhaArCQxUwwUSirZGH3nuu67dmr7n7DLNn9p6Pc67p+SeTe+Z8zMydvea//utj9sytCLIZZphhhjWAeff3nMXKC3/LVk6fcGszzDDDNHHuKKSz/85Gzz+YrTz3g5yEnv+t+2Accxsvy+Y2XJrNnX9VNveKxWzuvAvdJzPMMMPQKAjp8cdPZl85cLu+WYe3b7smu/6Gj7i19rjjwJeyvzz+uFsL41vfOeJetQPqZ3TqcDZ69m73TgnrNmZz618mJPW0e2Mc8696bzZ/0R4hp6vcO82I/d82bb4g+8KX9ru1bjh858Hs948+4tbqEXNOH/jlL7K7j3zXrVXjqwfvzDZs2OjWJg/GdPTMPTJG22WMbnbvNmMkTgmbmNt4Sbaw9Q73bg7sZfnkrW6tGQtb96sTM9gxVQE7m9sozk5sCWfXhKWHt7tXYqZX/NC9qgZOdnTqUOFwDexr/oJd2fzm69w7cfDPQ9V5qoL/m/kLrpN97tLXKSgI6VEx5o/duFvfbAIX0Y5r3+/W2uGjsq+YC+jEn59wr9KgA3RynxqfIVc+i0oycxvEiMRAxiAqauXMCTmxj4lR3S2vH3Mf5AO78Lp9UcR07L7vZ5/7TJxRQw5vetOb3Vo7nDlzOnvXO67Wv014346d2RdvP+DWwsAWsIk6fHrvbb04p7ZYfnJ/NnoqJ/R1Vz44RgxByBif/c0l+hdSWHfFj9wHOVDOPhE0AaLwbcI/pjqgvOe3HlBbDOHsj1fJfv27w2O7jJ0LGdWB/S284Z64cyRYPnGTkOsqsa57258aowX/3M2/9la5XuKJ3dAqh/TlA/tVUa1V4P2Wjl9ZkBHegRO6bvG4Mr0aEGQEARHGseBV8GB4FPG2fHf9NU/riUVF2clm8JsAWb90wwa3Vo9j937fvWqPY/feG0VGIIZAGNsmMgJHj9YrqEkiVtUsPyVRgIz7tIG9Lf/xuih7qgPbGCMjFD+pBhZxwAb2t/TIdlUxTVBn7pERGJ26070aFq0ICeP/2I03RF8Ek8TyiT0yyHvV6JDyENHCZd9Uds8l5T4hq0X1Pmd/8Wohmffky68v0ff4qx7nOZHIQlCw/Pq3/VnDNsDg8/smo969O0453H/s3uzvzz7r1tohlhguFyW2ZctWtxbG0bvitsdxE9qtBeAwmlRC/p3Dbq0ZOCOUSd1Sp5hRT+Xvo+SwSwPHjKpqA+y8iACEiBZEca1/xzOq+nQRp4r9F/sTm4XAmmyX6KCAbBcoQU2AyFtX2YyU1gzkZEEUlitauOywSNTv5USEupHP9HMxgMJL+N7kvFfrW+odMJI/fljJSQcCYhJlhTGpWpLfo8DqvE1KSEuI1xYQQiyh7bh2p3sVBuMKScaiKc80SSwTKtVcNCm5oaFAyIRdYp8GQjxV6AnI7XR1G+ve+L3KPFoeqsl14NQSv1tuIO7RX/PPuSYWLna5Izmvo3+spj+GQqeyP9I+NlcyNJaE+ZUghDDUC5FQg6QkzGLhM04wSqfwXL43ERVUeDDxjAygDp7E0hCT/l6MCbVUfFbjbTZt3qz5mhgcPXJXa7UZSwibNm2KIslYdWQgtOuq8HqDjMXyY7mSLQMVUudAJg3s0080j55sLij58EMoFFBTbtMnwJVQgUegDt3Z9PxFt2Tzr3zvqkpqqeRS0LkPCe+easR9gzANFaRkJOQCcWB8JC/tfUgG0ilySHLSi/yRl0dSDyZhmuabZBAhMd4v1JeoJd2HIyXi8hB27IxTSZBRm9AHIojJ9YBYxXYsQR0ZDt150L2aIuyiocrEmHtgnMzr2/fWAuZfd5t7Jcco9peCleePu1eyHfKcDVC7JomOs62pfvmko05d7J0qHdDz6BWJhkBnQgJfvuP2qeUSOEEWpiFbOfGsW56HcAxVoxl/Wc8T3ovj+SMvj2Q5JE4+AwKJmSfT/BQDRggn+8K4IT7NWVWA6tnrX7/FrdXj8KFvuFfxSCGCmGQ2zqWN2vnVA7+cej5xwbu4GScfVFvN65NPjAWhlOYaKxbspSsIp/xUQQp8tYfNx4CQjusgVP2CyO041ObFzvW1KCVDSg6uDXohJEDoNvHKmxiZSXTYH+WTE0ReudDqmqgZTiy5IBQT5GGDafmjXPIKgUEweAGJsbVK53ISGLFJXt6D8DAm3TbvySD5BuIjtiyeonYABAARxIDQMaZf6P770tUR4Fio9E0T9PeYUmAMLVGsDst59Xysw2X2qWD9y92L6cMvCvj5KGzdEuM+aQ2B3ggJo/zUJ2+ZqKe0Ei7hk55ACMrldSAj9Ya8h7I5cVP+XTFK+jE0X0TuSBaSfvzVnJLmn/JtYNQakun2dhWkpCGiEBCeqVBPgYRpSgvA0bu+4141Y1ql/hDWQgvAgtiAKQ5NFMsYqToC4mxS1BFgW+a0XrQIAfaBkCNrhB96in12hTpiKssCrqey6vLDvNR8Vwp6IySAl//UJ1bl3aCQQbBeiYWL80Y/VT9yYjmhZnwQioZ0GKQQEcRT5yU11pbfQkyaJxKDsUY6PxG5/FjuQbSDFWWF5yjlLgyxLQAontiQaVql/hA47qm3ABBKe6SjfTfOmxN24OlTMLf5+sJplZeYzuUmWKoBQHIpmD9/NYk9CthdGaQpLOQsY4xkllaLQbb4odroH0JcPZBgFXolJICXnUTlTQdTTkrusSRUg+GNoMjvCAolI54OI0qR6xATv4GU2I8pJQxeE914X46BpJ+LsX3J6yOlBeDIkWaVNO1SfwhroQUAW/D7bgDjFcqbTA1ybGMJZJc4jsWcZ8t+jiwEu15AcX4MHAsk48C1ZA7WXwrI95taB9qid0ICJEe79NbEwC5+i3VHLrGs952JJ+QEriqjPNmdDCEbJSVHQDYIVh0xgzJjUslbYRgpLQD333dfYyg27VJ/CGulBWDhUlFJXkiTGqoNDS54X71hX1rRSgDf53eA7dR1fKvtep+X+5V8stJwzQ9NS4uhrnWgCwYhJIBK6pKTqIMyuBvMeVfCt/h34bU5WVhOh+pLKzIyeGGAlo5lX2YMehyqwC7MlRTfCTSP9dUCwAUfe16HLPWHsCZaABizi2nvWMzL3NhIGzC+5daQ0lLlgAwrp/809l0UPKrd+toUzmG2gf87SCVvTbknvzbkuHSfT+0vKs6gqmfJV/ZEFxaWVi2WsmAfSmQhxJy7CgxGSIB80hCVN5OPKj3F+CyGVgZnnV4UJQoaIce9QRsUYQDE5wbBJHN5feWf+bGU0VcLQOwFTyJ9yFJ/CGuhBQDgNLiAuoRqepGXW0NKCzdjh0BO0/9ufsPq6kWME+MY2zrMPN95uFCDqoRcI6+1tfi3pbA/VY8eOJ7CuQvZNOXZ/OspNKsBiDl3VRiUkDDMz4tS6ttAC+/CHfsCplwAliMywiIp2ResymB5KpPYK06ZzZ+fy1kb3Cp0bQHgPMaW+rdtu6bXUj/hXww4xmk3yq51qKOkUbcDGRmMeP1w6kUQwtL9LR5Xh+3DJ5WYPBbHa/vS3JJdiz0hefoRppw4dOhg9p8zZ9w7zdh29TXZV78+frdwl+lHYFckH1UzSMjWbSoIlcRCDFop6zjgPqw6QcsA8NcZGJXGbj2Et77l8qhz9/ZtV2dfOzieOORCpwk1Bj/52QOau6oD6vVDH7jWrdWDKWeOCXnFjBn7Zf9DQ8n/hb/q68rpZAIoErTrmJ+oZB+EOjWqp4zyfv1jqsR5r2lUIYbiOAUxYSf71vmQCM/4H+TY5l5yYX77R+DcpO4DjP2P/v+Teu4q9pdMSMzfc+Z03nOUgl27b8j27vuMW+uHkAoCOr6ohGAEVCaOvlDebx1BhcBEarFd2WVSedc7t0WFV5T6vx0xCdtnb9sXVV0j/Pvpzx/IHn3kkehx72POrBnOPbQK2VA8KKUU3H3krv4qbzC0B5ONfaqhGPjSNRZtWwBIdMfmeq6P6HtiW7GlfloHCP8Y99jQrW3X9wznNlrnkMiHxJayDb3dXiJSe03AiFFkayzatgCklPohjiakOIfdu290ryC71dd1QHFP/FaiGf7v0SmpzVSosZUjA3Moda7qlOLhNkqlFZZcKOYIUWNpQWxOwJDaAhBKclchljCY8iQG5LL8sHHHzp0Jt8LMktszpKFzle3b3z0SbaCAi0zveTvdPb/D3NdVMILqdaoEEnZ+aEji0MNqojTPI9UhtQUgpdQPYTQBdWTKqwnX3zBOcBq6bWtWYICQMHY/nSBjobM4PLxd83i2FLc8lMYqCLcd7of0b7PQ/h53o3Ud8lL36vxbdchbAuK+Gzyu1P/PQ9ft2bGHZrpoi86EhIGSQE0hJaT8E080P5UjBMvOazVBYDc6GgEV5f8eCckaHq3tvry+eixxeayUFoC+S/3k82JA+Ff1AIKbb/mEe9WMoVUSKpWZGfQ+xpJCZp33dV6shoue79p21I68i5Lf0s/Ddvw+ojJW/kszoLvNYqn+osaZxny39rjkM/v/Yp2vbk+n2GnYXs3/CfiuLgFR0BadCQlw8+befWlJ7i4wAlpx99+Ue4KKpkX53MKqrrDbRMoNkAU5OoOIvQuc5HYsiceqjBiiSMnt7AlsjxCOSl4M+uwCrwJevhhj+m0u2qM9N3mHdq6Uuej8WzXKMGXjf17cQuE68BWyHTqtmy7WvlB5XByTWwo1znHJeWg6rqTtMUNGze0oQ6EXQgJcYHtu/rhbGxZ6u4gAz8XJRZUUt3IIa5PTsSlEiuknOoDWet0PDW2QH9t1ZFgQlGuFr+qtCCF2FoAYQBB+rieE2KecQJZ1yfGYSh5A4Q11XyMe3pQPY6MT8W29o5iETG91cA9n0DGrmDZD1Y9cfAYUrz2hht+PPX3GQW/aFjsbEsHj4pjcog+fKB1XSCm12R52H6u8+kJvhATwqKmVt1ZY/7LVUMmUievKXn4yn4pEb4AVxueEdvFoOpCO1ObdlBN6k60YuHoWIT++o14HD+0IKgZ99ukMVeoPYS20APjhgo5/RfOf3dsIzGn48Oexwqb0RuxykUK2C8GNXfwDPzDAprcBONe64/Lnyw7OKe7/n6nbE1ufFHolJLD31tuSK29tUIRl7sZAJueCECy25WTbExPUc5CsSwTb0WlHBBoKyD4hHk1wCpilEoyeciSYQEYgpQWgDkOX+kOYdgsAT4It4D3UcwzyHRpVWVAEPtSRmNIR2ynf51UGFytKDOhvZRkCasNu2+yvabYCVLvd9KpKsOSA/f+zj+0Nid4JSZPciZW3NuCkcXKVICAlZffcG9oTSPhOMcvjyb3j+YY6MAjcJS3xNq/Vo6CO5DXbALxHqMhAm6z1J22PRWwLQB2GLvWHMO0WAM17ODAGeciSh9Ix8BWTzmnlE1wAqGSUkq+W+sbon6XjioB/02u5mOOfk1bbM9KeAHonJNCm8tYGRgD2PC5OooZyEAeSV8lESOkN9xThm1YYMFybpsEg32XgCM+oMthd0hieeRQ+g+j0rmkL3yxEhKDKEjgCKS0AVeAcD13qD4Fx3jbFFgAcgoXuAE/O8/SsVN9EUL7CiS1GoII1rEEt1VRUCZFwaKHFf0x7GT4BxB6XfyxW8TV03t4LT7tXw2MQQgKTqLypSqIKogSUx87Ibt7D2LSyglISI1q3+JCSBlDDtWkaXA8G/RgYs6ot2R7el3vWMDzdvlUxkPaoLvGmkJYONu85gmqD2BaAKkAIkyj1hzDtFgDGu0hce2DcjaAY56rkrO+QxsK/HsD+sY3Qgk0Nhrqbe1tg5b+n3KvhMRghAZK23FQ7JGw+GJXsEpZBFFQMfFJCDWlOSZQOeYT8CSUkpPN8gEK2wXsoIm7S1W284io1Ht0GBi3f0ffFe7Be5JLIVXUw6JQWgDImVeoPYeotAHLecQZUwrAFVap+qV4A8Wi4Lvbgw6+I9t1PwzGojQUWbCmEzuRYupWpjXL3UacE+8aghAS4w5+cxFDgZFnymsS1qhhHSqqIUDeoIWSykAuDQ2jH5/a0Wl3cU2xNiqsRi+TX34khY2CoLP1M1k2RsQ+UWle0aQGYdKk/hLXQAsCYa3iO06FUL2NKqO6TkzkQA1NzGMpkFYI+icbCLpROADx4Qm0ssNRd5D5RVim7KvjfK4dl/r5aba8joaVgcEICbe55S4Eaoqt4QSJapsdzinHiNTX5jdLBkCyH9NwP5b0Hc9kupKWvZeG3fEdlvgvRVDVhRDIwvKeVN/kNZNRUsYhFmxaASZf6Q5hKC4CcfyMGxrMKGqrLuBnKKmjswienWEMwCtkn0xjzPf1uwk3VKbAKMtAJAWW/TbBKLyhXe1ttz6tKpz6AoAsmQkgYOZONDZnkRvUUZfhTh1Si56SxS0Kwh5RUiqqc5RYefk+eR3LTfbLwWyUpiEgIp3jqrRAcZKXGr9vtj4xAagvAtEr9IUy8BYCw5oVTSgyMZ0jhrPi3ZZQ8vaplVLSD9urUXKzmiAC/G0o5jB2X7M/fbxWwSfv/85BwvDm31fYcOVdtb0hMhJAAF1zMpGFdoKTk5ZT0nhzL8wipEKKRHypySCzkkeT7tm45JEI4JRwxfLyKKibX8+RX3vpESgvAtEr9IUyjBcCfoljzfHh/D+p8UMsOVRUm8k8W1nFRq82IOlCn5N6z8S9IT+ylSxEjBuXj0icpl9QNKh+FqEoecFwBu2y9Pefkg1g6LeQ1Pnl/eakjvzJazRiZUoUpA4+d8ty2qhkjm8AJ1xI9J0OgHoIHBb5qe7RXwyD5/egZ8b7mLYS8GPAhPcYH37+j8cZjLnxmcGwKr1LOdddxBbEzUILjv3u0VXhYxtKDV76ohK45k7P/KkhFIRcXaleVVQlqL6KYo8rbsp1QDoj8kjlAm1U0BJt9FIS+y/Ev/0GOq6ZFoEDNcRVAHbHfHrZHZToWTefCx8QUkmESlTdOIiezyB8xsCf3FrkhyArDKfJIbtH3ZKGHRb934qacjGRwcuX00KBkBGJaAKZd6g9hGi0AjHO57A/B+GSE8qUgUUVGQO2FsN4L36pg26m96HsEzrP4/8QGQ+C4IdvG45L/v9ftDYBCIcVWQCCULtLegEHGNMqllqGroDkGCeHqmuSqgMQloadVtIAxDwHUah22bNnSSEic29iL/vI3X9ELIYHYccWG2iTyQ1BFK2NsZKSl8w2X6dNgUpyIbkeckE0loor6vNdoA2bTBaokGPnQAY7Tph2JekCBqBumvOG4/An8+d9iVf8YqrYnx0ACPGZ7FjXEIOUBDAUhnRNgEDA2qi0yCOWOVqAD3PCkhhlmmGEIZNn/AFEAQpOPv+3sAAAAAElFTkSuQmCC;" vertex="1" parent="1">
          <mxGeometry x="400" y="80" width="292" height="42" as="geometry" />
        </mxCell>
        <mxCell id="zemKmCcNjwJqudbQ4LHM-8" value="" style="shape=image;verticalLabelPosition=bottom;labelBackgroundColor=default;verticalAlign=top;aspect=fixed;imageAspect=0;image=data:image/png,iVBORw0KGgoAAAANSUhEUgAAAUEAAACdCAMAAAAdWzrjAAAAw1BMVEX///8BWnwAhKtRuukAVHgATnQAVnkAS3IATXMAUHUAfKZDtujC3ee7zdbf5+vj6+9RgppHfZbM2N6IprYASXHU7Plxlqm/0Ni8ydIAf6hnj6QKXX/Y7vl0mawARW6sws3v9Palu8fr8fQRia7O4+uZs8Epaoid1fGNq7qetsPK1t0APWmWwtR7tMvi7/Sz0+BVob5AmLg6c49rw+yu3POP0PBiwOuKvNBmqcMukbOgydm94/Z+ye5zr8i34PUvbosANmUEwOZxAAAPK0lEQVR4nO2diXbbthKGSZob7GhnpFiuJFqJFS+p2ypt2qSL7/s/1SWIGYDgCpCUaMn8T87JkcUF+AQMBoMhYRgnp3e/dF2CU9fHy+eui3Da+nFpfey6DCet8Nqyrn/tuhSnrJ8jgtbln10X43T1fGlRXb7ruiAnq1+vY4LW9bbrkpyoPrEmGOl710U5UX1HgNb1X12X5ST1C2+CkSn80XVpTlEfrYQuP3VdnNPTl8skQes67LpAp6ZQBmhd/9Z1iU5NP1/LBK3Ln7su0mnpOdUEKcI+TKOjX9NNkCLswzTq+pRtgpH6MI26vucB7MM06voltwn2YRp15fOz+jCNqr7kDCOIsA/TKCgsBtiHaZT0bxnBPkxTrRxnWurHfZimSnnOtISwD9OU6115E6QKuy7j69bHSoB9mKZURc601I/fXpjmbqZ8aDU/6w2Gaca+P1c89M+KYQQRvqkwzdC0TZOMlY5NR6YL9ZbCNBvPpCJ7lYP/UmuCbypMs2IATdPeVR9c4Uy/xX4c7omJcm/CqsN/U22CUSM8QulfgaaubQq55qj8cAVn+o314gfPNZNy7WHp8fmR6XyCX45Uh0619MyUXH9acryKM416C5Pj7QtJA4zkLYrPUOf3JszgI3FzAEYIN0VnKDrTDOD5Rwnvglx+kYLb/DOUnemY4NkHCZd+EcAI4V3uKcrONNW5e4OjmzwTKBDmxRk0nGmqo9fpqFr4+SZQ2MJV9iQNZzrqxP8ev1ZH1KzQBHI5y/RJGs60de7RrbFTCTBCmA7VVEemJYJhFzU7juJQloLIRDrth54VPONF403JGCzLfkmep2MEIzN4vukzq8w8rgThLuTn6TjT1hlnz4R7FRMoEPJo11avD1uXXdbygJq6FU5MWjzapeVMRzrT1c7bKi8wByGLduUnrBbrTCNbcw0TKORQhL/pATzPyFaYG8qqlh3qOtPWeZrBR1u7B8fyaahLz5k+zwB/cSirXC5dvtN0ps8yspWN5ivKozF/zXH4DCNb253aPC4rm8YXMk9/VSs66/3V313XuzUtnHomMBIJtcOCFkS2Pl9dfT2TpnhftwdHAGmsuiphNas4svXt4uLi6nPXlW9DY+VIQlY3hr4zbbHnIcKrC4rw4n3X9W+q0U1dExgpeDS01thRNLL1PiYYMfwn7BhBMw3053FCNo2x6qyxg65p/urnC9DV1e9dU2igWX0TGMmhDyfpOtMWRLa+XnBdffupaxB1Nak3j0OAdBjRdqYtCPBfXSR09UfHJOpJNZpfJDobKX36q0g0svVeIhgxPEHncNOoB8MwUsOZZpGt31MEL07POdSJ5ufJpcOIvjNtQWTr60VGp+UcJhNT68mjw4i+M21BZCvdBE/NOZzazUxgNBu5N2o50xDZ+imP4Ak5h+nEVH25dDZSx5mGyFbGDHKGJ+Ec1g5lCQU0C7OGM21BZOufAoAn4Rxud01NIAwjWgmrCdFTi5pgzPCVO4dFial6TZAOI19qNcE4dbXADHKGr9k5vGveg2EY0UpYFYojW/+VE3zNzuG4DYBsGKnjTFtoBisIvlrnsFEoSyhO5q/lTFuQs1XF7+KVOoeD+tH8pOKgVj1nGiJbz5VNMGb46pzDZqEsIY+mytRypi2IbFWZQc7wdTmHE62srGKROAm9ljNtQWTrD0WCr8o5HLZjAmm2Fr1cPWfagpwtRX4xw9fiHG6aRPMleQN6vZr8WOqqmhnkehXO4apmTkdWdpw8XfJesnLFka2/9QhefQ27paedmFqqeBip6UxbENn6QwvgRffO4dRsqwfjMFL6XrIysZwtXYBdO4e3jUNZQmwYqetMQ2Qr1OvEwLA753Demgk0cRip6Uxb9cwgZ/hfJ/zqJqbmy42HEe2E1YTo+dpmEBF+6yDcMK2ZmFogP07cr+tM40PZ32oS7GJEeQhaBciGkdrONES2aplBRHhk57CFaH5SbBip7UxbENlKr7VrMjziiFI/MbVAbBjRfPpLUvymrc/VmEoRHi3c0Eo0Pyk2jNRK8wDFka28tXZNhscJN7QSzZcUxMNIbWfaasEMcoZHCDe0Es2XxIaR+s60BZGtZmaQMzzwiNJSND8pGEa0XqWQVhzgb2gGOcKDrkUt2jaBJr6lp4kzDQ9lNzaDnOHhnMP7NudxIDaMNHCmLXwou5VOzBAeKtzQJDe/UGwYqZOwmiBIL1Gx1q7J8BDO4QFMoAlL7I2caQsC/IUpR/UQtu8cDp48p3158RK78edlI8UPZX+9alltd+XBAjTQ1KJUbEeRd80U0ms8Pz//JOt9XeH57RLs1atXr169evXq1atXr169ejVS+IHpMfX3Lfy9YGODUfnXNfQIVwxbu2K1NrNZwfveNTR6IlReekuhx3X896Bgw6sBfJ141bd2cRb393di846JF1/xqXw7jzY1tB07+te0EYzYMp87Sf19ymLfds6rvKkGLMXJ5gSntDikYjsTSePAJmR9zz+y1R7vaARDtr7kBg23B26JYMgOd+l7pdQ0ZlcIcOeJoxO8hzw3or41X66qCBb14hRB7eIMYYGMPXNmdEBwAkucrtKeaMVqieBYtzgbTPbGTnRIghv7hooMkn98bQRtXYLkmATZz+VLBO+gBPaJ9uLROr8X+wckKLdBA/JV/bDZxVsiGLIyurZycQpGkiMSHBLiRu7Dob0ZRYLUm3H1vJmJZ7v2mm+/c3yCUUdeLlvwqFsiaBgPy7mmRz1f3gteXRBsRe0RbKieYFMdkuAHIFiy9V5a4XA4DFN/Gw6nw+w2nEciGJWnYgtQZYKj3HrIh0TCudpyuZyD6+eO50uqkH0zW0Waz/n+SSvxefGy9n1vndg8d7q6CTzP871gfy/fvYogv/6W3nse3SCO4mQIRl/FJcDPc/aZDhTh3W7tRQUKxslh72HJhMQyBDdww+RvGNfD9/zAWUrtaQGVp9gex7SqXmCyQcqOhAmWLv1gr4GAGX+yA7yIQ+LPDs0JZlNmvqfNcO+JixBvmZxKKxN8Ydf32YEZgk78LSH4mRWWbsT9QDBF1A4Ss+w5O2ONVNMEHwNWwbUwXtOXRD28XeL3eGAHr4fGKKorHOLcUFRmRh7U/4Zdy8GLwHmEv+rSxrDHfepJHdtJ7CNZQdBFgkt2VXSAMwRxToKfb9j3YznHO7Fr25yd4acJwuct1MITuw3O5Hq4ib0cHwiwkfaNc82wBkF3htMlLEvOLhqJsJ4iQXxYwNmWEzRlgu54LD/pF/CGU0Fwxz4Ssctbdksz7o0bt1gcOR+V9iBtguJdoTb8cnhRV9gDM3jQI7iASIqH9VUkaKZ34XH5pm0FBOEOMM9O7K61dLAahNcjQJt+i/0uDWtkRAaY92s7Ggp8/2mUT1D6raOCQ1kfMYrkv8xXE5vP59HcKBEcYZfi/UaVYCxCCK9aEKoQnMEk0cWjjVvoBORmdne3BMtq4+9xm6h9ZIz5J/JAXZDpDH6PeTSMR8IiFhN0yH68W98mDzNNVtIVtEg+zCgRxHsJK6ZBkOzuNhthW3BBpozgAJs8H5i30AJ9dsPwhR2NDUEQtJ35ZrDBR+SgC8HXRN7BtZCgS2LzsI1/vlu4M8Hxd4ZFGagTnMBPmDhGnSAYjCm2IRxaSwgO4WcOxDA8x1YEn0O4/ypFkEziavPg30QiyG1XKUE3satcZJDhwmLY2oN3uVcmiF3qJvG1MkGChJbsCO4HFBMM4VSPr6EYITRKXls4HcuEBB0kjMV/kQjK8/YCgi7fU44KY+lE/GkBP7A3UiSI72F2krOFIoKcMhAUsaM7dgSpJgi/sZ3YbBXHWuFdD9B/KfgeKs5mFRDOJfJu4GmC2DulcBfEYSU+6DjeKhGcDwFgIE3LVQnyNsnbQQVBf7iCMiemVDg0O2JVG8oNZhUu7ogy1ifoSgct3VRFRVHh96oiOMb7yDPg+gSxJxUQdJd5sVpc0hhzgaEDKHjxD/wML4egU4MgDFmSAVjZSWYVBE1edvnr9ghis+JrVew/IvUlfPLNFYLD7qSLizZIJIJOEncRQaxx7kEfEn8DgwQXryIISgeGDkcQJK9YFT47CFPXbBskyfI0IIi/VNKGPUgzXEWC0kB8UIJy42IKVQmKekrlUSPolRCU2uCD1MCrCIIvmA4UHoygCyOxmDUlCbpp+XIvFvWUyvNBaSTJJQj1kFxJeXyuim7NcFk1kLK79Alu1Aj6n6Bi0liMU9PJMq2FCsGB0kiSSxBdq2T2C44kSyWCK4ySyP34YAS9EUYxiHCosXKpRiSU9WZcfYL4M0kHQTGlTAL0A1j7ryY4xRolPNwGBLE7FBEc4uwl2Y93kgeWVRVBR/71oIgqbRCzU5xQ/A16JThiCrlbK+zHifH4cG1waIQYFhD9eJYO4BYQFCU08wiWRxZy22CYbf4D2XFUyX7D+E7i2odsg8YAS82v/gjjmlPQjQsJsvsvWJ2T80RVgsLL4n/ZyaVTIYgxxkQJDkqQ5zHxgK7BX0sZ1iGIjgWJ7cKmIEadTxCNGLeEWDjs10oZmGiZPG5nWiPo5BEMeZiEI8KecyOWGh8n3D2oIDjChQ4ynk8IRE4zBDEXKkUCidnu3TAc3uJ7GXw0CWo5rNzPDcsJuu0Q5PEg4UTs0JJ4q2kYhsPF/c63+QCJBIXHJRHksbdouu3yuqq1wcgsY/snvufzdUd+bzWCaJl4WP3ABDGoK7zQKZ+W2L5PPM+h9fKwzVURXEkLKF6oQ5AHh5OyRRBRMY+a9+NNywRz7aBhbNG14BfcrLP14LapimAorfOB06NK0Jg66RUskghjKxJEy2T626MQFCtLfPTa5Lygcr1QI2gskifDiKhM0NjupfcDS5kDyrn83DIV5Cy0TRCnU6KnGsOX1Kve7WA8kgj6hQSN6c4jdAXTtYm3Y0OJHdDFT+8JD/mfT+XxLJCkBnuPLbK6tuNL2SvG6Ck+L8g8kcP+vuZNYLz2Yj3FCAbwNSdIM2Oi29v4mbDPHr/gLZyBQ9iS5vZEl8NKT4L4e/5Ezojdz/fWoajHS1wPGlKwiW+u+KTl4YmtBAuC8edIokbT++XLbj9e3eJZ29FomFj8NIagPIJReTaryW63X94PwtQ3cFo6GyqEv4scm+GIaZv7dfr2meLgGXj/bXzXLb/AKHPCFpQs8WgzG+9f9pOlAMGOZTTEoXj//wMRDG0PeKUEtwAAAABJRU5ErkJggg==;" vertex="1" parent="1">
          <mxGeometry x="396" y="130" width="288" height="140.86" as="geometry" />
        </mxCell>
        <mxCell id="zemKmCcNjwJqudbQ4LHM-9" value="" style="shape=image;verticalLabelPosition=bottom;labelBackgroundColor=default;verticalAlign=top;aspect=fixed;imageAspect=0;image=data:image/png,/9j/4AAQSkZJRgABAQAAAQABAAD/2wCEAAkGBxISEhUTEBIVFhUVGB0VGRYYFRUaFxUZGBgWFxceFxcYISggGBolHRcVITEhJSkrLi4uGB8zODMtNygtLisBCgoKDg0OGhAQGi0lICUtLS0tLS0tLS0tLS0tNy0tLS0vLS0tKy0tLS0tLS0tLS0tLS4vLS0tLS0tLS0tLS0tLf/AABEIAHYBqgMBIgACEQEDEQH/xAAcAAEAAwADAQEAAAAAAAAAAAAABQYHAwQIAgH/xABREAABAwICBQcGCAsGBAcAAAABAAIDBBEFEgYHEyExIkFRYXGBkRQyNXOhsiM0UmJygrGzCDNCQ3SDkqLBwsMVJERTVNE2Y5PSFiWjtOHw8f/EABkBAQEBAQEBAAAAAAAAAAAAAAABBAIDBf/EACwRAQACAgAEBAUEAwAAAAAAAAABAgMRBCFBYRIiMVETMkJxsZGh0fAFI4H/2gAMAwEAAhEDEQA/ANwREVQREQEREBERAREQEREBERAREQEREBERAREQEREBERAREQEREBERAREQEREBERAREQEREBERAUTpTiPk9M94842jZ9N5DG+037lLLP8AWFW56zD6QHjOyZ46muAbf949y9MNPFeI/vJze3hrtfo22AHQLeC+kReboREQEREBERBk8eucF4Z5Gd7g2+1HO61/NWsLyXS/j2etb74XrRSEidofS3HPIaWSpLM+zy8m9r5ntZx+tfuVY0K1kjEKnycUxj5DpM20zeaWi1rD5S72t30TU/q/vo1l+pH0n+ok+2NCZ5vQIRQmOaV0dG9rKqYRucMwBDjcXtzBcdRpnQsgZUPqGiOS+Q77vymxystmO8dCKn1w1k2SN77XyNLrdNgT/BVrDNYuGzvEbKgBxNhna5gJ6i4WVmqMuR2fzcpzfRsb+xBm2jutsVVRDB5IWbZwbm2oOW/Pa29T2n+m4wzY3hMu2z8H5cuTJ1G98/sUXgFZo+6oiFIyETF3wdo3g5rE7iRu3XUF+EDxov139FDov+g2k4xGnM4iMdpDHlLs3mhpvew+UrEs71Gejn/pD/cjVlxrTOhpJNlUTta+2bLZziAeF8oNkE3Uy5GOda+VpdbpsLrN9G9bAq6mGnFKWbV2XNtAbcku4ZepXKlxyCsppZKZxewNc3NlcASGm9i4C/cvP2rT0nR+s/pvRJnWm06facjDHQgwGXahx8/LbLl6jfzlIaDaUf2jA6cRbOzzHlzZuAab3sOldfTabC2GI4o2Mk5hHna53RmtbuXc0PloXQF2Ghohzm+VpaM4Azbj1WRU8irVPp7hz5WwsqAZHP2YblfvdfLbh07l8YtrBw6meY5KgF43EMa5+UjiCWiwPUmxaFVdPtMRhjInmEy7RxZbNltZua/A3UngOktJWAmlma/LxbvDm9rTvC6Oms2HNjjOJtYWZiGZ2l3Kym9rdQQcWgWmAxNkrxCYtm4NtmzXuL34CyrOI63RFUyU/khOzldDm2o35Xll7Zeq6tmhMuHPZIcMawMzAPyNLeVbde/UV5/0k9JVP6XJ985RJnT1Ii+JJQ1pc4gAC5JNgAN5JKqrNZGGEhram5JsAGSG5O4WsN91VW1FFY1pFTUjGPqpNm15s24dvNr2sBuNl9YFj9NWNc+lkEjWOyuIBFjYG28dBVEmii8e0hpqJrXVUojDzlaSCbkC54DoX7gePU9Yxz6WQSNa7KSARY2Btv6iEEmirI0+w4y7HykbTPs8uV/nXy24dO5fuM6eYfSvMc1QM43FrA55aeh2UGx6lNiyoofANJ6StBNLM15bvLd4e0dJad9utRuKaw8Np3lklQC4GxDGufY9BLRZBakUVgWkdLWNLqWZr7cRwc2/S07wpVUEREBERARFXtINNKKieI6mUteRmDQx7txJAPJHUUFhRdHBMWiq4WzwEmN97EggmxIO47+Zd5ARRekGkNPRMbJVPyNc7KDlcbmxNrAdAK4NG9KqWv2hpXucIyA67HN865Fs3HgVBNFY9FV+U6Rh3Fsby0dQjYR72Y961uuqBHG+Q8GNLvAErENUl5MTzu3nJI8nrNr+8tvC18mS/bX6s+efNSvf8N2CIixtAi+JZQ0FziAALkk2AA3kk9CgNHdNaKtc5kEvLaSMj+S5wB85oPnNPHcoLEiBFQREQeS6X8ez1rffC9aLyli9I6mqpI3DlRSnvyuu3xFj3r05gGLxVcDJoXBzXgE24tPOCOYgqOa9Vf1u+ian9X99Gsv1I+k/1En2xq867MbjZRmlDgZZnNOUcWsY4PJPRvACq+ojDnOqpp7cmOLZ3+c9zT9jPahPrD619/Gqf1TvfX1qz0DirqfyitL3MBMcUYcQAATmNx84nd1FfOvv41T+qd76vWp8f+VQ/Sk+8ch9Usf1k6MMw+q2URJjewSNzG5bclpBPPYhbLoNXvnwiN8hJdsnsJPE5M7AT3BZ5r6+OQeo/qPV41Z+hGfQm9+RFj5mO6svSVH9P+Ryvn4QPGi/Xf0VQ9WXpKj+n/I5Xz8IHjRfrv6KOa/KjtD9MmYdhLw2zp5J37NnRyYwXu+aPadyidCNEZ8WqHT1DnbHNmllPnSu3EtaenpPMFzYFod5bhDpoW3qIZn2HPIzLGS3tFyR13HOuLVhpoaGbZTOPk0p5XH4J24ZwOYcx/8AhRfbbd5aSOGmdHEwMYyNwa0DcBlK856tPSdH6z+m9eka94MMhBuDG4gjgRlPBebtWnpOj9Z/TeqW9YXzX/8A4T9Z/IpvUf6Od69/usUJr/8A8J+s/kU3qO9HO9e/3WIv1MWlY81bhESHmchpBsQ4yEDf2rY3aoKPyfLmkNRl/G5jYvt8jha/N7Vk+Hek4/0sffL1EUSrzJoDWPgxKnLTYmUROHS15yOB6uB7lpGv34tTeuP3blmGjXpKn/Sm/ehafr++LU3rj925DpL61BfFqn1w9xqyzST0lU/pcn3zlqeoL4tU+uH3bVlmknpKp/S5PvnKHSF11q6dmocaOkdeIG0j2/nXb+QPmA+J6uNi1X6vvJg2qrG/DkXYw/mR0n55HgqRrR0PNDOJoRanlN22/NP3kt6hzjv6FomqvTbyyLYTu/vMQ4n86wbg76Q3A+POi9Ubr8+LU3rj7hTUF8WqfXj7tia/B/dqf1x9wrj1BTt2NUy/K2rX257FgF/FpVPqfuv78RS+td7i59QvxSf1/wDI1dDX7WMLaWEEZw50hHOG5cov2m/gu/qE+KT+v/kYh9TJMZa7y6YR7neUPDbbuVtTlt32Wwx6oaMwZXukM5FzNmNs54nJwIv3rJa/0m/9MP369RIkdXlDDHzxzhkLzHI92wJad/Lds3DsuVs0+qGiFOWtMm2Dd0uY2zAfI4WvzLI8P9JR/pjf/cBeo5OB7ChV5p1d1r4MTp8pIzSbJ4HBzXXaQe+x7l6YXmDRX0nB+kj3yvT6LX0ERFVEREBYNrz+Ps9S33nLeVg2vP4+z1LfecolvRpOqX0XT/X99yuCp+qT0XT/AF/fcrgkKzDX38Up/X/03rp6gPMrPpRfZIu5r7+KU/r/AOm9dP8AB/8AMrPpRfZIidV80+myYdUkf5ZH7Vh/FZhqUjvXSHogd7XxhabrBiLsOqQP8snwIP8ABULUhEA6qlP5LWNv0C7nH7AvoYZiOGv/AH2Zskbz0a8i/AVQ9aemvkUWxgd/eZRu/wCUzgXHr4gePMvntSr64NNsxNDTO5I/HPB84/5Y6hxPcOlcOqDQkyObXVDeQw3hafy3A+f9EHh0nsVc1daHuxGfNJfYRm8j+d7txyA9J4k9HavRUELWNDWNDWtFg0CwAG4ABEjnzfYX6iKqIiIKNp/q7jxA7aJ4iqALZiLskA4B4G8EfKHtWbHVhi8Tjsw3ozRz5b+6V6CRRJiGD4Zqir5H3qXxxNO9zs5keewAWJ6yVsejWAw0MDYIBZo3knznuPFzj07h4KVRFiNM21o6D1WITRSUxiDWMLTtHuabl191mncrPoBgstFRR085YXtLichJbynlwsSAeB6FYkQZrrQ0Fq8QqIpaYwhrI8h2j3NN85dus07rFWPQ3ApaXDm0spZtA2QEtJLeW55G8gHnHMrOiDGdDdV9dS1lPPK6nyROzOyyPLrZXDcCwX4jnVm1qaHVOI+T+TGIbLaZto5zfP2drZWuv5hWgIia5aVLVpo5NQUjoagsLzK6TkOLm2LWAbyBv5J5lU9O9VktRUmahMTRJvex7nNAfzluVp3HnHTfpWsoi6UvQbBq+npX0tY6FzQ0thcx7nEAg8l12jcL7jv3blTdDtV9dS1tPPK6nyRPzOyyPLrZXDcCwc5HOtmRNGlA1p6HVOI7DyYxDZ5820c5vnZbWytdfgpLVro7NQUhgqCwvMjn8hxc2xDQN5AN9x5lbUugxWk1WV7a1s5dT5BOJd0j82XaZ+GTjbrW1FEQYpg+qyvirIp3Op8jJmyG0j82UPzbhkte3WrprS0VqMRhhZTGMGOQvO0c5osWlu7K077lXdE0aUnVdotUYdDMypMZL5A8bNznCwaBvu0b9ypWL6q6+Wsmna6nySTvlF5H5srpC8XGTjYra0TRp0MbwmKqgfBMLseLHpB5iOgg71jtHqrxSnnbLTTU4MbszHmSQE2O7M0M5xxHWVuKITG1c0i0fOIUWwqsscpAddhLmskHO0kAubx5huKyqLVbi0El6eSIHgJGTvYbHp5Nx2b1vCJomNsaxTVJVPha4TslqnPvK+SR+TJlNg0lpc43tvNlcNV2i9Rh8EsdSYy58mcbNznC2UDfdo37ldUTRpilVqsr3Vjpw6nyGoMv4x+bLtM/DJxt1ra0RBidJqqr21jJy6nyNqGzG0j82USh/DJxsOlbW8XBX6iERpi+Carq+Gsine6nyMmEhtI8uy5r7hk4962hEQERFQREQFg2vP4+z1Lfect5WD69G/3+M9MLfecolvRpGqT0XT/X99yuCpmqCUOwuG35Je09RD3f7hXNIVmGvv4pT+v/AKb10/wf/MrPpRfZIuxr8lHk1MznMxd3NYQfeHiuvqAHIrD86P7Hon1NUr6YSxPjPB7Sz9oELMNUlMWwV7HCzgchHWGPBWqlVTBsO2FXiAA5MoZMPrNeHfvNK96X/wBd6++vy8713aJ+7t4LiskuHtmiaJJREbMvbNIwFtr81yPavOWIVclRUukq3kPfJ8I7KSWb7Os35o3BvVZbhqmrc0EsR/NvDh2PB/i0+Kr2uLQrjX0zfXsA4/8AMH8fHpWas7hxw9/iYa27NL0Zw6ngpoo6WxiygtcDfPfeXE85PFSiw/VHpvsHCjqXfBPPwTyd0bj+T9Fx8D2rcLrpo3sREVBERAREQEREBERAVB10Uj3UG1ic5roZGuOVxaSx12G9uO9zT3K/KP0gw4VFNNCfzkbm95G722UEHqtxM1GGwOcSXMBicSbklji0EnnJblPerJiNW2GKSV/mxsc89jQSfsWV6hcQNqmlfuc0tlA6L3Y8dxDfFT+ufFdjhzoweVO4R/VHKf7BbvQieW2Q0uMVccjMQc+QxmpduL3EEi0j25b2tlfb/wDF6YhlDmhzTcOAcD0gi4WW4zopl0eZGG/CxNbUkc+YnNIO3K5w7grHqmxfyjDornlQ3hd9XzT3tLUgh8628UMGHSZXFrpXNiaQSDvN3WI+a0rm1VUjmYbC6RznOlvKS4kmzjyd5+bZU/XbOZqiio2cXOzEdcjmxs/mV/0kndRYdK6nIa6CDkEgEDIABuPHggiK7Q2d+KNrhU2iaWkw8vflblPPl9i+dKdDJ6quhqo6rZsi2d4+XytnIXngQN4Nt659VuPT11G6apcHPErmXDQ0ZQ1hG4dpUrpviMlNQ1E0JAkjZmaSAQDccx4oJwIqrqzxuasoWzVLg6Qve0kNDRZpsNwVFOsyshraqF7dsGvkigiawAl4lysuW7yMoPWU2NkRZ1o7VY/JK41UbGRuikyDLGA2S3wV95da/SusItKPl0v7n/amxpyz/XZM5mHgsc5p2zBdriDwdzhVHHNLsdpZmU8ksDpn2ysjYx5uTZoNhuJ6FaNdd/7MZm87ax37crrok+krNoA4nDqQuJJMTSSSST2k8VYFkWiuMYnV0sNPhbY4o4I2xyVEo3F4G9rBY8Ljm8ExPSLGsJex1cYqiB7spc0d5AcA0tda9rgg2TatdRR9FijJ6YVEJu18edp7id46QdxHUqbqm0qqq/yjyp7XbMtDbMa2181+HHgE2NCRdbEZSyKRzeLWOcO0NJCo+qLSmqr453VT2uLHMDbMa2wc0k8EGgosp0r1g1NFipicQ6mYATGGNzuzRkgB3Hz8q7eB4rj09TFJLA2Klc67m5WAhhvxzEuvw6OxNjS0Wc6d6fSw1DaHDmCSpcQCSMwYXcGtF97rWJvuAXHHS6SxN2pmppSN5gI3kdAIYBfscmxpSLI8K1jVVVilPAz4OGQhkkTmNzNe1rzIM3Hi1a4EBERUEREBZdrw0efLFHVxgkwXbIBxyOIId9Ug/tLUV8vaCCCLg7iOYhQeftWenYw8vinDnQSHPdu90brAEhvOCALjqWoS60cKDcwqS75oimzeBaFF6Rao6SdxfTvdTuO8tAzR36mne3sBsq63UnNffWR26onX8LonOFR090sdiVQH5S2NgyxM4mxtcn5xIHsWyaqdHnUdCNqMskx2rweLbgBoPWGgeK4tFdWVJRuErs08rd4c8DK09LWDdfrN1eAhEdZCuCeMWc62/KRfqFyudcVT5ruw/YUWWV6qKjLVPZ8uM+LSD/ErV5GBwIcAQRYgi4IPEFY5qz+Pst8h32LZVxj9Hz/8XO8H/ZedtZmhpoJ88Q/u0pJYfkO3ksP2jq7Ff9Uum/lLBSVLvh4xyHH86wdJ+W32jf0q9Y7hEVXA+Cdt2PFusHmI6CDvVE0W1SxU0jZp53ySRuzMDLxtBBu0kjlHsuAu2/XNpYRfgX6qoiIgIiICIiAiIgIiIMXwj+46SSR8GTktHQRM0SN/f3LtawD5djVHRDe2KxeOYZrSPv8AUY3x61+a6qYwVVHWs4hwaSOmJwkb7My+tUrDWYhW4g8c9m9RkJNu5jWjvXKdmsywtc0scLtcC0jqIsR4LItUcrqTEKvDpD0lvW6MgfvMcD9VbCVjWsrNh+L09ewcl4BcBzlnIeO9hb4KrLlo2+XaSved7Kbh0DZNDR/6jnFX3WL6MrPUu+xU7UbRFwqqx/nTSZAewl77drnj9lX/AEqoDUUdRC3zpInNb2lpt7bIQqGoz0c79If7sandZnour9X/ABCz3VHpfT0cctLWP2R2pe0uBsDla1zXEDkkFvP0lSOsvTaGqppKWgcZiQHzPaHZI4mm55R3G5yjd0okeic1KejGetk95VDQWna/SKqLhcsfUPb1O2mW/g4+Kt+pX0Y31snvKrav/wDiGt7aj75qHs2VVrTvSuPDqcyGxlddsTPlOtxPzRxPgpvE65sET5pL5Y2l7rC5s0X3BYXhmNU2IYgavFp2xxR2McJzEGx5LbAHkjiek9SSq56r9FJC52JV13VE3KYHDewHi4jmcRa3QO1djXj6Ob65n2OUwNY2FD/GM/Zk/wC1QeuqZr8MY9hu10sbmnpBa4g+CE+if1Z0rY8MpgweczOetzyXE/8A3oXzrRp2vwuqzDzWZx1FpBCq+rTTSGCmjpK54gexuaN0lw2SJ29hDuA5x3Lg1oacQVEPkVC/bSTODXFlyLXBDWng5xNhu60Epqfmc7CnA8GvkA7LX+0lQ+oLhWdrP51edBsANJQR07/PLS6S3M59yR12vbuWXau8cZhNbU09deNrjlzEEhrmOdlJAucrgb37FD2bTi/4ib1b/dKzD8Hz8TVfSj9xymdLtPqZ8D6egk8oqJmuY1sYcQ0EHM5zrWFhfde6iPwfvxVX9OP3XKp1dDSKBsmk0LXi4LoyR05Y3OHtAW0LG8Z/4og7WfcvWyIQxPVeNtjVVLJvc0TOF+natZ7AbLbAsSxqKTBcXNZsy6mmcbkcLSEF7epwdvAPFXqbWfhYi2gqMxI3Rhkm0J6MpG49Z3Iqj11M2PSiMM3ZpA8gfKdE7N48e9bWsAwaaeXSCCWpYY3yy7UMPFrDE/Zg9BygLf0hI6i4552sBc9wa0cSSAB2krkX49oIsRcdBVVH/wBu0v8AqYf+rH/uu1S1kcovE9rx0tcHDxCqOkeraiqbujbsJDvzRgZSetnDwss6r9FMTwx5lgLywb9pCTa3z2cfEELVjw4skeW+p7vC+S9J513HZvSLIdHtbb22bWxBw/zI9zu9nA9y0jBNIqarF6eZr+lvB47WneF55eHyY/mh3TNS/wAspZEReL0EXy9wAuTYDeSeAVIx/WdR05LIrzvG45NzAfpnj3XXdMdrzqsbc2vWsbtK8qO0iqdlSzv+TG63blIHtIWYjXHLffSMy9G0dfxy/wAF2Mf1hQ1tG6KNj2SOLQ5p4Zb3NnDjvAHeu83DZcdZtaOTNl4rHGO0xPR+6paTNUSSc0bLd7z/ALNK1ZVTVzhZhpGucLOlO0PZwZ7N/erWs1I1BwOP4eCsT9/1ERQ+OaT0tIL1EzWn5Au557GjevSKzadRDVMxEblMErr1VbFELyyMYDwLnNbfxKybSHWzK+7KKMMHDaP3vPY0bh7VEYboZiWIu2tQXtad+0mJJ3/JZxt4Ba68HMR4ss+GP3Z54iJnVI22f+3qX/Uwf9WP/ddgYhEd4kZb6TVV9G9XVFS2c5m2kH5cgBAPzWcB9qt4YOhZ7xSJ8szL3r4teZ9IiLzdCIiAiIgIiIOji2EQVTQypiZI0HMGuFwDYi/bYnxTCcIgpmllPEyNpOYtaLAncL+wLvIoCj8XwWnqg1tTCyUNN2hwvYkW3KQRUdTDMNhp2COnjbGwEnK0WFzvK7aIghMV0Soal2eelje8/lZbOPaRxXNT6OUkcToI6eNsTxZ7A0WePnc5Uqimh1MLwyGmZs6eNsbLk5WiwueK69HgFLFM6eKBjZX3zSAcp2Y3dc9Z3qTRBxVdMyVjo5GhzHjK5p4EHiCoH/wJhn+ih/ZVjRUVw6CYZ/oof2VJ1+CU80TYZoWPjZbKxwu0ZRZu7qCkEU0Iev0Xo5o2RS00bmRjKwFvmAczSN4C+cG0UoqR2ampo2O4ZrXd+0bkKaRNAorGNHKSqINTTxyEbg5zeUB2jepVFRE4Vo1SU1/J6eOPMLEhu8g8QSd9ly4RgVNShwpYWRB1swYLXtuF/FSKKCMk0fpXTipdAwzttaS3KFhYb+y4UkV+oqM+x7TjYYj5DWQRimfb4V1yCHN3EtIy2zXBPNZT0dHhVONu1lJGBytoNn4g/wCy72PaOUta0MqohIBwO8Obf5Lm2IVXZqhwoG+zlPVtX29m/wBqhzVfRBxxHHpa1gOxhzEOI48gxR95uXWWyrpYRhMFLGIqaJsbBzN5+sk7yesrupAIiKghREFY0h0Fo6y5fHkkP5yOzXX6xwd3hZpjmrOtpnbSldtmjeCwlsrfq8/cVuS/LLRi4rJj5RO49peOTBS/rHNhOFax8QpTs5/hQ3cWygh4+tx8bq2s1wU2S7qeYP8AkjIW/tXvbuV4xjAKaqGWpha/rIs4djhvHiqdLqjoy+7ZZms+Rdp/eIuvf4vDX53rqezy+Hnryrbf3UPGtKK/FZNjG12Rx3Qx3sR0vPP2mwVn0d1SXAdXSm/+XGeHU55H2eK0XA8Bp6NmSmjDBzni530nHeVJgLm/GTEeHFHhj93VeGjfiyTuVPdq1w3LbYHt2kl/G6oGK6IhlXJS0GaQtZnIeW7ja9s1h0t7ytqq52xsc95s1gLieoC6ruhWGOa19TMLTVLs5B4tYTdrfDf4LJbNkt5Zncd3nxHD1yTWkR3n7R/MsqwHTOuw1+xma5zGmxhkuHN+geI9oVxn1v02S8dPMX9DiwNB+kCSfBXTH9G6asZlqIw4jg4bnt7HDf3cFU6XVJRtfd8kz2/IuB4loutvxeGyea9dT26uvh5qcqTuO6k4prBxGsds4bxh24MhaS8/W3uPdZdvAdV1XOc9U7YtO83OaV3Tu4DtJ7lr2E4JT0zctPCyMdQ3ntcd57yu+AubcZ4Y1irr8rHDbneSdq7o9oVR0djFFmePzj7Offq5m9wVjRFktabTu07aYiIjUCIi5UREQEREBERAREQEREBERAREQEREBERAREQEREBERAREQEREBERAREQEREBERAREQEREBERAREQdHE6UStEbvMcbuHymjfbsJtfquu41EUTUb2+kRFVEREBERAREQf/Z;" vertex="1" parent="1">
          <mxGeometry x="692" y="292" width="426" height="118" as="geometry" />
        </mxCell>
        <mxCell id="zemKmCcNjwJqudbQ4LHM-10" value="" style="shape=image;verticalLabelPosition=bottom;labelBackgroundColor=default;verticalAlign=top;aspect=fixed;imageAspect=0;editableCssRules=.*;image=data:image/svg+xml,PHN2ZyB4bWxucz0iaHR0cDovL3d3dy53My5vcmcvMjAwMC9zdmciIHZpZXdCb3g9IjQuNzY4MzcxNTgyMDMxMjVlLTcgMy45OTk2MDMyNzE0ODQzNzUgMTg1Ljk5OTk2OTQ4MjQyMTg4IDYyLjAwMDM5NjcyODUxNTYyNSIgaGVpZ2h0PSI2Mi4wMDAzOTY3Mjg1MTU2MjUiIHdpZHRoPSIxODUuOTk5OTY5NDgyNDIxODgiIHZlcnNpb249IjEuMSIgaWQ9InN2ZzIiPiYjeGE7ICA8bWV0YWRhdGEgaWQ9Im1ldGFkYXRhOCIvPiYjeGE7ICA8ZGVmcyBpZD0iZGVmczYiLz4mI3hhOyAgPGcgc3R5bGU9ImRpc3BsYXk6aW5saW5lIiBpZD0ibGF5ZXI0IiB0cmFuc2Zvcm09InRyYW5zbGF0ZSgtNS45OTk5OTk2LDApIj4mI3hhOyAgICA8ZyBpZD0iZzM0NjkiPiYjeGE7ICAgICAgPHBhdGggaWQ9InBhdGgxNjgiIHN0eWxlPSJmaWxsOiMxYzQxODk7ZmlsbC1vcGFjaXR5OjE7ZmlsbC1ydWxlOmV2ZW5vZGQ7c3Ryb2tlOm5vbmUiIGQ9Im0gMTIyLjQyMDIyLDMwLjgyNjY2MiAwLC0xNS41OTQzNCAwLjA1NiwwIDMuNjk1NTQsMTUuNTk0MzQgNC4wMzE1LDAgMy44OTEyMiwtMTUuNTk0MzQgMC4wNTYzLDAgMCwxNS41OTQzNCA0LjExNTE5LDAgMCwtMjAuMjEzNDcgLTYuNTc5MTcsMCAtMy4zNTkyOSwxMy43NDYyOCAtMC4wNTYsMCAtMy4xNjM5LC0xMy43NDYyOCAtNi44MDMxNSwwIDAsMjAuMjEzNDcgNC4xMTU3OCwwIHogbSAtMjQuMDUzOTQ3LDAgMCwtMTUuNTk0MzQgMC4wNTU5OSwwIDMuNjk1ODI3LDE1LjU5NDM0IDQuMDMxMjEsMCAzLjg5MTIyLC0xNS41OTQzNCAwLjA1NjYsMCAwLDE1LjU5NDM0IDQuMTE1MTksMCAwLC0yMC4yMTM0NyAtNi41NzkxOCwwIC0zLjM1OTU4LDEzLjc0NjI4IC0wLjA1NiwwIC0zLjE2MzYsLTEzLjc0NjI4IC02LjgwMzE1NSwwIDAsMjAuMjEzNDcgNC4xMTU0ODUsMCB6IG0gLTEyLjU3OTE3NiwtMjAuMjEzNDcgMCwxNC4wNTQyNDEgYyAwLDIuMjM5NzIgLTAuODM5ODk0LDMuNDcxODU3IC0yLjY4NzM3MSwzLjQ3MTg1NyAtMS41NDAwOTksMCAtMi42MDM5NjYsLTAuOTgwMTY5IC0yLjYwMzk2NiwtMy40NzE4NTcgbCAwLC0xNC4wNTQyNDEgLTQuMjI3NDcxLDAgMCwxNC4zMzM5MTQgYyAwLDMuODA3ODE1IDIuMjQwMDExLDYuMjE1MjIyIDYuODg3NDMsNi4yMTUyMjIgNS4xNTEzNTUsMCA2Ljg1ODg0OSwtMy4xOTE2IDYuODU4ODQ5LC02LjIxNTIyMiBsIDAsLTE0LjMzMzkxNCAtNC4yMjc0NzEsMCIvPiYjeGE7ICAgICAgPHBhdGggZD0ibSA2LjAwMDAyOTksNjYuMDAwMDAxIDEyLjQwMDExNDEsMCAwLC0xMi4zOTk4MjMgLTEyLjQwMDExNDEsMCAwLDEyLjM5OTgyMyB6IiBzdHlsZT0iZmlsbDojMWM0MTg5O2ZpbGwtb3BhY2l0eToxO2ZpbGwtcnVsZTpub256ZXJvO3N0cm9rZTpub25lIiBpZD0icGF0aDE3MCIvPiYjeGE7ICAgICAgPHBhdGggaWQ9InBhdGgxNzQiIHN0eWxlPSJmaWxsOiMxYzQxODk7ZmlsbC1vcGFjaXR5OjE7ZmlsbC1ydWxlOm5vbnplcm87c3Ryb2tlOm5vbmUiIGQ9Im0gNTEuNDY2NjAyLDUzLjU5OTc3IDAsLTEyLjQwMDExNCAxMi4zOTk4MjMsMCAwLDI0Ljc5OTkzNyAtMjQuNzk5NjQ2LDAgMCwtMTIuMzk5ODIzIDEyLjM5OTgyMywwIHoiLz4mI3hhOyAgICAgIDxwYXRoIGlkPSJwYXRoMTc4IiBzdHlsZT0iZmlsbDojMWM0MTg5O2ZpbGwtb3BhY2l0eToxO2ZpbGwtcnVsZTpub256ZXJvO3N0cm9rZTpub25lIiBkPSJtIDE4LjQwMDExNCwyMC41MzI5OTIgMCwxMi4zOTk4MjMgLTEyLjQwMDExNDQsMCAwLC0yNC43OTk5Mzc0IDI0Ljc5OTkzNzQsMCAwLDEyLjQwMDExNDQgLTEyLjM5OTgyMywwIHoiLz4mI3hhOyAgICAgIDxwYXRoIGQ9Im0gMTM0Ljc5OTA3LDQyLjk3NDM0MSAtMS4wOTY1MiwwIDAsMS4yMTI4OSAxLjA5NjUyLDAgMCwtMS4yMTI4OSB6IG0gLTQuOTY5MzcsMTAuNjI2NzEyIDEuMDg0ODYsMCAwLjYyOTkyLC0yLjAwNjQxNiAzLjI1NDU5LDAgMC42MDY2LDIuMDA2NDE2IDEuMjAxNTEsMCAtMi43NDEzMiwtOC40MjE5ODggLTEuMzY0ODMsMCAtMi42NzEzMyw4LjQyMTk4OCB6IG0gNC42Nzc3NCwtMi45Mzk2MzIgLTIuNjk0NjYsMCAxLjMxODE3LC00LjQ5MDgxMyAxLjM3NjQ5LDQuNDkwODEzIHogbSAtMS43NjE0NCwtNy42ODcwOCAtMS4wOTY1MywwIDAsMS4yMTI4OSAxLjA5NjUzLDAgMCwtMS4yMTI4OSB6IG0gLTQyLjM3OTQwNiwyMC4wODQ1NyAtMi42OTQ2NjIsMCAxLjMxODE2OCwtNC40OTExMDUgMS4zNzY0OTQsNC40OTExMDUgeiBtIC00LjY3Nzc0NywyLjkzOTYzMiAxLjA4NDg2NCwwIDAuNjMwMjEzLC0yLjAwNjcwOCAzLjI1NDMwMSwwIDAuNjA2NTksMi4wMDY3MDggMS4yMDE1MTcsMCAtMi43NDEzMjQsLTguNDIyMjc5IC0xLjM2NDgyOSwwIC0yLjY3MTMzMiw4LjQyMjI3OSB6IG0gMjMuNTIwODQzLC0xOS44ODYyNjEgMS42MjE0NywwIGMgMC44MjgyMywwIDEuMTMxNTIsMC42NzY1ODIgMS4xMzE1MiwxLjI4Mjg4MSAwLDAuNzM0OTA4IC0wLjM3MzI4LDEuMzk5ODI1IC0xLjE0MzE5LDEuMzk5ODI1IGwgLTEuNjA5OCwwIDAsLTIuNjgyNzA2IHogbSAxLjI1OTg1LDMuNjE2MjE0IGMgMC4zNjE2MiwwIDEuMTg5ODUsMC4wNDYzNyAxLjI3MTUsMS4wNzI5MDcgMC4wOTMzLDEuMTIwMTUyIDAuMDIzMywyLjIxNjM4OSAwLjMyNjM0LDIuNzk5NjUgbCAxLjExOTg2LDAgYyAtMC4xNjMwMiwtMC41MjQ5MzUgLTAuMjc5NjgsLTEuODQyODExIC0wLjI5MTM0LC0yLjIwNDQzMyAtMC4wNTgzLC0xLjY5MTc0NiAtMC40MDg1NywtMi4wMTgzNzIgLTEuMzc2NDksLTIuMTcwMDIgMC45OTE1NCwtMC4xOTgwMTcgMS41Mzk4LC0wLjk1NjU0NyAxLjUzOTgsLTEuOTQ4MDg5IDAsLTEuMDQ5ODY5IC0wLjUyNDkzLC0yLjA5OTQ0NiAtMi4wMTgwOCwtMi4wOTk0NDYgbCAtMi45MDQ2MywwIDAsOC40MjE5ODggMS4wNzMxOSwwIDAsLTMuODcyNTU3IDEuMjU5ODUsMCB6IG0gNTYuMzc4NTIsLTMuNjE2MjE0IDEuNDExNDksMCBjIDEuMTE5ODYsMCAxLjY0NDUxLDAuNjI5OTIxIDEuNjQ0NTEsMi4zMzI3NDkgbCAwLDEuNzAzMTIxIGMgMCwxLjk1OTc1NCAtMC41NDc5OCwyLjUxOTY4NCAtMi4wNDExMiwyLjUxOTY4NCBsIC0xLjAxNDg4LDAgMCwtNi41NTU1NTQgeiBtIC0xLjA3MzIsNy40ODg3NzEgMS45MzYxNCwwIGMgMS40NzAxLDAgMi4zMjEzNywtMC4zNjE2MjIgMi43NzY2MSwtMS4wODQ1NzMgMC4zNDk5NSwtMC41NjAyMjEgMC41MTMyNywtMS41OTgxMzMgMC41MTMyNywtMy4zOTQ4NjcgMCwtMC4yNjgwMDggLTAuMDM1LC0xLjk0Nzc5NyAtMC4zNzMyOSwtMi42NTk2NjcgLTAuNDE5OTUsLTAuODk3OTI5IC0xLjE4OTg1LC0xLjI4Mjg4MSAtMi4yNjMwNSwtMS4yODI4ODEgbCAtMi41ODk2OCwwIDAsOC40MjE5ODggeiBtIC00MC44NDYzLDMuOTc1MjExIC0xLjA3MzIsMCAwLDguNDIyMjc5IDEuMDczMiwwIDAsLTguNDIyMjc5IHogbSAtMi45NTc3MSw4LjQyMjI3OSAwLC0wLjkzMzIxNyAtMy4zMzYyNSwwIDAsLTIuOTE2MzAyIDMuMDMyNjYsMCAwLC0wLjkzMzUwOCAtMy4wMzI2NiwwIDAsLTIuNzA2MDM2IDMuMjY2MjYsMCAwLC0wLjkzMzIxNiAtNC4zMzk3NSwwIDAsOC40MjIyNzkgNC40MDk3NCwwIHogbSAtMTAuNzE1MzcsMCAwLC0zLjg0OTUxOSAyLjk1MTMsMCAwLDMuODQ5NTE5IDEuMDczMiwwIDAsLTguNDIyMjc5IC0xLjA3MzIsMCAwLDMuNjM5MjUyIC0yLjk1MTMsMCAwLC0zLjYzOTI1MiAtMS4wNzMyLDAgMCw4LjQyMjI3OSAxLjA3MzIsMCB6IG0gLTQuMzY5NDksLTguNDIyMjc5IDAsNy4yMDg4MDUgLTMuMzAxMjYsLTcuMjA4ODA1IC0xLjUxNjQ4LDAgMCw4LjQyMjI3OSAwLjk1Njg0LDAgMCwtNy4zMDI0MiAzLjM0NzYzLDcuMzAyNDIgMS40Njk4MSwwIDAsLTguNDIyMjc5IC0wLjk1NjU0LDAgeiBtIC04LjEwMjA3NCwwIDAsNy4yMDg4MDUgLTMuMzAxMjU0LC03LjIwODgwNSAtMS41MTY0NzYsMCAwLDguNDIyMjc5IDAuOTU2NTQ3LDAgMCwtNy4zMDI0MiAzLjM0NzYyMiw3LjMwMjQyIDEuNDY5ODE2LDAgMCwtOC40MjIyNzkgLTAuOTU2MjU1LDAgeiBtIC0yMS4zNDkwNzgsMC45MzMyMTYgMi4zMzI3NSw3LjQ4OTA2MyAxLjAxNDg3MywwIDIuMzU2NjYzLC03LjQ4OTA2MyAwLjAyMzAzLDcuNDg5MDYzIDEuMDczNDkxLDAgMCwtOC40MjIyNzkgLTEuNzczNDAzLDAgLTIuMTQ2Mzk4LDcuMDY5MTE1IC0yLjE0NjEwNiwtNy4wNjkxMTUgLTEuNzM4NDA4LDAgMCw4LjQyMjI3OSAxLjAwMzUsMCAwLC03LjQ4OTA2MyB6IG0gMTEzLjYwODYxMiwtMTMuMzMwNDE1IDAsNy4yMDg4MDYgLTMuMzAwOTYsLTcuMjA4ODA2IC0xLjUxNjQ4LDAgMCw4LjQyMTk4OCAwLjk1NjU1LDAgMCwtNy4zMDI0MiAzLjM0NzkxLDcuMzAyNDIgMS40Njk1MywwIDAsLTguNDIxOTg4IC0wLjk1NjU1LDAgeiBtIC03LjE2Nzk4LDAgLTEuMDczMiwwIDAsOC40MjIyNzkgMS4wNzMyLDAgMCwtOC40MjIyNzkgeiBtIC0yLjk3MzE3LDAgLTUuMDI3NywwIDAsMC45MzMyMTcgMy45NDI4NCwwIC00LjA4MjUzLDYuMjc1NTg5IDAsMS4yMTMxODIgNS4yNjA3MiwwIDAsLTAuOTMzMjE3IC00LjI2OTQ3LDAgNC4xNzYxNCwtNi40MTU4NjMgMCwtMS4wNzI5MDggeiBtIC03LjAyNzk5LDAgLTEuMDczMiwwIDAsOC40MjIyNzkgMS4wNzMyLDAgMCwtOC40MjIyNzkgeiBtIC05LjgxMjE5LDguNDIxOTg4IDAsLTAuOTMzMjE3IC0zLjMzNjI1LDAgMCwtMi45MTYzMDEgMy4wMzI5NSwwIDAsLTAuOTMzMjE3IC0zLjAzMjk1LDAgMCwtMi43MDYwMzYgMy4yNjYyNiwwIDAsLTAuOTMzMjE3IC00LjMzOTQ2LDAgMCw4LjQyMTk4OCA0LjQwOTQ1LDAgeiBtIC0xMy4xOTg2LC03LjQ4ODc3MSAyLjMzMzA0LDcuNDg4NzcxIDEuMDE0ODgsMCAyLjM1NjM3LC03LjQ4ODc3MSAwLjAyMzMsNy40ODg3NzEgMS4wNzMyLDAgMCwtOC40MjE5ODggLTEuNzczMTEsMCAtMi4xNDY0LDcuMDY4ODI0IC0yLjE0NjQsLTcuMDY4ODI0IC0xLjczODEyLDAgMCw4LjQyMTk4OCAxLjAwMzIxLDAgMCwtNy40ODg3NzEgeiBtIC03LjkyNjIxLDQuOTgxMDQzIGMgLTAuMDIzMywwLjgwNDYwOCAtMC4wMjMzLDIuNzA2MDM2IDIuNDYxMzUsMi42ODI3MDYgMS4zODg0NiwwIDIuNjEzMDEsLTAuNTcxNTk1IDIuNjEzMDEsLTIuMzQ0NzA3IDAsLTIuNjcxMDQgLTMuNzc5NTMsLTIuNDAyNzQxIC0zLjc3OTUzLC00LjI1NzUwOCAwLC0wLjkwOTg4NiAwLjY1MzI2LC0xLjIzNjgwNCAxLjI5NDg0LC0xLjIzNjgwNCAxLjAxNDg3LDAgMS4zMDY1LDAuNjA2ODgyIDEuMjk0ODQsMS41MjgxNDIgbCAxLjEyMDE1LDAgYyAwLjA2OTcsLTEuNzE0Nzg1IC0wLjc5MzUyLC0yLjQ2MTM1OCAtMi4zMzMzMywtMi40NjEzNTggLTEuNDExNDksMCAtMi40NzMwMywwLjc5MzIzNCAtMi40NzMwMywyLjI4NjM4IDAsMi41MzEzNSAzLjc3OTUzLDIuMzIxNjY4IDMuNzc5NTMsNC4xODc4MDkgMCwxLjAwMzUgLTAuNjUzMjUsMS4zNjQ4MjkgLTEuNTA0ODEsMS4zNjQ4MjkgLTAuNjg4MjUsMCAtMS40MTE0OSwtMC4zNjEzMjkgLTEuNDExNDksLTEuNTA0NTIgbCAwLC0wLjI0NDk2OSAtMS4wNjE1MywwIHogbSAtNi40OTc4MiwtNS45MTQyNiAwLDAuOTMzMjE3IDIuMjE1ODEsMCAwLDcuNDg4NzcxIDEuMDczNDksMCAwLC03LjQ4ODc3MSAyLjIxNjM5LDAgMCwtMC45MzMyMTcgLTUuNTA1NjksMCB6IG0gLTEyLjI2NTk2LDAgMCwwLjkzMzIxNyAyLjIxNjEsMCAwLDcuNDg4NzcxIDEuMDczNDksMCAwLC03LjQ4ODc3MSAyLjIxNjEsMCAwLC0wLjkzMzIxNyAtNS41MDU2OSwwIHogbSAtMS42MzMxMywwIC0xLjA3MzIsMCAwLDguNDIyMjc5IDEuMDczMiwwIDAsLTguNDIyMjc5IHogbSAtNy45NDEzOCw1LjkxNDI2IGMgLTAuMDIzMywwLjgwNDYwOCAtMC4wMjMzLDIuNzA2MDM2IDIuNDYxMzYsMi42ODI3MDYgMS4zODgxNiwwIDIuNjEzLC0wLjU3MTU5NSAyLjYxMywtMi4zNDQ3MDcgMCwtMi42NzEwNCAtMy43Nzk1MiwtMi40MDI3NDEgLTMuNzc5NTIsLTQuMjU3NTA4IDAsLTAuOTA5ODg2IDAuNjUzMjUsLTEuMjM2ODA0IDEuMjk0ODQsLTEuMjM2ODA0IDEuMDE0ODcsMCAxLjMwNjUsMC42MDY4ODIgMS4yOTQ4MywxLjUyODE0MiBsIDEuMTE5ODYsMCBjIDAuMDcsLTEuNzE0Nzg1IC0wLjc5MzIzLC0yLjQ2MTM1OCAtMi4zMzMwNCwtMi40NjEzNTggLTEuNDExNDksMCAtMi40NzMwMiwwLjc5MzIzNCAtMi40NzMwMiwyLjI4NjM4IDAsMi41MzEzNSAzLjc3OTIzLDIuMzIxNjY4IDMuNzc5MjMsNC4xODc4MDkgMCwxLjAwMzUgLTAuNjUyOTYsMS4zNjQ4MjkgLTEuNTA0NTIsMS4zNjQ4MjkgLTAuNjg4MjQsMCAtMS40MTE0OSwtMC4zNjEzMjkgLTEuNDExNDksLTEuNTA0NTIgbCAwLC0wLjI0NDk2OSAtMS4wNjE1MywwIHogbSAtOC4zMTQ2NywyLjUwNzcyOCAwLC0wLjkzMzIxNyAtMy4zMzU5NiwwIDAsLTIuOTE2MzAxIDMuMDMyOTYsMCAwLC0wLjkzMzIxNyAtMy4wMzI5NiwwIDAsLTIuNzA2MDM2IDMuMjY2MjYsMCAwLC0wLjkzMzIxNyAtNC4zMzk3NSwwIDAsOC40MjE5ODggNC40MDk0NSwwIHogbSAtNS44MTA3MywtOC40MjE5ODggLTEuMDk2NTI4LDAgLTEuOTcxNDIsNy40MDcxMTUgLTEuOTQ4MDksLTcuNDA3MTE1IC0xLjE2NjIyOSwwIDIuNDM3NzM3LDguNDIxOTg4IDEuMjgzMTcyLDAgMi40NjEzNTgsLTguNDIxOTg4IHogbSAtNy43MTc3LDAgLTEuMDczMTk5LDAgMCw4LjQyMjI3OSAxLjA3MzE5OSwwIDAsLTguNDIyMjc5IHogbSAtNC4zMDUzMzYsMCAwLDcuMjA4ODA2IC0zLjMwMTI1MywtNy4yMDg4MDYgLTEuNTE2NDc3LDAgMCw4LjQyMTk4OCAwLjk1NjU0NywwIDAsLTcuMzAyNDIgMy4zNDc5MTQsNy4zMDI0MiAxLjQ2OTgxNiwwIDAsLTguNDIxOTg4IC0wLjk1NjU0NywwIHogbSAtMTIuMTg1NzY2LDUuMzQyMzczIGMgMCwyLjMzMzMzMyAwLjg2MzIyNSwzLjI1NDU5MyAyLjY0ODAwMiwzLjI1NDU5MyAxLjc4NDc3NiwwIDIuNjQ4MDAyLC0wLjkyMTI2IDIuNjQ4MDAyLC0zLjI1NDU5MyBsIDAsLTUuMzQyMzczIC0xLjA3MjkwOCwwIDAsNS4zODkzMjYgYyAwLDEuODQyODExIC0wLjU2MDIyMSwyLjMwOTQxOSAtMS41NzUwOTQsMi4zMDk0MTkgLTEuMDE0ODczLDAgLTEuNTc0ODAzLC0wLjQ2NjYwOCAtMS41NzQ4MDMsLTIuMzA5NDE5IGwgMCwtNS4zODkzMjYgLTEuMDczMTk5LDAgMCw1LjM0MjM3MyB6IG0gNTIuMDI5MTUyLDcuOTg4MDQyIDIuMzMzMDQsNy40ODkwNjMgMS4wMTQ4OCwwIDIuMzU2NjYsLTcuNDg5MDYzIDAuMDIzLDcuNDg5MDYzIDEuMDczMiwwIDAsLTguNDIyMjc5IC0xLjc3MzEyLDAgLTIuMTQ2MzksNy4wNjkxMTUgLTIuMTQ2MTEsLTcuMDY5MTE1IC0xLjczODQxLDAgMCw4LjQyMjI3OSAxLjAwMzIxLDAgMCwtNy40ODkwNjMiIHN0eWxlPSJmaWxsOiMyMzFmMjA7ZmlsbC1vcGFjaXR5OjE7ZmlsbC1ydWxlOmV2ZW5vZGQ7c3Ryb2tlOm5vbmUiIGlkPSJwYXRoMTgwIi8+JiN4YTsgICAgICA8cGF0aCBpZD0icGF0aDE4NCIgc3R5bGU9ImZpbGw6I2IxMWIxODtmaWxsLW9wYWNpdHk6MTtmaWxsLXJ1bGU6bm9uemVybztzdHJva2U6bm9uZSIgZD0ibSAzNC45MzMyMTQsMjAuNTMyOTkyIGMgMCwtOS4xMzEyMzIgNy40MDIxNTcsLTE2LjUzMzM4ODcgMTYuNTMzMzg5LC0xNi41MzMzODg3IDkuMTMxMjMyLDAgMTYuNTMzMzg4LDcuNDAyMTU2NyAxNi41MzMzODgsMTYuNTMzMzg4NyAwLDkuMTMxMjMyIC03LjQwMjE1NiwxNi41MzMzODkgLTE2LjUzMzM4OCwxNi41MzMzODkgLTkuMTMxMjMyLDAgLTE2LjUzMzM4OSwtNy40MDIxNTcgLTE2LjUzMzM4OSwtMTYuNTMzMzg5Ii8+JiN4YTsgICAgICA8cGF0aCBpZD0icGF0aDE4OCIgc3R5bGU9ImZpbGw6IzFjNDE4OTtmaWxsLW9wYWNpdHk6MTtmaWxsLXJ1bGU6ZXZlbm9kZDtzdHJva2U6bm9uZSIgZD0ibSAxMjIuNDIwMjIsMzAuODI2NjYyIDAsLTE1LjU5NDM0IDAuMDU2LDAgMy42OTU1NCwxNS41OTQzNCA0LjAzMTUsMCAzLjg5MTIyLC0xNS41OTQzNCAwLjA1NjMsMCAwLDE1LjU5NDM0IDQuMTE1MTksMCAwLC0yMC4yMTM0NyAtNi41NzkxNywwIC0zLjM1OTI5LDEzLjc0NjI4IC0wLjA1NiwwIC0zLjE2MzksLTEzLjc0NjI4IC02LjgwMzE1LDAgMCwyMC4yMTM0NyA0LjExNTc4LDAgeiBtIC0yNC4wNTM5NDcsMCAwLC0xNS41OTQzNCAwLjA1NTk5LDAgMy42OTU4MjcsMTUuNTk0MzQgNC4wMzEyMSwwIDMuODkxMjIsLTE1LjU5NDM0IDAuMDU2NiwwIDAsMTUuNTk0MzQgNC4xMTUxOSwwIDAsLTIwLjIxMzQ3IC02LjU3OTE4LDAgLTMuMzU5NTgsMTMuNzQ2MjggLTAuMDU2LDAgLTMuMTYzNiwtMTMuNzQ2MjggLTYuODAzMTU1LDAgMCwyMC4yMTM0NyA0LjExNTQ4NSwwIHogbSAtMTIuNTc5MTc2LC0yMC4yMTM0NyAwLDE0LjA1NDI0MSBjIDAsMi4yMzk3MiAtMC44Mzk4OTQsMy40NzE4NTcgLTIuNjg3MzcxLDMuNDcxODU3IC0xLjU0MDA5OSwwIC0yLjYwMzk2NiwtMC45ODAxNjkgLTIuNjAzOTY2LC0zLjQ3MTg1NyBsIDAsLTE0LjA1NDI0MSAtNC4yMjc0NzEsMCAwLDE0LjMzMzkxNCBjIDAsMy44MDc4MTUgMi4yNDAwMTEsNi4yMTUyMjIgNi44ODc0Myw2LjIxNTIyMiA1LjE1MTM1NSwwIDYuODU4ODQ5LC0zLjE5MTYgNi44NTg4NDksLTYuMjE1MjIyIGwgMCwtMTQuMzMzOTE0IC00LjIyNzQ3MSwwIi8+JiN4YTsgICAgICA8cGF0aCBkPSJtIDYuMDAwMDI5OSw2Ni4wMDAwMDEgMTIuNDAwMTE0MSwwIDAsLTEyLjM5OTgyMyAtMTIuNDAwMTE0MSwwIDAsMTIuMzk5ODIzIHoiIHN0eWxlPSJmaWxsOiMxYzQxODk7ZmlsbC1vcGFjaXR5OjE7ZmlsbC1ydWxlOm5vbnplcm87c3Ryb2tlOm5vbmUiIGlkPSJwYXRoMTkwIi8+JiN4YTsgICAgICA8cGF0aCBpZD0icGF0aDE5NCIgc3R5bGU9ImZpbGw6IzFjNDE4OTtmaWxsLW9wYWNpdHk6MTtmaWxsLXJ1bGU6bm9uemVybztzdHJva2U6bm9uZSIgZD0ibSA1MS40NjY2MDIsNTMuNTk5NzcgMCwtMTIuNDAwMTE0IDEyLjM5OTgyMywwIDAsMjQuNzk5OTM3IC0yNC43OTk2NDYsMCAwLC0xMi4zOTk4MjMgMTIuMzk5ODIzLDAgeiIvPiYjeGE7ICAgICAgPHBhdGggaWQ9InBhdGgxOTgiIHN0eWxlPSJmaWxsOiMxYzQxODk7ZmlsbC1vcGFjaXR5OjE7ZmlsbC1ydWxlOm5vbnplcm87c3Ryb2tlOm5vbmUiIGQ9Im0gMTguNDAwMTE0LDIwLjUzMjk5MiAwLDEyLjM5OTgyMyAtMTIuNDAwMTE0NCwwIDAsLTI0Ljc5OTkzNzQgMjQuNzk5OTM3NCwwIDAsMTIuNDAwMTE0NCAtMTIuMzk5ODIzLDAgeiIvPiYjeGE7ICAgICAgPHBhdGggZD0ibSAxMzQuNzk5MDcsNDIuOTc0MzQxIC0xLjA5NjUyLDAgMCwxLjIxMjg5IDEuMDk2NTIsMCAwLC0xLjIxMjg5IHogbSAtNC45NjkzNywxMC42MjY3MTIgMS4wODQ4NiwwIDAuNjI5OTIsLTIuMDA2NDE2IDMuMjU0NTksMCAwLjYwNjYsMi4wMDY0MTYgMS4yMDE1MSwwIC0yLjc0MTMyLC04LjQyMTk4OCAtMS4zNjQ4MywwIC0yLjY3MTMzLDguNDIxOTg4IHogbSA0LjY3Nzc0LC0yLjkzOTYzMiAtMi42OTQ2NiwwIDEuMzE4MTcsLTQuNDkwODEzIDEuMzc2NDksNC40OTA4MTMgeiBtIC0xLjc2MTQ0LC03LjY4NzA4IC0xLjA5NjUzLDAgMCwxLjIxMjg5IDEuMDk2NTMsMCAwLC0xLjIxMjg5IHogbSAtNDIuMzc5NDA2LDIwLjA4NDU3IC0yLjY5NDY2MiwwIDEuMzE4MTY4LC00LjQ5MTEwNSAxLjM3NjQ5NCw0LjQ5MTEwNSB6IG0gLTQuNjc3NzQ3LDIuOTM5NjMyIDEuMDg0ODY0LDAgMC42MzAyMTMsLTIuMDA2NzA4IDMuMjU0MzAxLDAgMC42MDY1OSwyLjAwNjcwOCAxLjIwMTUxNywwIC0yLjc0MTMyNCwtOC40MjIyNzkgLTEuMzY0ODI5LDAgLTIuNjcxMzMyLDguNDIyMjc5IHogbSAyMy41MjA4NDMsLTE5Ljg4NjI2MSAxLjYyMTQ3LDAgYyAwLjgyODIzLDAgMS4xMzE1MiwwLjY3NjU4MiAxLjEzMTUyLDEuMjgyODgxIDAsMC43MzQ5MDggLTAuMzczMjgsMS4zOTk4MjUgLTEuMTQzMTksMS4zOTk4MjUgbCAtMS42MDk4LDAgMCwtMi42ODI3MDYgeiBtIDEuMjU5ODUsMy42MTYyMTQgYyAwLjM2MTYyLDAgMS4xODk4NSwwLjA0NjM3IDEuMjcxNSwxLjA3MjkwNyAwLjA5MzMsMS4xMjAxNTIgMC4wMjMzLDIuMjE2Mzg5IDAuMzI2MzQsMi43OTk2NSBsIDEuMTE5ODYsMCBjIC0wLjE2MzAyLC0wLjUyNDkzNSAtMC4yNzk2OCwtMS44NDI4MTEgLTAuMjkxMzQsLTIuMjA0NDMzIC0wLjA1ODMsLTEuNjkxNzQ2IC0wLjQwODU3LC0yLjAxODM3MiAtMS4zNzY0OSwtMi4xNzAwMiAwLjk5MTU0LC0wLjE5ODAxNyAxLjUzOTgsLTAuOTU2NTQ3IDEuNTM5OCwtMS45NDgwODkgMCwtMS4wNDk4NjkgLTAuNTI0OTMsLTIuMDk5NDQ2IC0yLjAxODA4LC0yLjA5OTQ0NiBsIC0yLjkwNDYzLDAgMCw4LjQyMTk4OCAxLjA3MzE5LDAgMCwtMy44NzI1NTcgMS4yNTk4NSwwIHogbSA1Ni4zNzg1MiwtMy42MTYyMTQgMS40MTE0OSwwIGMgMS4xMTk4NiwwIDEuNjQ0NTEsMC42Mjk5MjEgMS42NDQ1MSwyLjMzMjc0OSBsIDAsMS43MDMxMjEgYyAwLDEuOTU5NzU0IC0wLjU0Nzk4LDIuNTE5Njg0IC0yLjA0MTEyLDIuNTE5Njg0IGwgLTEuMDE0ODgsMCAwLC02LjU1NTU1NCB6IG0gLTEuMDczMiw3LjQ4ODc3MSAxLjkzNjE0LDAgYyAxLjQ3MDEsMCAyLjMyMTM3LC0wLjM2MTYyMiAyLjc3NjYxLC0xLjA4NDU3MyAwLjM0OTk1LC0wLjU2MDIyMSAwLjUxMzI3LC0xLjU5ODEzMyAwLjUxMzI3LC0zLjM5NDg2NyAwLC0wLjI2ODAwOCAtMC4wMzUsLTEuOTQ3Nzk3IC0wLjM3MzI5LC0yLjY1OTY2NyAtMC40MTk5NSwtMC44OTc5MjkgLTEuMTg5ODUsLTEuMjgyODgxIC0yLjI2MzA1LC0xLjI4Mjg4MSBsIC0yLjU4OTY4LDAgMCw4LjQyMTk4OCB6IG0gLTQwLjg0NjMsMy45NzUyMTEgLTEuMDczMiwwIDAsOC40MjIyNzkgMS4wNzMyLDAgMCwtOC40MjIyNzkgeiBtIC0yLjk1NzcxLDguNDIyMjc5IDAsLTAuOTMzMjE3IC0zLjMzNjI1LDAgMCwtMi45MTYzMDIgMy4wMzI2NiwwIDAsLTAuOTMzNTA4IC0zLjAzMjY2LDAgMCwtMi43MDYwMzYgMy4yNjYyNiwwIDAsLTAuOTMzMjE2IC00LjMzOTc1LDAgMCw4LjQyMjI3OSA0LjQwOTc0LDAgeiBtIC0xMC43MTUzNywwIDAsLTMuODQ5NTE5IDIuOTUxMywwIDAsMy44NDk1MTkgMS4wNzMyLDAgMCwtOC40MjIyNzkgLTEuMDczMiwwIDAsMy42MzkyNTIgLTIuOTUxMywwIDAsLTMuNjM5MjUyIC0xLjA3MzIsMCAwLDguNDIyMjc5IDEuMDczMiwwIHogbSAtNC4zNjk0OSwtOC40MjIyNzkgMCw3LjIwODgwNSAtMy4zMDEyNiwtNy4yMDg4MDUgLTEuNTE2NDgsMCAwLDguNDIyMjc5IDAuOTU2ODQsMCAwLC03LjMwMjQyIDMuMzQ3NjMsNy4zMDI0MiAxLjQ2OTgxLDAgMCwtOC40MjIyNzkgLTAuOTU2NTQsMCB6IG0gLTguMTAyMDc0LDAgMCw3LjIwODgwNSAtMy4zMDEyNTQsLTcuMjA4ODA1IC0xLjUxNjQ3NiwwIDAsOC40MjIyNzkgMC45NTY1NDcsMCAwLC03LjMwMjQyIDMuMzQ3NjIyLDcuMzAyNDIgMS40Njk4MTYsMCAwLC04LjQyMjI3OSAtMC45NTYyNTUsMCB6IG0gLTIxLjM0OTA3OCwwLjkzMzIxNiAyLjMzMjc1LDcuNDg5MDYzIDEuMDE0ODczLDAgMi4zNTY2NjMsLTcuNDg5MDYzIDAuMDIzMDMsNy40ODkwNjMgMS4wNzM0OTEsMCAwLC04LjQyMjI3OSAtMS43NzM0MDMsMCAtMi4xNDYzOTgsNy4wNjkxMTUgLTIuMTQ2MTA2LC03LjA2OTExNSAtMS43Mzg0MDgsMCAwLDguNDIyMjc5IDEuMDAzNSwwIDAsLTcuNDg5MDYzIHogbSAxMTMuNjA4NjEyLC0xMy4zMzA0MTUgMCw3LjIwODgwNiAtMy4zMDA5NiwtNy4yMDg4MDYgLTEuNTE2NDgsMCAwLDguNDIxOTg4IDAuOTU2NTUsMCAwLC03LjMwMjQyIDMuMzQ3OTEsNy4zMDI0MiAxLjQ2OTUzLDAgMCwtOC40MjE5ODggLTAuOTU2NTUsMCB6IG0gLTcuMTY3OTgsMCAtMS4wNzMyLDAgMCw4LjQyMjI3OSAxLjA3MzIsMCAwLC04LjQyMjI3OSB6IG0gLTIuOTczMTcsMCAtNS4wMjc3LDAgMCwwLjkzMzIxNyAzLjk0Mjg0LDAgLTQuMDgyNTMsNi4yNzU1ODkgMCwxLjIxMzE4MiA1LjI2MDcyLDAgMCwtMC45MzMyMTcgLTQuMjY5NDcsMCA0LjE3NjE0LC02LjQxNTg2MyAwLC0xLjA3MjkwOCB6IG0gLTcuMDI3OTksMCAtMS4wNzMyLDAgMCw4LjQyMjI3OSAxLjA3MzIsMCAwLC04LjQyMjI3OSB6IG0gLTkuODEyMTksOC40MjE5ODggMCwtMC45MzMyMTcgLTMuMzM2MjUsMCAwLC0yLjkxNjMwMSAzLjAzMjk1LDAgMCwtMC45MzMyMTcgLTMuMDMyOTUsMCAwLC0yLjcwNjAzNiAzLjI2NjI2LDAgMCwtMC45MzMyMTcgLTQuMzM5NDYsMCAwLDguNDIxOTg4IDQuNDA5NDUsMCB6IG0gLTEzLjE5ODYsLTcuNDg4NzcxIDIuMzMzMDQsNy40ODg3NzEgMS4wMTQ4OCwwIDIuMzU2MzcsLTcuNDg4NzcxIDAuMDIzMyw3LjQ4ODc3MSAxLjA3MzIsMCAwLC04LjQyMTk4OCAtMS43NzMxMSwwIC0yLjE0NjQsNy4wNjg4MjQgLTIuMTQ2NCwtNy4wNjg4MjQgLTEuNzM4MTIsMCAwLDguNDIxOTg4IDEuMDAzMjEsMCAwLC03LjQ4ODc3MSB6IG0gLTcuOTI2MjEsNC45ODEwNDMgYyAtMC4wMjMzLDAuODA0NjA4IC0wLjAyMzMsMi43MDYwMzYgMi40NjEzNSwyLjY4MjcwNiAxLjM4ODQ2LDAgMi42MTMwMSwtMC41NzE1OTUgMi42MTMwMSwtMi4zNDQ3MDcgMCwtMi42NzEwNCAtMy43Nzk1MywtMi40MDI3NDEgLTMuNzc5NTMsLTQuMjU3NTA4IDAsLTAuOTA5ODg2IDAuNjUzMjYsLTEuMjM2ODA0IDEuMjk0ODQsLTEuMjM2ODA0IDEuMDE0ODcsMCAxLjMwNjUsMC42MDY4ODIgMS4yOTQ4NCwxLjUyODE0MiBsIDEuMTIwMTUsMCBjIDAuMDY5NywtMS43MTQ3ODUgLTAuNzkzNTIsLTIuNDYxMzU4IC0yLjMzMzMzLC0yLjQ2MTM1OCAtMS40MTE0OSwwIC0yLjQ3MzAzLDAuNzkzMjM0IC0yLjQ3MzAzLDIuMjg2MzggMCwyLjUzMTM1IDMuNzc5NTMsMi4zMjE2NjggMy43Nzk1Myw0LjE4NzgwOSAwLDEuMDAzNSAtMC42NTMyNSwxLjM2NDgyOSAtMS41MDQ4MSwxLjM2NDgyOSAtMC42ODgyNSwwIC0xLjQxMTQ5LC0wLjM2MTMyOSAtMS40MTE0OSwtMS41MDQ1MiBsIDAsLTAuMjQ0OTY5IC0xLjA2MTUzLDAgeiBtIC02LjQ5NzgyLC01LjkxNDI2IDAsMC45MzMyMTcgMi4yMTU4MSwwIDAsNy40ODg3NzEgMS4wNzM0OSwwIDAsLTcuNDg4NzcxIDIuMjE2MzksMCAwLC0wLjkzMzIxNyAtNS41MDU2OSwwIHogbSAtMTIuMjY1OTYsMCAwLDAuOTMzMjE3IDIuMjE2MSwwIDAsNy40ODg3NzEgMS4wNzM0OSwwIDAsLTcuNDg4NzcxIDIuMjE2MSwwIDAsLTAuOTMzMjE3IC01LjUwNTY5LDAgeiBtIC0xLjYzMzEzLDAgLTEuMDczMiwwIDAsOC40MjIyNzkgMS4wNzMyLDAgMCwtOC40MjIyNzkgeiBtIC03Ljk0MTM4LDUuOTE0MjYgYyAtMC4wMjMzLDAuODA0NjA4IC0wLjAyMzMsMi43MDYwMzYgMi40NjEzNiwyLjY4MjcwNiAxLjM4ODE2LDAgMi42MTMsLTAuNTcxNTk1IDIuNjEzLC0yLjM0NDcwNyAwLC0yLjY3MTA0IC0zLjc3OTUyLC0yLjQwMjc0MSAtMy43Nzk1MiwtNC4yNTc1MDggMCwtMC45MDk4ODYgMC42NTMyNSwtMS4yMzY4MDQgMS4yOTQ4NCwtMS4yMzY4MDQgMS4wMTQ4NywwIDEuMzA2NSwwLjYwNjg4MiAxLjI5NDgzLDEuNTI4MTQyIGwgMS4xMTk4NiwwIGMgMC4wNywtMS43MTQ3ODUgLTAuNzkzMjMsLTIuNDYxMzU4IC0yLjMzMzA0LC0yLjQ2MTM1OCAtMS40MTE0OSwwIC0yLjQ3MzAyLDAuNzkzMjM0IC0yLjQ3MzAyLDIuMjg2MzggMCwyLjUzMTM1IDMuNzc5MjMsMi4zMjE2NjggMy43NzkyMyw0LjE4NzgwOSAwLDEuMDAzNSAtMC42NTI5NiwxLjM2NDgyOSAtMS41MDQ1MiwxLjM2NDgyOSAtMC42ODgyNCwwIC0xLjQxMTQ5LC0wLjM2MTMyOSAtMS40MTE0OSwtMS41MDQ1MiBsIDAsLTAuMjQ0OTY5IC0xLjA2MTUzLDAgeiBtIC04LjMxNDY3LDIuNTA3NzI4IDAsLTAuOTMzMjE3IC0zLjMzNTk2LDAgMCwtMi45MTYzMDEgMy4wMzI5NiwwIDAsLTAuOTMzMjE3IC0zLjAzMjk2LDAgMCwtMi43MDYwMzYgMy4yNjYyNiwwIDAsLTAuOTMzMjE3IC00LjMzOTc1LDAgMCw4LjQyMTk4OCA0LjQwOTQ1LDAgeiBtIC01LjgxMDczLC04LjQyMTk4OCAtMS4wOTY1MjgsMCAtMS45NzE0Miw3LjQwNzExNSAtMS45NDgwOSwtNy40MDcxMTUgLTEuMTY2MjI5LDAgMi40Mzc3MzcsOC40MjE5ODggMS4yODMxNzIsMCAyLjQ2MTM1OCwtOC40MjE5ODggeiBtIC03LjcxNzcsMCAtMS4wNzMxOTksMCAwLDguNDIyMjc5IDEuMDczMTk5LDAgMCwtOC40MjIyNzkgeiBtIC00LjMwNTMzNiwwIDAsNy4yMDg4MDYgLTMuMzAxMjUzLC03LjIwODgwNiAtMS41MTY0NzcsMCAwLDguNDIxOTg4IDAuOTU2NTQ3LDAgMCwtNy4zMDI0MiAzLjM0NzkxNCw3LjMwMjQyIDEuNDY5ODE2LDAgMCwtOC40MjE5ODggLTAuOTU2NTQ3LDAgeiBtIC0xMi4xODU3NjYsNS4zNDIzNzMgYyAwLDIuMzMzMzMzIDAuODYzMjI1LDMuMjU0NTkzIDIuNjQ4MDAyLDMuMjU0NTkzIDEuNzg0Nzc2LDAgMi42NDgwMDIsLTAuOTIxMjYgMi42NDgwMDIsLTMuMjU0NTkzIGwgMCwtNS4zNDIzNzMgLTEuMDcyOTA4LDAgMCw1LjM4OTMyNiBjIDAsMS44NDI4MTEgLTAuNTYwMjIxLDIuMzA5NDE5IC0xLjU3NTA5NCwyLjMwOTQxOSAtMS4wMTQ4NzMsMCAtMS41NzQ4MDMsLTAuNDY2NjA4IC0xLjU3NDgwMywtMi4zMDk0MTkgbCAwLC01LjM4OTMyNiAtMS4wNzMxOTksMCAwLDUuMzQyMzczIHogbSA1Mi4wMjkxNTIsNy45ODgwNDIgMi4zMzMwNCw3LjQ4OTA2MyAxLjAxNDg4LDAgMi4zNTY2NiwtNy40ODkwNjMgMC4wMjMsNy40ODkwNjMgMS4wNzMyLDAgMCwtOC40MjIyNzkgLTEuNzczMTIsMCAtMi4xNDYzOSw3LjA2OTExNSAtMi4xNDYxMSwtNy4wNjkxMTUgLTEuNzM4NDEsMCAwLDguNDIyMjc5IDEuMDAzMjEsMCAwLC03LjQ4OTA2MyIgc3R5bGU9ImZpbGw6IzIzMWYyMDtmaWxsLW9wYWNpdHk6MTtmaWxsLXJ1bGU6ZXZlbm9kZDtzdHJva2U6bm9uZSIgaWQ9InBhdGgyMDAiLz4mI3hhOyAgICAgIDxwYXRoIGlkPSJwYXRoMjA0IiBzdHlsZT0iZmlsbDojYjExYjE4O2ZpbGwtb3BhY2l0eToxO2ZpbGwtcnVsZTpub256ZXJvO3N0cm9rZTpub25lIiBkPSJtIDM0LjkzMzIxNCwyMC41MzI5OTIgYyAwLC05LjEzMTIzMiA3LjQwMjE1NywtMTYuNTMzMzg4NyAxNi41MzMzODksLTE2LjUzMzM4ODcgOS4xMzEyMzIsMCAxNi41MzMzODgsNy40MDIxNTY3IDE2LjUzMzM4OCwxNi41MzMzODg3IDAsOS4xMzEyMzIgLTcuNDAyMTU2LDE2LjUzMzM4OSAtMTYuNTMzMzg4LDE2LjUzMzM4OSAtOS4xMzEyMzIsMCAtMTYuNTMzMzg5LC03LjQwMjE1NyAtMTYuNTMzMzg5LC0xNi41MzMzODkiLz4mI3hhOyAgICA8L2c+JiN4YTsgIDwvZz4mI3hhOzwvc3ZnPg==;" vertex="1" parent="1">
          <mxGeometry x="390" y="301" width="300" height="100" as="geometry" />
        </mxCell>
        <mxCell id="zemKmCcNjwJqudbQ4LHM-13" value="" style="rounded=0;whiteSpace=wrap;html=1;fillColor=none;dashed=1;" vertex="1" parent="1">
          <mxGeometry x="-20" y="69.5" width="1190" height="560" as="geometry" />
        </mxCell>
      </root>
    </mxGraphModel>
  </diagram>
</mxfile>
